<svg id="svg" version="1.1" xmlns="http://www.w3.org/2000/svg" xmlns:xlink="http://www.w3.org/1999/xlink" width="400" height="400" viewBox="0, 0, 400,400"><g id="svgg"><path id="path0" d="M185.700 0.273 C 184.325 0.364,183.200 0.610,183.200 0.819 C 183.200 1.029,182.300 1.200,181.200 1.200 C 180.100 1.200,179.200 1.380,179.200 1.600 C 179.200 1.820,178.570 2.000,177.800 2.000 C 177.030 2.000,176.400 2.180,176.400 2.400 C 176.400 2.620,175.860 2.800,175.200 2.800 C 174.540 2.800,174.000 2.980,174.000 3.200 C 174.000 3.420,173.460 3.600,172.800 3.600 C 172.140 3.600,171.600 3.780,171.600 4.000 C 171.600 4.220,171.060 4.400,170.400 4.400 C 169.740 4.400,169.200 4.580,169.200 4.800 C 169.200 5.020,168.761 5.200,168.224 5.200 C 167.687 5.200,167.136 5.380,167.000 5.600 C 166.864 5.820,166.403 6.000,165.976 6.000 C 165.549 6.000,165.200 6.180,165.200 6.400 C 165.200 6.620,164.840 6.800,164.400 6.800 C 163.960 6.800,163.600 6.980,163.600 7.200 C 163.600 7.420,163.240 7.600,162.800 7.600 C 162.360 7.600,162.000 7.780,162.000 8.000 C 162.000 8.220,161.731 8.400,161.403 8.400 C 160.569 8.400,157.600 9.723,157.600 10.094 C 157.600 10.262,157.240 10.400,156.800 10.400 C 156.360 10.400,156.000 10.580,156.000 10.800 C 156.000 11.020,155.764 11.200,155.475 11.200 C 155.187 11.200,154.564 11.560,154.092 12.000 C 153.620 12.440,153.091 12.800,152.917 12.801 C 152.743 12.801,151.970 13.341,151.200 14.000 C 150.430 14.659,149.615 15.199,149.388 15.199 C 149.162 15.200,148.717 15.560,148.400 16.000 C 148.083 16.440,147.579 16.800,147.280 16.800 C 146.982 16.800,146.046 17.520,145.200 18.400 C 144.354 19.280,143.556 20.000,143.426 20.000 C 143.295 20.000,141.751 21.432,139.994 23.181 C 138.237 24.931,136.800 26.261,136.800 26.137 C 136.800 25.780,134.020 28.962,134.009 29.331 C 134.004 29.514,133.280 30.354,132.400 31.200 C 131.520 32.046,130.800 32.941,130.800 33.190 C 130.800 33.440,130.261 34.219,129.602 34.922 C 128.943 35.625,128.403 36.343,128.402 36.517 C 128.401 36.691,128.040 37.220,127.600 37.692 C 127.160 38.164,126.800 38.787,126.800 39.075 C 126.800 39.364,126.609 39.600,126.376 39.600 C 126.143 39.600,126.064 39.780,126.200 40.000 C 126.336 40.220,126.282 40.400,126.081 40.400 C 125.879 40.400,125.287 41.390,124.764 42.600 C 124.242 43.810,123.676 44.800,123.507 44.800 C 123.338 44.800,123.200 45.160,123.200 45.600 C 123.200 46.040,123.020 46.400,122.800 46.400 C 122.580 46.400,122.400 46.760,122.400 47.200 C 122.400 47.640,122.220 48.000,122.000 48.000 C 121.780 48.000,121.600 48.360,121.600 48.800 C 121.600 49.240,121.420 49.600,121.200 49.600 C 120.980 49.600,120.800 49.960,120.800 50.400 C 120.800 50.840,120.620 51.200,120.400 51.200 C 120.180 51.200,120.000 51.549,120.000 51.976 C 120.000 52.403,119.820 52.864,119.600 53.000 C 119.380 53.136,119.200 53.687,119.200 54.224 C 119.200 54.761,119.020 55.200,118.800 55.200 C 118.580 55.200,118.400 55.740,118.400 56.400 C 118.400 57.060,118.220 57.600,118.000 57.600 C 117.780 57.600,117.600 58.050,117.600 58.600 C 117.600 59.150,117.420 59.600,117.200 59.600 C 116.980 59.600,116.800 60.129,116.800 60.776 C 116.800 61.423,116.620 62.064,116.400 62.200 C 116.180 62.336,116.000 63.067,116.000 63.824 C 116.000 64.581,115.820 65.200,115.600 65.200 C 115.380 65.200,115.200 66.100,115.200 67.200 C 115.200 68.300,115.020 69.200,114.800 69.200 C 114.578 69.200,114.400 70.267,114.400 71.600 C 114.400 72.933,114.222 74.000,114.000 74.000 C 113.742 74.000,113.600 78.267,113.600 86.000 C 113.600 93.733,113.742 98.000,114.000 98.000 C 114.220 98.000,114.400 98.979,114.400 100.176 C 114.400 101.373,114.580 102.464,114.800 102.600 C 115.020 102.736,115.200 103.546,115.200 104.400 C 115.200 105.254,115.380 106.064,115.600 106.200 C 115.820 106.336,116.000 107.157,116.000 108.024 C 116.000 108.891,116.180 109.600,116.400 109.600 C 116.620 109.600,116.800 110.140,116.800 110.800 C 116.800 111.460,116.980 112.000,117.200 112.000 C 117.420 112.000,117.600 112.540,117.600 113.200 C 117.600 113.860,117.780 114.400,118.000 114.400 C 118.220 114.400,118.400 114.940,118.400 115.600 C 118.400 116.260,118.580 116.800,118.800 116.800 C 119.020 116.800,119.200 117.072,119.200 117.405 C 119.200 117.738,119.380 118.368,119.600 118.805 C 119.820 119.242,120.180 119.958,120.400 120.395 C 120.620 120.832,120.800 121.462,120.800 121.795 C 120.800 122.128,120.980 122.400,121.200 122.400 C 121.420 122.400,121.600 122.760,121.600 123.200 C 121.600 123.640,121.780 124.000,122.000 124.000 C 122.220 124.000,122.400 124.270,122.400 124.600 C 122.400 124.930,122.580 125.200,122.800 125.200 C 123.020 125.200,123.200 125.560,123.200 126.000 C 123.200 126.440,123.380 126.800,123.600 126.800 C 123.820 126.800,124.000 127.160,124.000 127.600 C 124.000 128.040,124.180 128.400,124.400 128.400 C 124.620 128.400,124.800 128.760,124.800 129.200 C 124.800 129.640,124.991 130.000,125.224 130.000 C 125.457 130.000,125.536 130.180,125.400 130.400 C 125.264 130.620,125.343 130.800,125.576 130.800 C 125.809 130.800,126.000 131.078,126.000 131.417 C 126.000 131.756,126.351 132.410,126.780 132.871 C 127.209 133.331,127.854 134.328,128.214 135.086 C 128.574 135.844,129.303 136.842,129.834 137.304 C 130.365 137.766,130.800 138.342,130.800 138.584 C 130.800 138.826,131.160 139.283,131.600 139.600 C 132.040 139.917,132.400 140.395,132.400 140.661 C 132.400 140.928,132.760 141.260,133.200 141.400 C 133.640 141.540,134.000 141.903,134.000 142.206 C 134.000 143.069,145.926 154.691,147.291 155.159 C 147.546 155.247,148.178 155.742,148.695 156.259 C 149.213 156.777,149.858 157.200,150.129 157.200 C 150.400 157.200,150.930 157.560,151.307 158.000 C 151.684 158.440,152.354 158.800,152.796 158.800 C 153.238 158.800,153.600 158.980,153.600 159.200 C 153.600 159.420,153.920 159.600,154.312 159.600 C 154.703 159.600,155.283 159.960,155.600 160.400 C 155.917 160.840,156.497 161.200,156.888 161.200 C 157.280 161.200,157.600 161.380,157.600 161.600 C 157.600 161.820,157.971 162.000,158.424 162.000 C 158.877 162.000,159.136 162.180,159.000 162.400 C 158.864 162.620,159.123 162.800,159.576 162.800 C 160.029 162.800,160.400 162.980,160.400 163.200 C 160.400 163.420,160.634 163.600,160.920 163.600 C 161.656 163.600,163.593 164.541,163.597 164.900 C 163.599 165.065,163.960 165.200,164.400 165.200 C 164.840 165.200,165.200 165.380,165.200 165.600 C 165.200 165.820,165.639 166.000,166.176 166.000 C 166.713 166.000,167.264 166.180,167.400 166.400 C 167.536 166.620,167.997 166.800,168.424 166.800 C 168.851 166.800,169.200 166.980,169.200 167.200 C 169.200 167.420,169.740 167.600,170.400 167.600 C 171.060 167.600,171.600 167.780,171.600 168.000 C 171.600 168.220,172.140 168.400,172.800 168.400 C 173.460 168.400,174.000 168.559,174.000 168.753 C 174.000 168.948,174.335 169.194,174.745 169.302 C 175.155 169.409,175.975 170.486,176.566 171.696 C 177.158 172.905,177.993 174.271,178.421 174.731 C 178.850 175.190,179.200 175.829,179.200 176.150 C 179.200 176.471,179.367 176.793,179.570 176.867 C 179.774 176.940,179.999 177.263,180.070 177.584 C 180.142 177.906,180.515 178.525,180.900 178.960 C 181.285 179.395,181.600 179.987,181.600 180.275 C 181.600 180.564,181.780 180.800,182.000 180.800 C 182.220 180.800,182.400 181.160,182.400 181.600 C 182.400 182.040,182.580 182.400,182.800 182.400 C 183.020 182.400,183.200 182.720,183.200 183.112 C 183.200 183.503,183.560 184.083,184.000 184.400 C 184.440 184.717,184.800 185.297,184.800 185.688 C 184.800 186.080,184.980 186.400,185.200 186.400 C 185.420 186.400,185.600 186.760,185.600 187.200 C 185.600 187.640,185.780 188.000,186.000 188.000 C 186.220 188.000,186.400 188.270,186.400 188.600 C 186.400 188.930,186.580 189.200,186.800 189.200 C 187.020 189.200,187.200 189.470,187.200 189.800 C 187.200 190.130,187.380 190.400,187.600 190.400 C 187.820 190.400,188.000 190.670,188.000 191.000 C 188.000 191.330,188.180 191.600,188.400 191.600 C 188.620 191.600,188.800 191.960,188.800 192.400 C 188.800 192.840,188.980 193.200,189.200 193.200 C 189.420 193.200,189.600 193.520,189.600 193.912 C 189.600 194.303,189.960 194.883,190.400 195.200 C 190.840 195.517,191.200 195.946,191.200 196.154 C 191.200 196.834,192.546 199.600,192.877 199.600 C 193.055 199.600,193.200 199.960,193.200 200.400 C 193.200 200.840,193.346 201.200,193.525 201.200 C 193.704 201.200,194.099 201.834,194.403 202.609 C 194.707 203.383,195.281 204.311,195.678 204.671 C 196.075 205.030,196.400 205.545,196.400 205.816 C 196.400 206.659,198.298 207.600,200.000 207.600 C 201.702 207.600,203.600 206.659,203.600 205.816 C 203.600 205.545,203.960 204.998,204.400 204.600 C 204.840 204.202,205.200 203.634,205.200 203.338 C 205.200 203.042,205.380 202.800,205.600 202.800 C 205.820 202.800,206.000 202.440,206.000 202.000 C 206.000 201.560,206.180 201.200,206.400 201.200 C 206.620 201.200,206.800 200.840,206.800 200.400 C 206.800 199.960,206.947 199.600,207.126 199.600 C 207.501 199.600,208.800 197.019,208.800 196.275 C 208.800 196.001,209.160 195.517,209.600 195.200 C 210.040 194.883,210.400 194.303,210.400 193.912 C 210.400 193.520,210.580 193.200,210.800 193.200 C 211.020 193.200,211.200 192.840,211.200 192.400 C 211.200 191.960,211.380 191.600,211.600 191.600 C 211.820 191.600,212.000 191.330,212.000 191.000 C 212.000 190.670,212.180 190.400,212.400 190.400 C 212.620 190.400,212.800 190.130,212.800 189.800 C 212.800 189.470,212.980 189.200,213.200 189.200 C 213.420 189.200,213.600 188.930,213.600 188.600 C 213.600 188.270,213.780 188.000,214.000 188.000 C 214.220 188.000,214.400 187.640,214.400 187.200 C 214.400 186.760,214.580 186.400,214.800 186.400 C 215.020 186.400,215.200 186.122,215.200 185.783 C 215.200 185.444,215.560 184.780,216.000 184.308 C 216.440 183.836,216.800 183.213,216.800 182.925 C 216.800 182.636,216.980 182.400,217.200 182.400 C 217.420 182.400,217.600 182.040,217.600 181.600 C 217.600 181.160,217.780 180.800,218.000 180.800 C 218.220 180.800,218.400 180.564,218.400 180.275 C 218.400 179.987,218.760 179.364,219.200 178.892 C 219.640 178.420,220.000 177.756,220.000 177.417 C 220.000 177.078,220.180 176.800,220.400 176.800 C 220.620 176.800,220.800 176.440,220.800 176.000 C 220.800 175.560,220.960 175.200,221.156 175.200 C 221.352 175.200,221.903 174.435,222.381 173.500 C 224.177 169.984,224.510 169.496,225.245 169.304 C 225.660 169.195,226.000 168.948,226.000 168.753 C 226.000 168.559,226.540 168.400,227.200 168.400 C 227.860 168.400,228.400 168.220,228.400 168.000 C 228.400 167.780,228.762 167.600,229.205 167.600 C 229.983 167.600,230.369 167.458,232.295 166.462 C 232.787 166.208,233.552 166.000,233.995 166.000 C 234.438 166.000,234.800 165.820,234.800 165.600 C 234.800 165.380,235.160 165.200,235.600 165.200 C 236.040 165.200,236.400 165.020,236.400 164.800 C 236.400 164.580,236.760 164.400,237.200 164.400 C 237.640 164.400,238.000 164.220,238.000 164.000 C 238.000 163.780,238.360 163.600,238.800 163.600 C 239.240 163.600,239.600 163.420,239.600 163.200 C 239.600 162.980,239.960 162.800,240.400 162.800 C 240.840 162.800,241.200 162.620,241.200 162.400 C 241.200 162.180,241.470 162.000,241.800 162.000 C 242.130 162.000,242.400 161.820,242.400 161.600 C 242.400 161.380,242.678 161.200,243.017 161.200 C 243.356 161.200,244.020 160.840,244.492 160.400 C 244.964 159.960,245.587 159.600,245.875 159.600 C 246.164 159.600,246.400 159.420,246.400 159.200 C 246.400 158.980,246.672 158.800,247.004 158.800 C 247.549 158.800,251.513 156.264,252.000 155.603 C 252.110 155.454,252.501 155.167,252.869 154.966 C 254.713 153.957,266.000 143.165,266.000 142.410 C 266.000 142.218,266.720 141.356,267.600 140.493 C 268.480 139.631,269.200 138.718,269.200 138.466 C 269.200 138.213,269.560 137.782,270.000 137.507 C 270.440 137.232,270.800 136.815,270.800 136.579 C 270.800 136.344,271.143 135.782,271.563 135.332 C 271.983 134.881,272.724 133.733,273.210 132.781 C 273.695 131.829,274.342 130.801,274.646 130.497 C 274.951 130.192,275.200 129.596,275.200 129.171 C 275.200 128.747,275.380 128.400,275.600 128.400 C 275.820 128.400,276.000 128.040,276.000 127.600 C 276.000 127.160,276.180 126.800,276.400 126.800 C 276.620 126.800,276.800 126.440,276.800 126.000 C 276.800 125.560,276.980 125.200,277.200 125.200 C 277.420 125.200,277.600 124.930,277.600 124.600 C 277.600 124.270,277.780 124.000,278.000 124.000 C 278.220 124.000,278.400 123.766,278.400 123.480 C 278.400 122.744,279.341 120.807,279.700 120.803 C 279.865 120.801,280.000 120.361,280.000 119.824 C 280.000 119.287,280.180 118.736,280.400 118.600 C 280.620 118.464,280.800 118.003,280.800 117.576 C 280.800 117.149,280.980 116.800,281.200 116.800 C 281.420 116.800,281.600 116.260,281.600 115.600 C 281.600 114.940,281.780 114.400,282.000 114.400 C 282.220 114.400,282.400 113.860,282.400 113.200 C 282.400 112.540,282.580 112.000,282.800 112.000 C 283.020 112.000,283.200 111.460,283.200 110.800 C 283.200 110.140,283.380 109.600,283.600 109.600 C 283.820 109.600,284.000 108.880,284.000 108.000 C 284.000 107.120,284.180 106.400,284.400 106.400 C 284.620 106.400,284.800 105.601,284.800 104.624 C 284.800 103.647,284.980 102.736,285.200 102.600 C 285.420 102.464,285.600 101.384,285.600 100.200 C 285.600 99.016,285.780 97.936,286.000 97.800 C 286.252 97.644,286.400 93.270,286.400 86.000 C 286.400 78.730,286.252 74.356,286.000 74.200 C 285.780 74.064,285.600 72.883,285.600 71.576 C 285.600 70.259,285.422 69.200,285.200 69.200 C 284.980 69.200,284.800 68.401,284.800 67.424 C 284.800 66.447,284.620 65.536,284.400 65.400 C 284.180 65.264,284.000 64.533,284.000 63.776 C 284.000 63.019,283.820 62.400,283.600 62.400 C 283.380 62.400,283.200 61.871,283.200 61.224 C 283.200 60.577,283.020 59.936,282.800 59.800 C 282.580 59.664,282.400 59.113,282.400 58.576 C 282.400 58.039,282.220 57.600,282.000 57.600 C 281.780 57.600,281.600 57.060,281.600 56.400 C 281.600 55.740,281.420 55.200,281.200 55.200 C 280.980 55.200,280.800 54.761,280.800 54.224 C 280.800 53.687,280.620 53.136,280.400 53.000 C 280.180 52.864,280.000 52.403,280.000 51.976 C 280.000 51.549,279.820 51.200,279.600 51.200 C 279.380 51.200,279.200 50.840,279.200 50.400 C 279.200 49.960,279.020 49.600,278.800 49.600 C 278.580 49.600,278.400 49.240,278.400 48.800 C 278.400 48.360,278.220 48.000,278.000 48.000 C 277.780 48.000,277.600 47.640,277.600 47.200 C 277.600 46.760,277.420 46.400,277.200 46.400 C 276.980 46.400,276.800 46.040,276.800 45.600 C 276.800 45.160,276.620 44.800,276.400 44.800 C 276.180 44.800,276.000 44.440,276.000 44.000 C 276.000 43.560,275.865 43.198,275.700 43.196 C 275.535 43.194,275.045 42.384,274.610 41.396 C 274.176 40.408,273.703 39.600,273.559 39.600 C 273.415 39.600,273.073 39.060,272.800 38.400 C 272.527 37.740,272.157 37.200,271.978 37.200 C 271.800 37.200,271.538 36.834,271.396 36.387 C 271.254 35.940,270.702 35.138,270.169 34.605 C 269.636 34.072,269.200 33.470,269.200 33.266 C 269.200 33.063,268.480 32.155,267.600 31.248 C 266.720 30.341,266.000 29.475,266.000 29.323 C 266.000 28.721,253.748 17.226,252.704 16.847 C 252.472 16.763,251.742 16.178,251.082 15.547 C 250.421 14.916,249.721 14.400,249.524 14.400 C 249.327 14.400,248.780 14.040,248.308 13.600 C 247.836 13.160,247.213 12.800,246.925 12.800 C 246.636 12.800,246.400 12.641,246.400 12.447 C 246.400 12.252,246.085 11.993,245.700 11.871 C 244.974 11.641,242.750 10.366,242.400 9.979 C 242.012 9.551,239.271 8.400,238.640 8.400 C 238.288 8.400,238.000 8.220,238.000 8.000 C 238.000 7.780,237.640 7.600,237.200 7.600 C 236.760 7.600,236.400 7.420,236.400 7.200 C 236.400 6.980,236.040 6.800,235.600 6.800 C 235.160 6.800,234.800 6.620,234.800 6.400 C 234.800 6.180,234.451 6.000,234.024 6.000 C 233.597 6.000,233.136 5.820,233.000 5.600 C 232.864 5.380,232.313 5.200,231.776 5.200 C 231.239 5.200,230.800 5.020,230.800 4.800 C 230.800 4.580,230.260 4.400,229.600 4.400 C 228.940 4.400,228.400 4.220,228.400 4.000 C 228.400 3.780,227.860 3.600,227.200 3.600 C 226.540 3.600,226.000 3.420,226.000 3.200 C 226.000 2.980,225.460 2.800,224.800 2.800 C 224.140 2.800,223.600 2.620,223.600 2.400 C 223.600 2.180,222.981 2.000,222.224 2.000 C 221.467 2.000,220.736 1.820,220.600 1.600 C 220.464 1.380,219.568 1.200,218.610 1.200 C 217.595 1.200,216.799 0.996,216.704 0.713 C 216.542 0.226,191.736 -0.126,185.700 0.273 M178.526 44.842 C 179.007 45.085,184.033 49.898,189.696 55.536 L 199.993 65.787 210.496 55.321 C 221.439 44.418,222.192 43.849,224.257 44.937 C 225.792 45.745,241.040 61.174,241.364 62.247 C 241.863 63.898,240.702 65.334,230.705 75.431 C 225.147 81.045,220.518 85.726,220.418 85.834 C 220.318 85.942,224.855 90.659,230.499 96.315 C 236.144 101.972,240.950 107.104,241.178 107.719 C 241.894 109.643,240.844 111.048,232.521 119.300 C 221.842 129.890,224.208 130.162,210.800 116.800 C 205.061 111.080,200.231 106.400,200.069 106.400 C 199.906 106.400,195.067 111.080,189.315 116.800 C 175.843 130.196,178.195 129.927,167.479 119.300 C 156.013 107.930,155.836 109.971,169.471 96.329 C 178.838 86.957,179.691 85.991,179.171 85.349 C 178.857 84.963,174.145 80.180,168.700 74.720 C 155.924 61.912,156.155 64.116,166.500 53.678 C 175.759 44.337,176.480 43.807,178.526 44.842 " stroke="none" fill="#e1e1f0" fill-rule="evenodd"></path><path id="path1" d="M175.400 45.156 C 174.740 45.571,170.735 49.406,166.500 53.678 C 156.155 64.116,155.924 61.912,168.700 74.720 C 174.145 80.180,178.857 84.963,179.171 85.349 C 179.691 85.991,178.838 86.957,169.471 96.329 C 155.836 109.971,156.013 107.930,167.479 119.300 C 178.195 129.927,175.843 130.196,189.315 116.800 C 195.067 111.080,199.906 106.400,200.069 106.400 C 200.231 106.400,205.061 111.080,210.800 116.800 C 224.208 130.162,221.842 129.890,232.521 119.300 C 240.844 111.048,241.894 109.643,241.178 107.719 C 240.950 107.104,236.144 101.972,230.499 96.315 C 224.855 90.659,220.318 85.942,220.418 85.834 C 220.518 85.726,225.147 81.045,230.705 75.431 C 240.702 65.334,241.863 63.898,241.364 62.247 C 241.040 61.174,225.792 45.745,224.257 44.937 C 222.192 43.849,221.439 44.418,210.496 55.321 L 199.993 65.787 189.696 55.536 C 177.659 43.551,177.797 43.651,175.400 45.156 " stroke="none" fill="#fb4444" fill-rule="evenodd"></path><path id="path2" d="M260.000 208.755 C 260.000 208.950,259.125 209.027,258.056 208.927 C 256.728 208.802,255.937 208.920,255.556 209.298 C 255.225 209.628,254.303 209.822,253.278 209.777 C 252.330 209.736,251.340 209.904,251.078 210.151 C 250.815 210.398,249.880 210.663,249.000 210.739 C 248.120 210.816,247.175 211.063,246.900 211.288 C 246.625 211.514,246.400 211.598,246.400 211.477 C 246.400 211.355,245.815 211.435,245.100 211.654 C 244.385 211.873,243.620 212.091,243.400 212.137 C 243.180 212.184,242.745 212.382,242.432 212.577 C 242.120 212.771,241.490 212.960,241.032 212.995 C 240.575 213.030,239.503 213.361,238.651 213.730 C 237.799 214.098,236.978 214.400,236.826 214.400 C 236.674 214.400,235.751 214.796,234.775 215.279 C 233.799 215.763,232.775 216.115,232.500 216.061 C 232.225 216.008,232.000 216.153,232.000 216.382 C 232.000 216.612,231.723 216.800,231.384 216.800 C 231.045 216.800,230.265 217.171,229.651 217.626 C 229.037 218.080,228.261 218.491,227.927 218.540 C 227.593 218.589,226.849 218.938,226.274 219.315 C 225.699 219.692,224.952 220.000,224.614 220.000 C 224.276 220.000,224.000 220.180,224.000 220.400 C 224.000 220.620,223.680 220.800,223.288 220.800 C 222.897 220.800,222.317 221.160,222.000 221.600 C 221.683 222.040,221.103 222.400,220.712 222.400 C 220.320 222.400,220.000 222.580,220.000 222.800 C 220.000 223.020,219.764 223.200,219.475 223.200 C 219.187 223.200,218.564 223.560,218.092 224.000 C 217.620 224.440,217.046 224.800,216.817 224.800 C 216.588 224.800,216.400 224.937,216.400 225.105 C 216.400 225.411,215.215 226.133,213.900 226.629 C 213.515 226.774,213.200 227.052,213.200 227.247 C 213.200 227.441,212.970 227.600,212.689 227.600 C 212.408 227.600,211.895 227.915,211.550 228.300 C 211.204 228.685,210.349 229.450,209.648 230.000 C 208.948 230.550,208.111 231.238,207.787 231.529 C 207.464 231.819,207.200 231.969,207.200 231.862 C 207.200 231.755,206.588 232.261,205.841 232.987 C 205.093 233.713,203.968 234.616,203.341 234.994 C 202.713 235.372,201.660 236.374,201.000 237.222 C 200.340 238.069,199.575 238.771,199.300 238.781 C 199.025 238.792,198.843 238.935,198.896 239.100 C 198.950 239.265,198.099 240.254,197.006 241.297 L 195.020 243.195 196.168 244.097 C 196.799 244.594,198.775 246.154,200.558 247.565 C 207.202 252.821,217.177 263.320,223.204 271.400 C 228.495 278.494,237.600 294.676,237.600 296.985 C 237.600 297.722,238.617 297.808,238.948 297.100 C 239.077 296.825,239.734 295.700,240.409 294.600 C 241.083 293.500,241.738 292.285,241.864 291.900 C 241.990 291.515,242.252 291.200,242.447 291.200 C 242.641 291.200,242.800 290.855,242.800 290.433 C 242.800 290.012,242.935 289.607,243.100 289.533 C 243.265 289.460,243.779 288.680,244.242 287.800 C 247.531 281.554,251.281 275.038,251.685 274.867 C 251.858 274.793,252.000 274.560,252.000 274.349 C 252.000 273.863,256.024 267.846,256.470 267.667 C 256.651 267.593,256.800 267.370,256.800 267.171 C 256.800 266.972,257.115 266.432,257.500 265.971 C 257.885 265.510,258.521 264.743,258.914 264.266 C 261.971 260.554,263.015 259.402,266.134 256.298 C 271.038 251.416,281.288 243.600,282.785 243.600 C 283.013 243.600,283.200 243.464,283.200 243.298 C 283.200 243.131,283.785 242.741,284.500 242.430 C 285.215 242.119,285.890 241.750,286.000 241.611 C 286.186 241.375,295.629 236.734,297.400 236.008 C 297.840 235.827,299.053 235.302,300.096 234.840 C 301.138 234.378,302.227 234.000,302.516 234.000 C 302.804 234.000,303.211 233.843,303.420 233.652 C 303.629 233.460,306.500 232.461,309.800 231.431 C 313.100 230.402,316.406 229.291,317.146 228.964 L 318.492 228.369 316.477 226.436 C 315.368 225.373,313.595 223.805,312.537 222.952 C 311.478 222.098,310.197 220.995,309.688 220.500 C 309.180 220.005,308.620 219.600,308.444 219.600 C 308.268 219.600,307.615 219.162,306.992 218.627 C 306.368 218.091,305.035 217.239,304.029 216.732 C 303.023 216.225,302.110 215.718,302.000 215.605 C 301.890 215.491,301.260 215.153,300.600 214.853 C 299.940 214.552,299.087 214.148,298.705 213.953 C 298.323 213.759,297.648 213.600,297.205 213.600 C 296.762 213.600,296.400 213.409,296.400 213.176 C 296.400 212.943,296.220 212.864,296.000 213.000 C 295.780 213.136,295.600 213.046,295.600 212.800 C 295.600 212.554,295.420 212.464,295.200 212.600 C 294.980 212.736,294.800 212.627,294.800 212.357 C 294.800 212.087,294.687 211.979,294.549 212.117 C 294.411 212.255,293.760 212.090,293.103 211.750 C 292.445 211.409,291.567 211.220,291.153 211.328 C 290.738 211.437,290.487 211.383,290.595 211.208 C 290.840 210.812,289.387 210.410,288.400 210.600 C 287.995 210.678,287.558 210.466,287.428 210.129 C 287.291 209.771,286.934 209.617,286.568 209.757 C 286.223 209.889,285.093 209.719,284.055 209.380 C 283.017 209.040,281.500 208.836,280.684 208.926 C 279.868 209.016,279.200 208.935,279.200 208.745 C 279.200 208.555,274.880 208.400,269.600 208.400 C 264.287 208.400,260.000 208.558,260.000 208.755 M123.126 233.601 C 123.057 233.796,121.740 233.990,120.200 234.032 C 118.660 234.075,117.105 234.260,116.745 234.445 C 116.384 234.629,115.529 234.823,114.845 234.875 C 114.160 234.927,113.600 235.112,113.600 235.285 C 113.600 235.458,113.096 235.600,112.480 235.600 C 111.864 235.600,111.118 235.825,110.821 236.100 C 110.384 236.506,110.342 236.488,110.600 236.000 C 110.858 235.512,110.816 235.494,110.379 235.900 C 110.082 236.175,109.336 236.400,108.720 236.400 C 108.104 236.400,107.600 236.580,107.600 236.800 C 107.600 237.020,107.240 237.200,106.800 237.200 C 106.360 237.200,105.997 237.425,105.994 237.700 C 105.990 238.033,105.858 238.000,105.600 237.600 C 105.342 237.200,105.210 237.167,105.206 237.500 C 105.203 237.775,104.928 238.000,104.595 238.000 C 104.262 238.000,103.632 238.180,103.195 238.400 C 102.758 238.620,102.042 238.980,101.605 239.200 C 101.168 239.420,100.538 239.600,100.205 239.600 C 99.872 239.600,99.600 239.780,99.600 240.000 C 99.600 240.220,99.330 240.400,99.000 240.400 C 98.670 240.400,98.400 240.580,98.400 240.800 C 98.400 241.020,98.040 241.200,97.600 241.200 C 97.160 241.200,96.800 241.344,96.800 241.520 C 96.800 241.695,96.167 242.068,95.394 242.348 C 94.564 242.648,94.098 243.034,94.256 243.290 C 94.415 243.547,94.337 243.609,94.065 243.440 C 93.812 243.284,93.153 243.610,92.594 244.169 C 92.037 244.726,91.477 245.160,91.349 245.133 C 91.034 245.066,89.682 246.013,88.614 247.049 C 88.133 247.516,87.348 248.107,86.869 248.363 C 86.391 248.619,86.000 249.092,86.000 249.414 C 86.000 249.736,85.749 250.000,85.443 250.000 C 85.136 250.000,84.782 250.270,84.655 250.600 C 84.529 250.930,84.149 251.200,83.813 251.200 C 83.476 251.200,83.245 251.425,83.300 251.700 C 83.355 251.975,83.175 252.155,82.900 252.100 C 82.625 252.045,82.421 252.135,82.447 252.300 C 82.473 252.465,82.460 252.690,82.417 252.800 C 81.948 254.002,82.146 254.400,83.212 254.400 C 83.839 254.400,84.464 254.580,84.600 254.800 C 84.736 255.020,85.366 255.200,86.000 255.200 C 86.634 255.200,87.264 255.380,87.400 255.600 C 87.536 255.820,88.076 256.000,88.600 256.000 C 89.124 256.000,89.664 256.180,89.800 256.400 C 89.936 256.620,90.399 256.800,90.829 256.800 C 91.259 256.800,91.968 256.980,92.405 257.200 C 92.842 257.420,93.558 257.780,93.995 258.000 C 94.432 258.220,95.152 258.400,95.595 258.400 C 96.038 258.400,96.400 258.580,96.400 258.800 C 96.400 259.020,96.762 259.200,97.205 259.200 C 97.648 259.200,98.323 259.359,98.705 259.553 C 99.087 259.748,99.850 260.085,100.400 260.303 C 107.201 262.996,120.725 270.129,121.133 271.238 C 121.207 271.437,121.488 271.600,121.758 271.600 C 122.028 271.600,122.598 271.920,123.025 272.311 C 123.451 272.702,124.430 273.458,125.200 273.992 C 125.970 274.525,126.690 275.060,126.800 275.181 C 126.910 275.301,127.810 276.028,128.800 276.796 C 133.118 280.145,139.115 286.503,142.386 291.200 C 142.923 291.970,143.475 292.690,143.614 292.800 C 144.001 293.106,148.800 300.336,148.800 300.613 C 148.800 300.746,149.340 301.641,150.000 302.600 C 150.660 303.559,151.200 304.415,151.200 304.502 C 151.200 304.589,152.301 306.626,153.646 309.030 C 154.992 311.433,156.747 314.660,157.546 316.200 C 158.346 317.740,159.090 319.090,159.200 319.200 C 159.596 319.596,160.854 321.815,161.071 322.500 C 161.193 322.885,161.452 323.200,161.647 323.200 C 161.841 323.200,162.000 323.388,162.000 323.618 C 162.000 324.000,165.824 329.934,166.370 330.400 C 166.499 330.510,167.407 331.680,168.387 333.000 C 171.298 336.918,176.841 342.747,180.602 345.845 C 183.284 348.054,191.405 353.600,191.958 353.600 C 192.201 353.600,192.401 353.735,192.403 353.900 C 192.405 354.065,192.810 354.402,193.303 354.648 C 193.796 354.894,195.984 356.019,198.164 357.148 C 200.344 358.277,202.369 359.200,202.664 359.200 C 202.959 359.200,203.200 359.380,203.200 359.600 C 203.200 359.820,203.442 360.000,203.739 360.000 C 204.035 360.000,204.800 360.250,205.439 360.556 C 207.078 361.342,209.130 362.211,211.034 362.927 C 213.870 363.992,224.739 367.600,225.115 367.600 C 225.444 367.600,226.806 365.077,227.651 362.900 C 227.843 362.405,228.172 361.595,228.382 361.100 C 228.738 360.262,229.532 357.714,230.470 354.400 C 232.556 347.033,233.221 333.948,231.872 326.800 C 231.478 324.710,230.961 321.920,230.724 320.600 C 230.487 319.280,230.026 317.210,229.701 316.000 C 229.376 314.790,228.973 312.990,228.806 312.000 C 228.477 310.045,227.212 306.054,226.171 303.686 C 225.812 302.869,225.370 301.840,225.189 301.400 C 218.663 285.562,207.348 270.552,192.828 258.471 C 190.534 256.562,188.329 254.685,187.928 254.300 C 187.171 253.572,186.899 252.167,187.600 252.600 C 187.820 252.736,188.000 252.637,188.000 252.381 C 188.000 252.124,187.759 252.007,187.465 252.120 C 186.809 252.371,184.327 251.242,183.859 250.480 C 183.671 250.174,182.771 249.585,181.859 249.171 C 180.946 248.757,180.380 248.407,180.600 248.395 C 180.820 248.382,180.552 248.124,180.005 247.821 C 179.458 247.518,178.873 247.355,178.705 247.459 C 178.537 247.562,178.400 247.356,178.400 247.000 C 178.400 246.644,178.252 246.444,178.072 246.556 C 177.891 246.667,177.126 246.374,176.372 245.904 C 175.617 245.433,174.733 245.002,174.407 244.946 C 174.081 244.890,173.751 244.653,173.673 244.419 C 173.595 244.186,173.367 244.097,173.166 244.221 C 172.965 244.345,172.800 244.257,172.800 244.024 C 172.800 243.791,172.455 243.600,172.033 243.600 C 171.612 243.600,171.199 243.397,171.116 243.149 C 171.034 242.902,170.614 242.655,170.183 242.602 C 168.863 242.438,167.600 241.925,167.600 241.553 C 167.600 241.359,167.139 241.200,166.576 241.200 C 165.996 241.200,165.660 241.027,165.800 240.800 C 165.936 240.580,165.713 240.400,165.304 240.400 C 164.895 240.400,164.386 240.226,164.173 240.013 C 163.961 239.801,163.205 239.583,162.493 239.528 C 161.782 239.474,161.200 239.288,161.200 239.115 C 161.200 238.942,160.851 238.800,160.424 238.800 C 159.997 238.800,159.536 238.620,159.400 238.400 C 159.264 238.180,158.613 238.000,157.953 238.000 C 157.255 238.000,156.856 237.833,157.000 237.600 C 157.144 237.367,156.737 237.200,156.024 237.200 C 155.351 237.200,154.800 237.020,154.800 236.800 C 154.800 236.580,154.091 236.400,153.224 236.400 C 152.357 236.400,151.548 236.240,151.427 236.044 C 151.185 235.653,149.324 235.267,146.099 234.939 C 144.944 234.822,144.083 234.590,144.186 234.423 C 144.289 234.257,143.088 234.083,141.517 234.037 C 139.946 233.991,138.358 233.792,137.989 233.594 C 137.117 233.128,123.291 233.134,123.126 233.601 M325.900 240.718 C 325.515 240.795,325.200 241.025,325.200 241.229 C 325.200 241.433,324.671 241.600,324.024 241.600 C 323.377 241.600,322.736 241.780,322.600 242.000 C 322.464 242.220,321.834 242.400,321.200 242.400 C 320.566 242.400,319.936 242.580,319.800 242.800 C 319.664 243.020,319.034 243.200,318.400 243.200 C 317.766 243.200,317.136 243.380,317.000 243.600 C 316.864 243.820,316.401 244.000,315.971 244.000 C 315.216 244.000,314.826 244.144,312.905 245.138 C 312.413 245.392,311.659 245.600,311.229 245.600 C 310.799 245.600,310.336 245.780,310.200 246.000 C 310.064 246.220,309.513 246.400,308.976 246.400 C 308.439 246.400,308.000 246.580,308.000 246.800 C 308.000 247.020,307.728 247.200,307.395 247.200 C 307.062 247.200,306.477 247.359,306.095 247.553 C 305.713 247.748,304.950 248.089,304.400 248.313 C 299.093 250.467,291.075 254.542,289.569 255.851 C 289.221 256.153,288.804 256.400,288.641 256.400 C 288.334 256.400,284.754 258.758,284.400 259.193 C 284.290 259.328,283.570 259.877,282.800 260.414 C 278.650 263.304,270.644 271.508,267.590 276.000 C 267.067 276.770,266.540 277.490,266.419 277.600 C 265.917 278.058,264.400 280.394,264.400 280.708 C 264.400 280.896,264.085 281.407,263.700 281.845 C 263.021 282.617,262.725 283.085,261.200 285.800 C 260.801 286.510,260.233 287.520,259.938 288.045 C 259.642 288.570,259.310 289.090,259.199 289.200 C 259.089 289.310,258.729 289.937,258.399 290.594 C 258.070 291.251,257.106 293.051,256.258 294.594 C 255.410 296.137,254.078 298.570,253.298 300.000 C 252.518 301.430,251.221 303.680,250.416 305.000 C 249.611 306.320,248.692 307.843,248.376 308.385 C 248.059 308.926,247.612 309.577,247.381 309.832 C 247.151 310.086,246.200 311.465,245.267 312.896 L 243.572 315.499 244.156 318.449 C 247.145 333.563,245.845 353.324,241.106 364.800 C 240.879 365.350,240.537 366.205,240.346 366.700 C 240.156 367.195,239.844 368.005,239.653 368.500 C 239.462 368.995,238.742 370.550,238.053 371.956 C 236.387 375.355,236.389 375.362,239.100 375.032 C 240.365 374.878,242.030 374.695,242.800 374.626 C 244.913 374.437,248.908 373.592,249.705 373.165 C 250.092 372.957,250.826 372.892,251.335 373.019 C 251.910 373.164,252.448 373.024,252.759 372.649 C 253.034 372.318,253.482 372.133,253.756 372.238 C 254.029 372.343,254.758 372.167,255.376 371.846 C 255.994 371.526,256.729 371.351,257.009 371.459 C 257.290 371.567,257.638 371.462,257.783 371.227 C 257.928 370.992,258.577 370.800,259.224 370.800 C 259.871 370.800,260.400 370.620,260.400 370.400 C 260.400 370.180,260.755 370.000,261.188 370.000 C 261.621 370.000,262.617 369.640,263.400 369.200 C 264.183 368.760,265.083 368.400,265.400 368.400 C 265.717 368.400,266.617 368.040,267.400 367.600 C 268.183 367.160,269.089 366.800,269.412 366.800 C 269.735 366.800,270.000 366.620,270.000 366.400 C 270.000 366.180,270.234 366.000,270.520 366.000 C 271.256 366.000,273.193 365.059,273.197 364.700 C 273.199 364.535,273.560 364.400,274.000 364.400 C 274.440 364.400,274.800 364.220,274.800 364.000 C 274.800 363.780,275.070 363.600,275.400 363.600 C 275.730 363.600,276.000 363.420,276.000 363.200 C 276.000 362.980,276.278 362.800,276.617 362.800 C 276.956 362.800,277.620 362.440,278.092 362.000 C 278.564 361.560,279.232 361.200,279.575 361.199 C 279.919 361.199,280.830 360.659,281.600 360.000 C 282.370 359.341,283.225 358.801,283.500 358.801 C 283.775 358.800,284.000 358.590,284.000 358.333 C 284.000 358.077,284.110 357.976,284.243 358.110 C 284.538 358.405,288.469 355.760,288.920 354.965 C 289.096 354.654,289.412 354.400,289.623 354.400 C 289.999 354.400,291.608 353.094,293.443 351.300 C 293.949 350.805,294.537 350.400,294.748 350.400 C 295.281 350.400,305.024 340.735,304.900 340.329 C 304.845 340.148,305.100 340.000,305.467 340.000 C 305.833 340.000,306.033 339.899,305.910 339.776 C 305.786 339.653,306.575 338.663,307.662 337.576 C 308.749 336.489,309.518 335.600,309.372 335.600 C 309.225 335.600,309.936 334.745,310.952 333.700 C 311.968 332.655,312.800 331.575,312.800 331.300 C 312.800 331.025,312.980 330.800,313.200 330.800 C 313.420 330.800,313.600 330.565,313.600 330.278 C 313.600 329.991,314.228 329.071,314.996 328.233 C 315.763 327.395,316.313 326.582,316.217 326.427 C 316.121 326.273,316.393 325.893,316.821 325.585 C 317.250 325.276,317.600 324.899,317.600 324.748 C 317.600 324.596,318.053 323.781,318.606 322.936 C 319.159 322.091,319.564 321.299,319.506 321.177 C 319.448 321.054,319.896 320.363,320.503 319.643 C 321.109 318.922,321.504 318.168,321.379 317.966 C 321.255 317.765,321.343 317.600,321.576 317.600 C 321.809 317.600,322.000 317.352,322.000 317.049 C 322.000 316.746,322.274 316.270,322.610 315.992 C 322.945 315.714,323.125 315.391,323.009 315.275 C 322.893 315.160,323.097 314.735,323.461 314.332 C 323.826 313.930,324.009 313.600,323.868 313.600 C 323.727 313.600,323.968 313.015,324.404 312.300 C 324.840 311.585,325.198 310.685,325.199 310.300 C 325.199 309.915,325.380 309.600,325.600 309.600 C 325.820 309.600,326.000 309.328,326.000 308.995 C 326.000 308.662,326.159 308.077,326.353 307.695 C 326.548 307.313,326.908 306.505,327.153 305.900 C 327.399 305.295,327.801 304.305,328.047 303.700 C 328.292 303.095,328.652 302.287,328.847 301.905 C 329.041 301.523,329.200 300.758,329.200 300.205 C 329.200 299.652,329.380 299.200,329.600 299.200 C 329.820 299.200,330.000 298.581,330.000 297.824 C 330.000 297.067,330.180 296.336,330.400 296.200 C 330.620 296.064,330.800 295.423,330.800 294.776 C 330.800 294.129,330.980 293.600,331.200 293.600 C 331.420 293.600,331.600 292.790,331.600 291.800 C 331.600 290.810,331.780 290.000,332.000 290.000 C 332.220 290.000,332.400 288.999,332.400 287.776 C 332.400 286.553,332.553 285.647,332.740 285.763 C 332.927 285.878,333.117 284.679,333.163 283.099 C 333.210 281.518,333.407 280.033,333.602 279.798 C 334.293 278.964,333.475 258.983,332.767 259.420 C 332.561 259.548,332.400 258.671,332.400 257.424 C 332.400 256.201,332.220 255.200,332.000 255.200 C 331.780 255.200,331.600 254.469,331.600 253.576 C 331.600 252.596,331.442 252.051,331.200 252.200 C 330.961 252.347,330.800 251.863,330.800 251.000 C 330.800 250.137,330.639 249.653,330.400 249.800 C 330.167 249.944,330.000 249.537,330.000 248.824 C 330.000 248.151,329.820 247.600,329.600 247.600 C 329.380 247.600,329.200 247.060,329.200 246.400 C 329.200 245.740,329.020 245.200,328.800 245.200 C 328.580 245.200,328.400 244.930,328.400 244.600 C 328.400 244.270,328.258 244.000,328.085 244.000 C 327.912 244.000,327.741 243.611,327.705 243.136 C 327.669 242.661,327.472 242.166,327.266 242.036 C 327.061 241.906,326.827 241.525,326.746 241.189 C 326.666 240.852,326.285 240.640,325.900 240.718 M73.380 265.900 C 73.230 266.395,72.948 266.800,72.753 266.800 C 72.559 266.800,72.421 266.935,72.447 267.100 C 72.602 268.082,72.347 268.815,71.938 268.562 C 71.676 268.400,71.584 268.451,71.725 268.679 C 71.862 268.901,71.716 269.424,71.400 269.841 C 71.084 270.258,70.820 271.005,70.813 271.500 C 70.806 271.995,70.620 272.400,70.400 272.400 C 70.180 272.400,70.000 272.852,70.000 273.405 C 70.000 273.958,69.842 274.723,69.649 275.105 C 69.065 276.261,68.400 278.604,68.400 279.505 C 68.400 279.971,68.256 280.442,68.080 280.551 C 67.904 280.660,67.715 281.525,67.660 282.474 C 67.605 283.423,67.389 284.260,67.180 284.333 C 66.971 284.407,66.800 285.812,66.800 287.457 C 66.800 289.102,66.647 290.353,66.461 290.238 C 66.274 290.122,66.094 293.341,66.061 297.391 C 66.024 301.928,66.154 304.848,66.401 305.000 C 66.620 305.136,66.800 306.328,66.800 307.650 C 66.800 308.971,66.983 310.395,67.207 310.813 C 67.431 311.231,67.634 312.479,67.659 313.587 C 67.684 314.694,67.861 315.600,68.052 315.600 C 68.244 315.600,68.400 316.320,68.400 317.200 C 68.400 318.080,68.580 318.800,68.800 318.800 C 69.020 318.800,69.200 319.505,69.200 320.367 C 69.200 321.228,69.378 321.993,69.597 322.067 C 69.815 322.140,70.034 322.695,70.084 323.300 C 70.134 323.905,70.315 324.400,70.487 324.400 C 70.659 324.400,70.800 324.940,70.800 325.600 C 70.800 326.260,70.980 326.800,71.200 326.800 C 71.420 326.800,71.600 327.162,71.600 327.605 C 71.600 328.048,71.759 328.723,71.953 329.105 C 72.148 329.487,72.531 330.340,72.806 331.000 C 73.081 331.660,73.642 332.855,74.053 333.654 C 74.464 334.454,74.800 335.399,74.800 335.754 C 74.800 336.110,74.950 336.400,75.133 336.400 C 75.317 336.400,75.467 336.625,75.468 336.900 C 75.470 337.487,76.747 340.177,78.364 343.000 C 78.994 344.100,79.429 345.135,79.331 345.300 C 79.233 345.465,79.343 345.600,79.576 345.600 C 79.809 345.600,80.000 345.881,80.000 346.224 C 80.000 346.567,80.180 346.736,80.400 346.600 C 80.620 346.464,80.800 346.723,80.800 347.176 C 80.800 347.629,80.958 348.000,81.151 348.000 C 81.345 348.000,81.727 348.540,82.000 349.200 C 82.273 349.860,82.655 350.400,82.849 350.400 C 83.042 350.400,83.200 350.670,83.200 351.000 C 83.200 351.330,83.384 351.600,83.609 351.600 C 83.833 351.600,84.235 352.095,84.500 352.700 C 84.766 353.305,85.086 353.890,85.211 354.000 C 85.336 354.110,85.870 354.830,86.397 355.600 C 86.924 356.370,87.860 357.431,88.478 357.958 C 89.095 358.485,89.600 359.151,89.600 359.437 C 89.600 359.724,90.680 361.087,92.000 362.465 C 93.320 363.844,94.400 365.203,94.400 365.486 C 94.400 365.769,94.562 365.955,94.760 365.900 C 94.958 365.845,95.173 365.980,95.238 366.200 C 95.398 366.747,98.030 369.200,98.456 369.200 C 98.645 369.200,98.800 369.470,98.800 369.800 C 98.800 370.130,98.936 370.355,99.103 370.300 C 99.269 370.245,100.138 370.920,101.032 371.800 C 103.643 374.368,106.499 376.800,106.904 376.800 C 107.110 376.800,107.783 377.340,108.400 378.000 C 109.017 378.660,109.719 379.200,109.960 379.200 C 110.202 379.200,110.400 379.350,110.400 379.532 C 110.400 379.715,110.844 380.102,111.386 380.393 C 111.929 380.683,112.298 381.041,112.208 381.188 C 112.117 381.335,112.666 381.680,113.428 381.955 C 114.189 382.231,114.726 382.596,114.620 382.768 C 114.514 382.939,114.916 383.325,115.514 383.625 C 116.111 383.926,117.095 384.505,117.700 384.913 C 118.305 385.321,118.805 385.507,118.812 385.327 C 118.819 385.147,119.008 385.315,119.232 385.700 C 119.456 386.085,119.888 386.400,120.191 386.400 C 120.495 386.400,120.999 386.657,121.313 386.970 C 121.627 387.284,122.495 387.831,123.242 388.186 C 123.989 388.541,125.230 389.166,126.000 389.575 C 126.770 389.984,127.520 390.246,127.666 390.157 C 127.812 390.068,127.992 390.131,128.066 390.298 C 128.288 390.798,131.619 392.400,132.438 392.400 C 132.857 392.400,133.200 392.580,133.200 392.800 C 133.200 393.020,133.490 393.200,133.846 393.200 C 134.201 393.200,135.146 393.540,135.946 393.955 C 136.745 394.371,138.210 394.942,139.200 395.225 C 140.190 395.508,141.171 395.888,141.380 396.070 C 141.589 396.251,142.174 396.400,142.680 396.400 C 143.186 396.400,143.600 396.580,143.600 396.800 C 143.600 397.020,144.309 397.200,145.176 397.200 C 146.043 397.200,146.852 397.360,146.973 397.556 C 147.094 397.751,147.779 398.005,148.496 398.119 C 149.213 398.233,150.430 398.450,151.200 398.600 C 151.970 398.750,152.780 398.902,153.000 398.937 C 153.220 398.972,153.517 399.161,153.659 399.358 C 154.330 400.283,184.748 400.086,184.176 399.161 C 184.053 398.962,184.763 398.800,185.753 398.800 C 186.743 398.800,187.664 398.620,187.800 398.400 C 187.936 398.180,188.577 398.000,189.224 398.000 C 189.871 398.000,190.400 397.820,190.400 397.600 C 190.400 397.380,190.929 397.200,191.576 397.200 C 192.223 397.200,192.864 397.020,193.000 396.800 C 193.136 396.580,193.777 396.400,194.424 396.400 C 195.071 396.400,195.601 396.265,195.603 396.100 C 195.607 395.741,197.544 394.800,198.280 394.800 C 198.566 394.800,198.800 394.620,198.800 394.400 C 198.800 394.180,199.160 394.000,199.600 394.000 C 200.040 394.000,200.400 393.820,200.400 393.600 C 200.400 393.380,200.670 393.200,201.000 393.200 C 201.330 393.200,201.600 393.020,201.600 392.800 C 201.600 392.580,201.865 392.400,202.188 392.400 C 203.166 392.400,208.399 389.189,210.837 387.092 C 211.407 386.601,212.455 385.750,213.165 385.200 C 213.874 384.650,214.758 383.855,215.128 383.433 C 215.497 383.011,216.505 381.975,217.366 381.132 C 218.227 380.289,218.812 379.479,218.666 379.333 C 218.520 379.186,218.400 379.277,218.400 379.533 C 218.400 380.103,216.944 380.157,216.600 379.600 C 216.464 379.380,216.001 379.200,215.571 379.200 C 215.141 379.200,214.387 378.992,213.895 378.738 C 211.974 377.744,211.584 377.600,210.829 377.600 C 210.399 377.600,209.936 377.420,209.800 377.200 C 209.664 376.980,209.201 376.800,208.771 376.800 C 208.341 376.800,207.677 376.641,207.295 376.447 C 206.573 376.079,204.782 375.316,203.400 374.786 C 202.960 374.618,201.747 374.102,200.704 373.640 C 199.662 373.178,198.699 372.800,198.566 372.800 C 198.005 372.800,189.185 368.406,186.659 366.868 C 185.152 365.951,183.839 365.200,183.741 365.200 C 183.399 365.200,177.399 361.057,177.267 360.730 C 177.193 360.549,176.905 360.400,176.626 360.400 C 176.347 360.400,175.597 359.903,174.959 359.296 C 174.322 358.688,173.170 357.749,172.400 357.209 C 169.810 355.392,165.778 351.526,161.800 347.044 C 160.480 345.557,159.175 344.097,158.900 343.799 C 158.625 343.501,158.400 343.130,158.400 342.975 C 158.400 342.821,158.065 342.403,157.657 342.047 C 156.758 341.265,149.751 330.680,148.093 327.600 C 147.441 326.390,146.506 324.680,146.014 323.800 C 145.522 322.920,144.733 321.480,144.260 320.600 C 143.787 319.720,143.308 318.910,143.195 318.800 C 143.082 318.690,142.544 317.700,142.000 316.600 C 141.456 315.500,140.918 314.510,140.805 314.400 C 140.606 314.206,140.424 313.896,138.716 310.845 C 138.270 310.050,137.567 308.922,137.153 308.338 C 136.739 307.754,136.400 307.079,136.400 306.838 C 136.400 306.597,136.232 306.400,136.027 306.400 C 135.822 306.400,135.545 306.056,135.411 305.635 C 135.278 305.214,134.680 304.231,134.084 303.449 C 133.488 302.667,132.370 301.166,131.600 300.114 C 130.830 299.061,129.972 297.959,129.694 297.665 C 129.416 297.371,128.697 296.471,128.097 295.665 C 124.998 291.504,114.755 283.171,108.800 279.968 C 107.810 279.436,106.910 278.905,106.800 278.789 C 106.579 278.556,98.270 274.489,97.000 273.993 C 96.560 273.821,95.390 273.325,94.400 272.892 C 92.360 271.998,85.676 269.731,81.200 268.415 C 79.550 267.929,77.887 267.368,77.505 267.166 C 77.123 266.965,76.403 266.797,75.905 266.794 C 74.828 266.787,74.204 266.418,73.887 265.600 C 73.710 265.145,73.588 265.218,73.380 265.900 " stroke="none" fill="#9c6c54" fill-rule="evenodd"></path><path id="path3" d="M316.400 230.002 C 315.850 230.188,313.960 230.790,312.200 231.338 C 308.186 232.589,302.240 234.673,300.400 235.473 C 299.630 235.808,298.640 236.230,298.200 236.411 C 281.010 243.488,266.550 254.487,257.323 267.506 C 256.272 268.988,255.273 270.380,255.102 270.600 C 253.893 272.158,250.289 278.184,246.610 284.800 C 241.056 294.790,240.911 295.046,240.122 296.326 C 237.515 300.549,235.510 303.497,233.044 306.730 C 231.480 308.782,230.026 310.709,229.814 311.012 C 229.561 311.373,229.602 312.363,229.935 313.882 C 230.716 317.449,231.944 323.630,232.204 325.300 C 232.332 326.125,232.569 326.800,232.731 326.800 C 234.068 326.800,248.400 308.697,248.400 307.007 C 248.400 306.862,248.940 305.959,249.600 305.000 C 250.260 304.041,250.800 303.166,250.800 303.057 C 250.800 302.947,251.408 301.809,252.152 300.529 C 254.919 295.760,258.400 289.555,258.400 289.390 C 258.400 288.775,266.150 276.516,267.943 274.295 C 280.898 258.245,295.199 249.538,321.700 241.567 C 325.364 240.464,327.078 239.600,325.600 239.600 C 325.380 239.600,325.200 239.330,325.200 239.000 C 325.200 238.670,325.041 238.400,324.847 238.400 C 324.652 238.400,324.399 238.040,324.284 237.599 C 324.169 237.159,324.238 236.900,324.437 237.023 C 324.637 237.146,324.800 237.057,324.800 236.824 C 324.800 236.591,324.518 236.400,324.173 236.400 C 323.723 236.400,323.609 236.145,323.769 235.500 C 323.892 235.005,323.889 234.825,323.763 235.100 C 323.449 235.784,322.935 235.728,322.647 234.979 C 322.496 234.584,322.572 234.459,322.856 234.635 C 323.136 234.808,323.210 234.703,323.052 234.356 C 322.914 234.050,322.689 233.485,322.554 233.100 C 322.418 232.715,322.137 232.400,321.930 232.400 C 321.722 232.400,321.664 232.580,321.800 232.800 C 321.936 233.020,321.860 233.200,321.631 233.200 C 321.402 233.200,321.091 232.707,320.940 232.104 C 320.634 230.885,319.829 229.904,319.448 230.286 C 319.311 230.422,319.200 230.323,319.200 230.067 C 319.200 229.534,317.872 229.503,316.400 230.002 M80.919 254.255 C 81.069 254.505,80.923 254.932,80.596 255.204 C 80.268 255.476,80.000 255.946,80.000 256.249 C 80.000 256.552,79.790 256.800,79.533 256.800 C 79.277 256.800,79.183 256.917,79.326 257.060 C 79.469 257.202,79.102 257.735,78.510 258.243 C 77.918 258.752,77.553 259.286,77.698 259.431 C 77.996 259.730,77.052 260.800,76.491 260.800 C 76.289 260.800,75.798 261.160,75.400 261.600 C 74.989 262.054,74.876 262.400,75.138 262.400 C 75.392 262.400,75.600 262.670,75.600 263.000 C 75.600 263.330,75.420 263.600,75.200 263.600 C 74.980 263.600,74.800 263.855,74.800 264.167 C 74.800 264.478,74.601 264.800,74.358 264.881 C 73.778 265.074,76.119 266.198,78.400 266.822 C 106.984 274.643,126.853 288.602,138.389 308.969 C 138.835 309.756,139.560 311.030,140.000 311.800 C 142.174 315.605,142.586 316.330,143.518 318.000 C 144.071 318.990,145.780 322.050,147.315 324.800 C 156.263 340.831,165.966 352.373,176.600 359.637 C 177.700 360.389,179.247 361.498,180.038 362.102 C 180.829 362.706,181.611 363.200,181.776 363.200 C 181.941 363.200,182.554 363.539,183.138 363.953 C 186.749 366.515,203.599 374.800,205.197 374.800 C 205.423 374.800,206.372 375.150,207.304 375.577 C 213.277 378.315,220.444 379.800,219.475 378.098 C 219.382 377.934,219.719 377.401,220.224 376.914 C 220.851 376.310,221.205 376.183,221.340 376.514 C 221.471 376.837,221.559 376.798,221.602 376.400 C 221.637 376.070,221.711 375.403,221.765 374.918 C 221.819 374.433,222.524 372.966,223.332 371.658 C 225.354 368.383,225.347 368.368,221.099 367.063 C 193.238 358.504,175.183 345.745,162.424 325.600 C 158.837 319.937,158.400 319.224,158.400 319.042 C 158.400 318.946,157.410 317.119,156.200 314.982 C 154.990 312.846,154.000 311.056,154.000 311.006 C 154.000 310.956,153.100 309.351,152.000 307.439 C 150.900 305.527,150.000 303.874,150.000 303.764 C 150.000 303.654,149.100 302.230,148.000 300.600 C 146.900 298.970,146.000 297.519,146.000 297.375 C 146.000 296.947,140.463 289.613,137.864 286.600 C 125.834 272.649,108.348 262.528,83.600 255.190 C 82.610 254.896,81.540 254.463,81.223 254.228 C 80.804 253.917,80.721 253.924,80.919 254.255 " stroke="none" fill="#644444" fill-rule="evenodd"></path><path id="path4" d="M317.000 229.005 C 316.340 229.309,313.100 230.401,309.800 231.431 C 306.500 232.461,303.629 233.460,303.420 233.652 C 303.211 233.843,302.804 234.000,302.516 234.000 C 302.227 234.000,301.138 234.378,300.096 234.840 C 299.053 235.302,297.840 235.827,297.400 236.008 C 295.629 236.734,286.186 241.375,286.000 241.611 C 285.890 241.750,285.215 242.119,284.500 242.430 C 283.785 242.741,283.200 243.131,283.200 243.298 C 283.200 243.464,283.013 243.600,282.785 243.600 C 281.288 243.600,271.038 251.416,266.134 256.298 C 263.015 259.402,261.971 260.554,258.914 264.266 C 258.521 264.743,257.885 265.510,257.500 265.971 C 257.115 266.432,256.800 266.972,256.800 267.171 C 256.800 267.370,256.651 267.593,256.470 267.667 C 256.024 267.846,252.000 273.863,252.000 274.349 C 252.000 274.560,251.858 274.793,251.685 274.867 C 251.281 275.038,247.531 281.554,244.242 287.800 C 243.779 288.680,243.265 289.460,243.100 289.533 C 242.935 289.607,242.800 290.012,242.800 290.433 C 242.800 290.855,242.641 291.200,242.447 291.200 C 242.252 291.200,241.990 291.515,241.864 291.900 C 241.738 292.285,241.083 293.500,240.409 294.600 C 239.734 295.700,239.077 296.825,238.948 297.100 C 238.617 297.808,237.600 297.722,237.600 296.985 C 237.600 294.676,228.495 278.494,223.204 271.400 C 217.177 263.320,207.202 252.821,200.558 247.565 C 198.775 246.154,196.795 244.588,196.158 244.084 L 195.000 243.168 194.080 244.284 C 193.573 244.898,192.718 245.898,192.180 246.507 C 191.641 247.116,191.200 247.791,191.200 248.007 C 191.200 248.223,191.020 248.400,190.800 248.400 C 190.580 248.400,190.400 248.649,190.400 248.953 C 190.400 249.258,190.040 249.601,189.600 249.716 C 189.160 249.831,188.800 250.212,188.800 250.563 C 188.800 250.913,188.620 251.200,188.400 251.200 C 188.180 251.200,188.000 251.582,188.000 252.049 C 188.000 252.777,187.910 252.823,187.368 252.373 C 186.798 251.900,186.788 251.970,187.268 253.091 C 187.567 253.788,189.203 255.459,191.000 256.902 C 197.551 262.164,201.788 266.277,207.801 273.215 C 214.397 280.825,221.366 292.121,225.189 301.400 C 225.370 301.840,225.812 302.869,226.171 303.686 C 227.212 306.054,228.477 310.045,228.806 312.000 C 228.973 312.990,229.376 314.790,229.701 316.000 C 230.026 317.210,230.487 319.280,230.724 320.600 C 230.961 321.920,231.478 324.710,231.872 326.800 C 233.221 333.948,232.556 347.033,230.470 354.400 C 229.481 357.893,228.730 360.279,228.328 361.200 C 228.089 361.750,227.760 362.560,227.597 363.000 C 226.882 364.935,225.444 367.600,225.115 367.600 C 224.739 367.600,213.870 363.992,211.034 362.927 C 209.130 362.211,207.078 361.342,205.439 360.556 C 204.800 360.250,204.035 360.000,203.739 360.000 C 203.442 360.000,203.200 359.820,203.200 359.600 C 203.200 359.380,202.959 359.200,202.664 359.200 C 202.369 359.200,200.344 358.277,198.164 357.148 C 195.984 356.019,193.796 354.894,193.303 354.648 C 192.810 354.402,192.405 354.065,192.403 353.900 C 192.401 353.735,192.201 353.600,191.958 353.600 C 191.405 353.600,183.284 348.054,180.602 345.845 C 176.841 342.747,171.298 336.918,168.387 333.000 C 167.407 331.680,166.499 330.510,166.370 330.400 C 165.824 329.934,162.000 324.000,162.000 323.618 C 162.000 323.388,161.841 323.200,161.647 323.200 C 161.452 323.200,161.193 322.885,161.071 322.500 C 160.854 321.815,159.596 319.596,159.200 319.200 C 159.090 319.090,158.346 317.740,157.546 316.200 C 156.747 314.660,154.992 311.433,153.646 309.030 C 152.301 306.626,151.200 304.589,151.200 304.502 C 151.200 304.415,150.660 303.559,150.000 302.600 C 149.340 301.641,148.800 300.746,148.800 300.613 C 148.800 300.336,144.001 293.106,143.614 292.800 C 143.475 292.690,142.923 291.970,142.386 291.200 C 139.115 286.503,133.118 280.145,128.800 276.796 C 127.810 276.028,126.910 275.301,126.800 275.181 C 126.690 275.060,125.970 274.525,125.200 273.992 C 124.430 273.458,123.451 272.702,123.025 272.311 C 122.598 271.920,122.028 271.600,121.758 271.600 C 121.488 271.600,121.207 271.437,121.133 271.238 C 120.725 270.129,107.201 262.996,100.400 260.303 C 99.850 260.085,99.087 259.748,98.705 259.553 C 98.323 259.359,97.648 259.200,97.205 259.200 C 96.762 259.200,96.400 259.020,96.400 258.800 C 96.400 258.580,96.038 258.400,95.595 258.400 C 95.152 258.400,94.432 258.220,93.995 258.000 C 93.558 257.780,92.842 257.420,92.405 257.200 C 91.968 256.980,91.259 256.800,90.829 256.800 C 90.399 256.800,89.936 256.620,89.800 256.400 C 89.664 256.180,89.124 256.000,88.600 256.000 C 88.076 256.000,87.536 255.820,87.400 255.600 C 87.264 255.380,86.634 255.200,86.000 255.200 C 85.366 255.200,84.736 255.020,84.600 254.800 C 84.464 254.580,83.813 254.400,83.153 254.400 C 82.493 254.400,82.056 254.232,82.183 254.028 C 82.309 253.823,82.239 253.548,82.027 253.416 C 81.814 253.285,81.461 253.513,81.242 253.922 C 80.940 254.486,80.981 254.667,81.414 254.667 C 82.319 254.667,91.066 257.478,96.600 259.547 C 114.158 266.113,128.052 275.222,137.864 286.600 C 140.463 289.613,146.000 296.947,146.000 297.375 C 146.000 297.519,146.900 298.970,148.000 300.600 C 149.100 302.230,150.000 303.654,150.000 303.764 C 150.000 303.874,150.900 305.527,152.000 307.439 C 153.100 309.351,154.000 310.956,154.000 311.006 C 154.000 311.056,154.990 312.846,156.200 314.982 C 157.410 317.119,158.400 318.929,158.400 319.004 C 158.400 319.161,161.680 324.522,163.415 327.200 C 175.565 345.958,194.106 358.770,221.099 367.063 C 225.369 368.375,225.350 368.331,223.200 371.897 C 222.320 373.356,221.600 374.696,221.600 374.875 C 221.600 375.054,224.975 375.195,229.100 375.190 L 236.600 375.180 237.941 372.290 C 238.679 370.700,239.420 369.040,239.588 368.600 C 239.965 367.612,240.561 366.119,241.106 364.800 C 245.845 353.324,247.145 333.563,244.156 318.449 L 243.572 315.499 245.267 312.896 C 246.200 311.465,247.151 310.086,247.381 309.832 C 247.612 309.577,248.059 308.926,248.376 308.385 C 248.692 307.843,249.611 306.320,250.416 305.000 C 251.221 303.680,252.518 301.430,253.298 300.000 C 254.078 298.570,255.410 296.137,256.258 294.594 C 257.106 293.051,258.070 291.251,258.399 290.594 C 258.729 289.937,259.089 289.310,259.199 289.200 C 259.310 289.090,259.642 288.570,259.938 288.045 C 260.233 287.520,260.801 286.510,261.200 285.800 C 262.725 283.085,263.021 282.617,263.700 281.845 C 264.085 281.407,264.400 280.896,264.400 280.708 C 264.400 280.394,265.917 278.058,266.419 277.600 C 266.540 277.490,267.067 276.770,267.590 276.000 C 270.644 271.508,278.650 263.304,282.800 260.414 C 283.570 259.877,284.290 259.328,284.400 259.193 C 284.754 258.758,288.334 256.400,288.641 256.400 C 288.804 256.400,289.221 256.153,289.569 255.851 C 291.075 254.542,299.093 250.467,304.400 248.313 C 304.950 248.089,305.713 247.748,306.095 247.553 C 306.477 247.359,307.062 247.200,307.395 247.200 C 307.728 247.200,308.000 247.020,308.000 246.800 C 308.000 246.580,308.439 246.400,308.976 246.400 C 309.513 246.400,310.064 246.220,310.200 246.000 C 310.336 245.780,310.799 245.600,311.229 245.600 C 311.659 245.600,312.368 245.420,312.805 245.200 C 313.242 244.980,313.958 244.620,314.395 244.400 C 314.832 244.180,315.541 244.000,315.971 244.000 C 316.401 244.000,316.864 243.820,317.000 243.600 C 317.136 243.380,317.766 243.200,318.400 243.200 C 319.034 243.200,319.664 243.020,319.800 242.800 C 319.936 242.580,320.566 242.400,321.200 242.400 C 321.834 242.400,322.464 242.220,322.600 242.000 C 322.736 241.780,323.377 241.600,324.024 241.600 C 324.671 241.600,325.200 241.420,325.200 241.200 C 325.200 240.980,325.515 240.786,325.900 240.768 C 326.285 240.751,326.398 240.654,326.150 240.552 C 325.903 240.450,323.563 241.012,320.950 241.800 C 295.115 249.596,280.792 258.376,267.943 274.295 C 266.150 276.516,258.400 288.775,258.400 289.390 C 258.400 289.555,254.919 295.760,252.152 300.529 C 251.408 301.809,250.800 302.947,250.800 303.057 C 250.800 303.166,250.260 304.041,249.600 305.000 C 248.940 305.959,248.400 306.862,248.400 307.007 C 248.400 308.697,234.068 326.800,232.731 326.800 C 232.569 326.800,232.332 326.125,232.204 325.300 C 231.944 323.630,230.716 317.449,229.935 313.882 C 229.602 312.363,229.561 311.373,229.814 311.012 C 230.026 310.709,231.480 308.782,233.044 306.730 C 235.510 303.497,237.515 300.549,240.122 296.326 C 240.911 295.046,241.056 294.790,246.610 284.800 C 250.289 278.184,253.893 272.158,255.102 270.600 C 255.273 270.380,256.272 268.988,257.323 267.506 C 266.550 254.487,281.010 243.488,298.200 236.411 C 298.640 236.230,299.630 235.808,300.400 235.473 C 306.779 232.698,318.837 229.112,319.103 229.909 C 319.194 230.182,319.426 230.308,319.618 230.189 C 319.953 229.982,318.850 228.372,318.411 228.426 C 318.295 228.440,317.660 228.700,317.000 229.005 M320.819 231.800 C 320.809 232.394,321.523 233.410,321.774 233.159 C 321.894 233.040,321.729 232.595,321.409 232.171 C 321.088 231.747,320.822 231.580,320.819 231.800 M322.400 234.539 C 322.400 234.615,322.760 235.093,323.200 235.600 C 323.640 236.107,324.000 236.328,324.000 236.090 C 324.000 235.852,323.717 235.374,323.371 235.029 C 322.770 234.427,322.400 234.241,322.400 234.539 M324.292 237.630 C 324.524 238.516,325.200 238.674,325.200 237.843 C 325.200 237.536,324.950 237.190,324.645 237.073 C 324.256 236.923,324.151 237.090,324.292 237.630 M78.838 256.959 C 78.344 257.485,78.088 258.006,78.270 258.116 C 78.451 258.226,78.832 258.065,79.116 257.758 C 79.399 257.451,79.489 257.197,79.316 257.194 C 79.142 257.191,79.265 257.020,79.588 256.816 C 79.912 256.611,80.078 256.344,79.957 256.223 C 79.836 256.102,79.332 256.433,78.838 256.959 M76.788 259.814 C 76.098 260.646,76.614 261.043,77.384 260.273 C 77.726 259.931,77.845 259.552,77.648 259.430 C 77.452 259.308,77.065 259.481,76.788 259.814 M75.597 261.921 C 74.227 263.618,73.735 264.800,74.400 264.800 C 74.620 264.800,74.800 264.530,74.800 264.200 C 74.800 263.870,74.980 263.600,75.200 263.600 C 75.420 263.600,75.600 263.345,75.600 263.033 C 75.600 262.722,75.807 262.398,76.060 262.313 C 76.313 262.229,76.447 261.940,76.357 261.671 C 76.246 261.338,76.003 261.417,75.597 261.921 M74.000 265.724 C 74.000 266.366,74.821 266.800,76.038 266.800 C 76.463 266.800,77.123 266.965,77.505 267.166 C 77.887 267.368,79.550 267.929,81.200 268.415 C 85.676 269.731,92.360 271.998,94.400 272.892 C 95.390 273.325,96.560 273.821,97.000 273.993 C 98.270 274.489,106.579 278.556,106.800 278.789 C 106.910 278.905,107.810 279.436,108.800 279.968 C 114.755 283.171,124.998 291.504,128.097 295.665 C 128.697 296.471,129.416 297.371,129.694 297.665 C 129.972 297.959,130.830 299.061,131.600 300.114 C 132.370 301.166,133.488 302.667,134.084 303.449 C 134.680 304.231,135.278 305.214,135.411 305.635 C 135.545 306.056,135.822 306.400,136.027 306.400 C 136.232 306.400,136.400 306.597,136.400 306.838 C 136.400 307.079,136.739 307.754,137.153 308.338 C 137.567 308.922,138.270 310.050,138.716 310.845 C 140.424 313.896,140.606 314.206,140.805 314.400 C 140.918 314.510,141.456 315.500,142.000 316.600 C 142.544 317.700,143.082 318.690,143.195 318.800 C 143.308 318.910,143.787 319.720,144.260 320.600 C 144.733 321.480,145.522 322.920,146.014 323.800 C 146.506 324.680,147.441 326.390,148.093 327.600 C 149.751 330.680,156.758 341.265,157.657 342.047 C 158.065 342.403,158.400 342.821,158.400 342.975 C 158.400 343.130,158.625 343.501,158.900 343.799 C 159.175 344.097,160.480 345.557,161.800 347.044 C 165.778 351.526,169.810 355.392,172.400 357.209 C 173.170 357.749,174.322 358.688,174.959 359.296 C 175.597 359.903,176.347 360.400,176.626 360.400 C 176.905 360.400,177.193 360.549,177.267 360.730 C 177.399 361.057,183.399 365.200,183.741 365.200 C 183.839 365.200,185.152 365.951,186.659 366.868 C 189.185 368.406,198.005 372.800,198.566 372.800 C 198.699 372.800,199.662 373.178,200.704 373.640 C 202.721 374.533,203.984 375.065,205.600 375.700 C 206.150 375.916,206.913 376.252,207.295 376.447 C 207.677 376.641,208.341 376.800,208.771 376.800 C 209.201 376.800,209.664 376.980,209.800 377.200 C 209.936 377.420,210.399 377.600,210.829 377.600 C 211.584 377.600,211.974 377.744,213.895 378.738 C 214.387 378.992,215.141 379.200,215.571 379.200 C 216.001 379.200,216.464 379.380,216.600 379.600 C 216.972 380.202,217.976 380.082,218.710 379.347 C 219.314 378.744,219.300 378.714,218.526 378.960 C 217.678 379.229,210.647 377.110,207.304 375.577 C 206.372 375.150,205.423 374.800,205.197 374.800 C 203.599 374.800,186.749 366.515,183.138 363.953 C 182.554 363.539,181.941 363.200,181.776 363.200 C 181.611 363.200,180.829 362.706,180.038 362.102 C 179.247 361.498,177.700 360.389,176.600 359.637 C 165.966 352.373,156.263 340.831,147.315 324.800 C 142.051 315.371,142.741 316.597,140.000 311.800 C 139.560 311.030,138.835 309.756,138.389 308.969 C 126.841 288.582,107.250 274.816,78.400 266.816 C 76.862 266.389,75.632 265.928,74.300 265.280 C 74.135 265.199,74.000 265.399,74.000 265.724 M220.126 376.984 C 219.645 377.498,219.357 378.024,219.485 378.152 C 219.745 378.412,221.200 376.873,221.200 376.339 C 221.200 375.872,221.122 375.919,220.126 376.984 " stroke="none" fill="#8a624c" fill-rule="evenodd"></path></g></svg>