<svg id="svg" version="1.1" xmlns="http://www.w3.org/2000/svg" xmlns:xlink="http://www.w3.org/1999/xlink" width="400" height="400" viewBox="0, 0, 400,400"><g id="svgg"><path id="path0" d="M32.577 129.864 C 31.930 130.425,31.445 131.046,31.500 131.242 C 31.555 131.439,31.390 131.555,31.133 131.500 C 30.876 131.445,30.448 131.816,30.183 132.325 C 29.918 132.834,29.048 133.849,28.250 134.579 C 27.453 135.310,26.800 136.109,26.800 136.354 C 26.800 136.599,26.605 136.800,26.367 136.800 C 26.128 136.800,26.009 137.025,26.101 137.300 C 26.193 137.575,25.799 138.250,25.226 138.800 C 24.654 139.350,23.429 140.790,22.505 142.000 C 21.582 143.210,20.460 144.599,20.013 145.086 C 19.566 145.573,19.200 146.182,19.200 146.439 C 19.200 146.696,18.871 147.197,18.470 147.553 C 18.068 147.909,17.490 148.772,17.185 149.471 C 16.880 150.170,16.488 150.655,16.315 150.548 C 16.142 150.440,16.000 150.723,16.000 151.176 C 16.000 151.629,15.842 152.000,15.649 152.000 C 15.455 152.000,15.073 152.540,14.800 153.200 C 14.527 153.860,14.145 154.400,13.951 154.400 C 13.758 154.400,13.600 154.760,13.600 155.200 C 13.600 155.640,13.420 156.000,13.200 156.000 C 12.980 156.000,12.840 156.135,12.889 156.300 C 13.023 156.749,11.851 159.200,11.502 159.200 C 11.336 159.200,11.200 159.487,11.200 159.837 C 11.200 160.187,10.840 160.931,10.400 161.491 C 9.960 162.050,9.600 162.844,9.600 163.254 C 9.600 163.664,9.436 164.000,9.235 164.000 C 9.034 164.000,8.749 164.721,8.600 165.602 C 8.451 166.483,8.165 167.102,7.965 166.978 C 7.764 166.854,7.600 167.113,7.600 167.553 C 7.600 167.993,7.420 168.464,7.200 168.600 C 6.980 168.736,6.800 169.287,6.800 169.824 C 6.800 170.361,6.620 170.800,6.400 170.800 C 6.180 170.800,6.000 171.340,6.000 172.000 C 6.000 172.660,5.820 173.200,5.600 173.200 C 5.380 173.200,5.200 173.545,5.200 173.967 C 5.200 174.388,4.975 174.838,4.700 174.967 C 4.300 175.153,4.300 175.247,4.700 175.433 C 4.975 175.562,5.204 175.877,5.209 176.133 C 5.214 176.390,5.570 177.050,6.000 177.600 C 6.430 178.150,6.790 178.870,6.800 179.200 C 6.810 179.530,7.170 180.250,7.600 180.800 C 8.030 181.350,8.386 182.100,8.391 182.467 C 8.396 182.833,8.535 183.193,8.700 183.267 C 8.865 183.340,9.448 184.300,9.995 185.400 C 10.542 186.500,11.082 187.490,11.195 187.600 C 11.308 187.710,11.837 188.610,12.370 189.600 C 12.904 190.590,13.445 191.490,13.574 191.600 C 13.702 191.710,14.511 192.957,15.372 194.371 C 17.203 197.379,20.833 202.566,22.115 204.004 C 22.607 204.557,23.449 205.637,23.986 206.404 C 24.523 207.172,25.241 208.070,25.581 208.400 C 25.922 208.730,27.100 210.074,28.200 211.387 C 31.523 215.354,40.363 224.075,43.908 226.884 C 44.383 227.260,46.088 228.614,47.699 229.894 C 58.482 238.463,71.115 239.794,83.951 233.713 C 87.253 232.149,91.283 229.852,92.077 229.081 C 92.365 228.802,93.230 228.132,94.000 227.593 C 99.769 223.549,111.350 212.365,114.651 207.649 C 115.423 206.546,115.124 206.257,112.200 205.278 C 106.438 203.348,90.525 196.270,89.600 195.226 C 89.258 194.840,87.035 193.562,86.300 193.329 C 85.915 193.207,85.600 192.948,85.600 192.753 C 85.600 192.559,85.415 192.400,85.189 192.400 C 84.608 192.400,74.706 185.707,71.629 183.234 C 62.046 175.533,53.574 166.708,47.980 158.600 C 47.221 157.500,46.465 156.540,46.300 156.467 C 46.135 156.393,46.000 156.151,46.000 155.928 C 46.000 155.706,45.661 155.046,45.247 154.462 C 41.566 149.273,36.260 137.435,35.000 131.600 C 34.448 129.044,33.941 128.680,32.577 129.864 M249.904 275.029 C 249.692 275.242,247.134 275.735,243.497 276.265 C 242.671 276.386,241.895 276.645,241.774 276.842 C 241.652 277.039,241.171 277.200,240.705 277.200 C 240.238 277.200,239.304 277.367,238.628 277.571 C 237.953 277.775,236.050 278.334,234.400 278.812 C 232.750 279.291,231.087 279.844,230.705 280.041 C 230.323 280.238,229.659 280.400,229.229 280.400 C 228.799 280.400,228.336 280.580,228.200 280.800 C 228.064 281.020,227.549 281.200,227.056 281.200 C 226.563 281.200,225.989 281.349,225.780 281.530 C 225.571 281.712,224.590 282.105,223.600 282.403 C 221.546 283.022,210.455 287.183,208.139 288.204 C 206.608 288.878,205.618 289.285,203.900 289.946 C 202.087 290.644,200.957 291.118,199.000 292.000 C 197.900 292.496,196.640 293.036,196.200 293.200 C 195.391 293.502,193.009 294.553,189.900 295.980 C 185.148 298.162,182.632 299.200,182.099 299.200 C 181.479 299.200,181.481 299.223,182.408 303.400 C 182.652 304.500,182.949 306.075,183.068 306.900 C 183.187 307.725,183.445 308.400,183.642 308.400 C 183.839 308.400,184.000 309.120,184.000 310.000 C 184.000 310.880,184.180 311.600,184.400 311.600 C 184.620 311.600,184.800 312.104,184.800 312.720 C 184.800 313.336,184.949 314.011,185.130 314.220 C 185.312 314.429,185.693 315.410,185.976 316.400 C 186.514 318.281,187.050 319.721,187.647 320.895 C 187.841 321.277,188.000 321.862,188.000 322.195 C 188.000 322.528,188.180 322.800,188.400 322.800 C 188.620 322.800,188.800 323.160,188.800 323.600 C 188.800 324.040,188.980 324.400,189.200 324.400 C 189.420 324.400,189.600 324.940,189.600 325.600 C 189.600 326.260,189.780 326.800,190.000 326.800 C 190.220 326.800,190.400 327.160,190.400 327.600 C 190.400 328.040,190.580 328.400,190.800 328.400 C 191.020 328.400,191.200 328.745,191.200 329.167 C 191.200 329.588,191.339 329.993,191.508 330.067 C 191.678 330.140,192.328 331.415,192.953 332.900 C 193.579 334.385,194.206 335.600,194.347 335.600 C 194.489 335.600,194.851 336.185,195.153 336.900 C 195.455 337.615,196.219 338.864,196.851 339.677 C 197.483 340.489,198.000 341.299,198.000 341.477 C 198.001 341.654,198.451 342.323,199.000 342.962 C 199.550 343.601,200.000 344.268,200.000 344.444 C 200.000 344.620,200.450 345.214,201.000 345.764 C 201.550 346.314,202.000 346.923,202.000 347.118 C 202.000 347.313,202.801 348.320,203.779 349.357 C 204.758 350.393,205.671 351.594,205.808 352.026 C 205.945 352.458,206.225 352.708,206.429 352.582 C 206.633 352.456,206.800 352.568,206.800 352.831 C 206.800 353.351,219.121 365.600,219.644 365.600 C 219.820 365.600,220.436 366.073,221.014 366.650 C 221.887 367.523,222.211 367.630,222.932 367.280 C 223.409 367.049,224.880 366.755,226.200 366.627 C 228.668 366.388,231.209 365.988,235.400 365.182 C 236.720 364.928,238.610 364.566,239.600 364.378 C 241.286 364.058,242.561 363.786,247.000 362.800 C 247.990 362.580,249.565 362.234,250.500 362.030 C 251.435 361.827,252.920 361.448,253.800 361.189 C 254.680 360.930,256.076 360.628,256.903 360.517 C 257.729 360.406,258.505 360.155,258.626 359.958 C 258.748 359.761,259.366 359.600,260.000 359.600 C 260.634 359.600,261.264 359.420,261.400 359.200 C 261.536 358.980,262.078 358.800,262.605 358.800 C 263.131 358.800,263.976 358.639,264.481 358.442 C 264.987 358.245,266.210 357.860,267.200 357.588 C 271.093 356.515,271.825 356.289,272.495 355.951 C 272.877 355.758,273.541 355.600,273.971 355.600 C 274.401 355.600,274.864 355.420,275.000 355.200 C 275.136 354.980,275.676 354.800,276.200 354.800 C 276.724 354.800,277.251 354.641,277.371 354.446 C 277.492 354.251,278.087 354.000,278.695 353.887 C 280.898 353.478,285.796 351.549,294.700 347.584 C 295.415 347.265,296.000 346.869,296.000 346.702 C 296.000 346.536,296.190 346.400,296.422 346.400 C 298.996 346.400,305.042 339.784,306.839 335.000 C 308.051 331.773,308.041 323.962,306.821 321.000 C 306.640 320.560,306.258 319.390,305.972 318.400 C 304.841 314.477,298.711 303.206,296.834 301.600 C 296.705 301.490,295.978 300.590,295.217 299.600 C 293.929 297.923,291.759 295.518,288.399 292.047 C 286.518 290.103,281.862 286.084,279.400 284.278 C 278.300 283.472,277.220 282.665,277.000 282.486 C 276.780 282.307,275.790 281.719,274.800 281.180 C 273.810 280.641,272.910 280.090,272.800 279.955 C 272.608 279.720,268.084 277.564,266.000 276.714 C 265.450 276.490,264.687 276.148,264.305 275.953 C 263.923 275.759,263.079 275.600,262.429 275.600 C 261.779 275.600,261.136 275.420,261.000 275.200 C 260.740 274.780,250.314 274.620,249.904 275.029 M84.700 305.882 C 85.195 305.978,86.005 305.978,86.500 305.882 C 86.995 305.787,86.590 305.709,85.600 305.709 C 84.610 305.709,84.205 305.787,84.700 305.882 " stroke="none" fill="#c38324" fill-rule="evenodd"></path><path id="path1" d="M34.320 129.680 C 34.584 129.944,34.800 130.514,34.800 130.947 C 34.800 131.379,34.912 131.622,35.048 131.485 C 35.442 131.091,34.834 129.200,34.312 129.200 C 33.953 129.200,33.955 129.315,34.320 129.680 M35.227 132.248 C 35.140 133.694,40.306 146.800,40.964 146.800 C 41.069 146.800,40.377 145.045,39.426 142.900 C 38.476 140.755,37.294 137.740,36.800 136.200 C 35.692 132.745,35.262 131.666,35.227 132.248 M42.015 149.000 C 42.017 149.220,42.386 149.850,42.836 150.400 C 43.379 151.064,43.515 151.131,43.240 150.600 C 42.566 149.295,42.012 148.572,42.015 149.000 M43.600 151.729 C 43.600 152.094,45.645 155.200,45.886 155.200 C 46.079 155.200,44.492 152.448,43.936 151.820 C 43.751 151.611,43.600 151.570,43.600 151.729 M49.140 160.316 C 49.633 161.009,50.244 161.704,50.497 161.860 C 50.750 162.017,50.554 161.577,50.060 160.884 C 49.567 160.191,48.956 159.496,48.703 159.340 C 48.450 159.183,48.646 159.623,49.140 160.316 M52.397 164.500 C 54.696 167.399,62.061 175.273,62.274 175.059 C 62.370 174.964,60.892 173.291,58.989 171.343 C 57.087 169.394,54.536 166.585,53.320 165.100 C 52.105 163.615,51.025 162.400,50.921 162.400 C 50.817 162.400,51.481 163.345,52.397 164.500 M62.834 175.500 C 62.852 175.665,63.617 176.422,64.534 177.182 L 66.200 178.563 64.619 176.882 C 62.993 175.152,62.776 174.984,62.834 175.500 M4.400 176.800 C 4.400 177.460,4.220 178.000,4.000 178.000 C 3.780 178.000,3.600 178.349,3.600 178.776 C 3.600 179.203,3.420 179.664,3.200 179.800 C 2.980 179.936,2.800 180.566,2.800 181.200 C 2.800 181.834,2.609 182.471,2.376 182.615 C 2.143 182.759,2.006 183.284,2.072 183.783 C 2.137 184.281,1.972 184.951,1.706 185.272 C 1.440 185.593,1.275 186.518,1.338 187.328 C 1.408 188.218,1.277 188.800,1.006 188.800 C 0.053 188.800,-0.251 236.783,0.700 237.100 C 0.975 237.192,1.200 237.882,1.200 238.633 C 1.200 239.385,1.380 240.000,1.600 240.000 C 1.820 240.000,2.000 240.619,2.000 241.376 C 2.000 242.133,2.180 242.864,2.400 243.000 C 2.620 243.136,2.800 243.676,2.800 244.200 C 2.800 244.724,2.980 245.264,3.200 245.400 C 3.420 245.536,3.600 246.076,3.600 246.600 C 3.600 247.124,3.780 247.664,4.000 247.800 C 4.220 247.936,4.400 248.407,4.400 248.847 C 4.400 249.287,4.580 249.536,4.800 249.400 C 5.033 249.256,5.200 249.655,5.200 250.353 C 5.200 251.013,5.380 251.664,5.600 251.800 C 5.820 251.936,6.000 252.397,6.000 252.824 C 6.000 253.251,6.180 253.600,6.400 253.600 C 6.620 253.600,6.800 253.960,6.800 254.400 C 6.800 254.840,6.980 255.200,7.200 255.200 C 7.420 255.200,7.600 255.465,7.600 255.788 C 7.600 256.111,7.957 257.011,8.393 257.788 C 8.829 258.565,9.054 259.203,8.893 259.206 C 8.732 259.209,8.780 259.344,9.000 259.506 C 9.657 259.989,10.799 262.268,10.523 262.544 C 10.382 262.685,10.455 262.800,10.685 262.800 C 10.915 262.800,11.321 263.327,11.588 263.971 C 11.855 264.615,12.338 265.244,12.662 265.368 C 12.986 265.493,13.156 265.748,13.039 265.937 C 12.923 266.125,13.181 266.659,13.614 267.123 C 14.046 267.587,14.400 268.204,14.400 268.495 C 14.400 268.786,14.760 269.283,15.200 269.600 C 15.640 269.917,16.000 270.457,16.000 270.800 C 16.000 271.143,16.360 271.683,16.800 272.000 C 17.240 272.317,17.600 272.735,17.600 272.928 C 17.600 273.121,18.095 273.756,18.700 274.340 C 19.305 274.923,20.055 275.895,20.368 276.500 C 20.680 277.105,21.085 277.600,21.268 277.600 C 21.450 277.600,21.600 277.836,21.600 278.125 C 21.600 278.413,21.960 279.036,22.400 279.508 C 22.840 279.980,23.200 280.644,23.200 280.983 C 23.200 281.322,23.380 281.600,23.600 281.600 C 23.820 281.600,24.000 281.960,24.000 282.400 C 24.000 282.840,24.180 283.200,24.400 283.200 C 24.620 283.200,24.800 283.530,24.800 283.933 C 24.800 284.337,24.925 284.792,25.078 284.945 C 25.231 285.098,25.400 285.443,25.452 285.712 C 25.505 285.980,25.914 287.441,26.362 288.957 C 26.810 290.474,27.081 291.869,26.965 292.057 C 26.848 292.246,26.943 292.400,27.176 292.400 C 27.412 292.400,27.600 293.205,27.600 294.216 C 27.600 296.383,28.791 298.914,30.266 299.880 C 31.455 300.659,38.078 300.765,38.331 300.008 C 38.417 299.750,41.184 299.600,45.857 299.600 C 50.682 299.600,53.161 299.739,53.000 300.000 C 52.851 300.242,53.396 300.400,54.376 300.400 C 55.269 300.400,56.000 300.580,56.000 300.800 C 56.000 301.020,56.720 301.200,57.600 301.200 C 58.480 301.200,59.200 301.380,59.200 301.600 C 59.200 301.820,59.729 302.000,60.376 302.000 C 61.023 302.000,61.652 302.160,61.773 302.356 C 61.985 302.699,63.211 302.978,66.600 303.456 C 67.480 303.580,68.371 303.844,68.580 304.041 C 68.789 304.238,69.878 304.400,71.000 304.400 C 72.122 304.400,73.211 304.569,73.420 304.775 C 73.629 304.982,75.870 305.233,78.400 305.333 C 80.930 305.433,84.080 305.558,85.400 305.610 C 86.720 305.662,88.070 305.596,88.400 305.464 C 88.730 305.332,91.070 305.138,93.600 305.034 C 99.538 304.790,102.904 304.422,103.380 303.965 C 103.589 303.764,104.523 303.600,105.456 303.600 C 106.389 303.600,107.252 303.439,107.374 303.242 C 107.495 303.045,108.271 302.782,109.097 302.658 C 112.678 302.117,113.600 301.891,113.600 301.556 C 113.600 301.360,114.140 301.200,114.800 301.200 C 115.460 301.200,116.000 301.020,116.000 300.800 C 116.000 300.580,116.529 300.400,117.176 300.400 C 117.823 300.400,118.464 300.220,118.600 300.000 C 118.736 299.780,119.287 299.600,119.824 299.600 C 120.361 299.600,120.800 299.420,120.800 299.200 C 120.800 298.980,121.250 298.800,121.800 298.800 C 122.350 298.800,122.800 298.620,122.800 298.400 C 122.800 298.180,123.250 298.000,123.800 298.000 C 124.350 298.000,124.800 297.820,124.800 297.600 C 124.800 297.380,125.250 297.200,125.800 297.200 C 126.350 297.200,126.800 297.020,126.800 296.800 C 126.800 296.580,127.160 296.400,127.600 296.400 C 128.040 296.400,128.400 296.220,128.400 296.000 C 128.400 295.780,128.760 295.600,129.200 295.600 C 129.640 295.600,130.000 295.420,130.000 295.200 C 130.000 294.980,130.360 294.800,130.800 294.800 C 131.240 294.800,131.600 294.620,131.600 294.400 C 131.600 294.180,131.960 294.000,132.400 294.000 C 132.840 294.000,133.200 293.820,133.200 293.600 C 133.200 293.380,133.560 293.200,134.000 293.200 C 134.440 293.200,134.800 293.020,134.800 292.800 C 134.800 292.580,135.145 292.400,135.567 292.400 C 135.988 292.400,136.393 292.265,136.467 292.100 C 136.540 291.935,137.320 291.449,138.200 291.020 C 139.080 290.591,140.115 289.978,140.500 289.658 C 140.885 289.338,141.200 289.202,141.200 289.356 C 141.200 289.510,141.662 289.175,142.226 288.611 C 142.790 288.046,143.420 287.689,143.626 287.816 C 143.832 287.943,144.000 287.899,144.000 287.718 C 144.000 287.537,144.720 286.944,145.600 286.400 C 146.480 285.856,147.200 285.286,147.200 285.133 C 147.200 284.979,147.515 284.754,147.900 284.631 C 148.285 284.509,149.050 283.997,149.600 283.493 C 150.150 282.989,151.230 282.139,152.000 281.604 C 152.770 281.069,153.877 280.129,154.460 279.515 C 155.044 278.902,155.719 278.400,155.960 278.400 C 156.202 278.400,156.400 278.250,156.400 278.068 C 156.400 277.885,156.850 277.494,157.399 277.200 C 157.949 276.906,158.314 276.581,158.211 276.477 C 158.107 276.374,158.778 275.639,159.702 274.845 C 162.162 272.728,169.200 265.500,169.200 265.089 C 169.200 264.896,169.920 264.046,170.800 263.200 C 171.680 262.354,172.400 261.459,172.400 261.210 C 172.400 260.960,172.947 260.181,173.615 259.478 C 174.284 258.775,175.114 257.615,175.461 256.900 C 175.808 256.185,176.242 255.600,176.427 255.600 C 176.612 255.600,176.885 254.956,177.032 254.169 C 177.180 253.382,178.569 250.637,180.119 248.069 C 186.074 238.204,191.584 225.426,193.646 216.700 C 193.841 215.875,194.180 214.480,194.400 213.600 C 195.850 207.798,196.035 207.993,190.600 209.600 C 169.082 215.964,140.457 214.534,114.600 205.805 C 113.829 205.545,113.827 205.557,114.541 206.141 C 115.231 206.707,115.238 206.811,114.634 207.674 C 112.594 210.588,103.117 220.295,99.000 223.686 C 95.876 226.260,95.653 226.434,94.000 227.593 C 93.230 228.132,92.365 228.802,92.077 229.081 C 91.283 229.852,87.253 232.149,83.951 233.713 C 71.115 239.794,58.482 238.463,47.699 229.894 C 46.088 228.614,44.383 227.260,43.908 226.884 C 40.363 224.075,31.523 215.354,28.200 211.387 C 27.100 210.074,25.922 208.730,25.581 208.400 C 25.241 208.070,24.523 207.172,23.986 206.404 C 23.449 205.637,22.607 204.557,22.115 204.004 C 20.833 202.566,17.203 197.379,15.372 194.371 C 14.511 192.957,13.702 191.710,13.574 191.600 C 13.445 191.490,12.904 190.590,12.370 189.600 C 11.837 188.610,11.308 187.710,11.195 187.600 C 11.082 187.490,10.542 186.500,9.995 185.400 C 9.448 184.300,8.865 183.340,8.700 183.267 C 8.535 183.193,8.396 182.833,8.391 182.467 C 8.386 182.100,8.030 181.350,7.600 180.800 C 7.170 180.250,6.810 179.530,6.800 179.200 C 6.790 178.870,6.430 178.150,6.000 177.600 C 5.570 177.050,5.214 176.375,5.209 176.100 C 5.189 175.000,4.400 175.683,4.400 176.800 M67.558 179.730 C 68.655 181.090,78.063 188.273,77.452 187.284 C 77.291 187.023,76.313 186.237,75.280 185.536 C 74.246 184.836,71.960 183.087,70.200 181.650 C 68.440 180.214,67.251 179.349,67.558 179.730 M83.600 191.564 C 84.150 192.014,84.780 192.383,85.000 192.385 C 85.428 192.388,84.705 191.834,83.400 191.160 C 82.869 190.885,82.936 191.021,83.600 191.564 M87.600 193.967 C 88.563 194.752,89.200 195.008,89.200 194.610 C 89.200 194.506,88.615 194.135,87.900 193.786 L 86.600 193.152 87.600 193.967 M89.610 195.075 C 89.620 195.417,93.252 197.281,93.475 197.059 C 93.546 196.988,92.703 196.439,91.602 195.840 C 90.501 195.240,89.604 194.896,89.610 195.075 M95.600 198.158 C 95.600 198.270,96.275 198.671,97.100 199.048 C 97.925 199.426,98.735 199.805,98.900 199.891 C 99.065 199.977,99.200 199.955,99.200 199.842 C 99.200 199.730,98.525 199.329,97.700 198.952 C 96.875 198.574,96.065 198.195,95.900 198.109 C 95.735 198.023,95.600 198.045,95.600 198.158 M101.200 200.967 C 102.190 201.479,103.450 202.013,104.000 202.154 C 104.550 202.296,103.920 201.880,102.600 201.229 C 99.772 199.836,98.578 199.613,101.200 200.967 M294.200 223.633 C 287.171 223.936,283.490 224.290,277.800 225.211 C 276.260 225.460,274.100 225.806,273.000 225.979 C 260.504 227.952,240.741 233.968,228.000 239.678 C 227.010 240.121,225.570 240.757,224.800 241.090 C 224.030 241.423,222.500 242.107,221.400 242.609 C 217.471 244.404,203.760 250.356,201.607 251.201 C 200.401 251.674,198.460 252.498,197.295 253.031 C 196.130 253.564,195.029 254.000,194.850 254.000 C 194.670 254.000,194.000 254.250,193.361 254.556 C 192.244 255.092,190.655 255.776,188.281 256.744 C 187.666 256.995,186.136 257.203,184.881 257.206 C 181.919 257.214,181.713 257.387,181.543 260.000 C 181.464 261.210,181.279 262.292,181.131 262.405 C 180.982 262.517,180.810 263.990,180.747 265.677 C 180.684 267.364,180.487 268.654,180.308 268.543 C 179.807 268.234,179.979 289.292,180.482 289.899 C 180.715 290.180,180.884 291.933,180.859 293.804 C 180.831 295.797,180.975 297.200,181.206 297.200 C 181.423 297.200,181.600 297.650,181.600 298.200 C 181.600 299.701,182.068 299.575,189.900 295.980 C 193.009 294.553,195.391 293.502,196.200 293.200 C 196.640 293.036,197.900 292.496,199.000 292.000 C 200.100 291.504,201.405 290.941,201.900 290.749 C 202.395 290.557,203.295 290.196,203.900 289.946 C 204.505 289.697,205.360 289.355,205.800 289.187 C 206.240 289.019,207.292 288.577,208.139 288.204 C 210.455 287.183,221.546 283.022,223.600 282.403 C 224.590 282.105,225.571 281.712,225.780 281.530 C 225.989 281.349,226.563 281.200,227.056 281.200 C 227.549 281.200,228.064 281.020,228.200 280.800 C 228.336 280.580,228.799 280.400,229.229 280.400 C 229.659 280.400,230.323 280.238,230.705 280.041 C 231.087 279.844,232.750 279.291,234.400 278.812 C 236.050 278.334,237.953 277.775,238.628 277.571 C 239.304 277.367,240.238 277.200,240.705 277.200 C 241.171 277.200,241.652 277.039,241.774 276.842 C 241.895 276.645,242.671 276.385,243.497 276.263 C 244.324 276.141,245.990 275.834,247.200 275.582 C 250.333 274.928,260.386 274.626,260.929 275.169 C 261.166 275.406,261.866 275.600,262.485 275.600 C 263.104 275.600,263.923 275.759,264.305 275.953 C 264.687 276.148,265.450 276.490,266.000 276.714 C 268.084 277.564,272.608 279.720,272.800 279.955 C 272.910 280.090,273.810 280.641,274.800 281.180 C 275.790 281.719,276.780 282.307,277.000 282.486 C 277.220 282.665,278.300 283.472,279.400 284.278 C 281.862 286.084,286.518 290.103,288.399 292.047 C 291.759 295.518,293.929 297.923,295.217 299.600 C 295.978 300.590,296.705 301.490,296.834 301.600 C 298.711 303.206,304.841 314.477,305.972 318.400 C 306.258 319.390,306.640 320.560,306.821 321.000 C 308.041 323.962,308.051 331.773,306.839 335.000 C 305.042 339.784,298.996 346.400,296.422 346.400 C 296.190 346.400,296.000 346.536,296.000 346.702 C 296.000 346.869,295.415 347.265,294.700 347.584 C 285.796 351.549,280.898 353.478,278.695 353.887 C 278.087 354.000,277.492 354.251,277.371 354.446 C 277.251 354.641,276.724 354.800,276.200 354.800 C 275.676 354.800,275.136 354.980,275.000 355.200 C 274.864 355.420,274.401 355.600,273.971 355.600 C 273.541 355.600,272.877 355.762,272.495 355.961 C 272.113 356.160,270.990 356.544,270.000 356.815 C 266.610 357.744,265.399 358.103,264.481 358.451 C 263.976 358.643,263.131 358.800,262.605 358.800 C 262.078 358.800,261.536 358.980,261.400 359.200 C 261.264 359.420,260.634 359.600,260.000 359.600 C 259.366 359.600,258.748 359.761,258.626 359.958 C 258.505 360.155,257.729 360.406,256.903 360.517 C 256.076 360.628,254.680 360.930,253.800 361.189 C 252.920 361.448,251.435 361.827,250.500 362.030 C 249.565 362.234,247.990 362.580,247.000 362.800 C 242.561 363.786,241.286 364.058,239.600 364.378 C 238.610 364.566,236.720 364.928,235.400 365.182 C 231.029 366.023,228.629 366.399,226.000 366.653 C 223.486 366.896,222.400 367.317,222.400 368.049 C 222.400 368.242,222.715 368.402,223.100 368.404 C 223.485 368.407,224.404 369.031,225.143 369.791 C 225.882 370.551,226.827 371.282,227.243 371.414 C 227.659 371.546,228.000 371.822,228.000 372.027 C 228.000 372.232,228.242 372.400,228.538 372.400 C 228.834 372.400,229.404 372.763,229.805 373.206 C 230.228 373.673,230.821 373.920,231.218 373.794 C 231.683 373.647,231.972 373.849,232.123 374.429 C 232.246 374.897,232.524 375.171,232.741 375.037 C 232.958 374.902,233.407 375.064,233.739 375.396 C 234.071 375.728,234.704 376.000,235.144 376.000 C 235.595 376.000,236.057 376.351,236.200 376.800 C 236.340 377.240,236.802 377.600,237.227 377.600 C 237.652 377.600,238.000 377.780,238.000 378.000 C 238.000 378.220,238.360 378.400,238.800 378.400 C 239.240 378.400,239.600 378.580,239.600 378.800 C 239.600 379.020,239.960 379.200,240.400 379.200 C 240.840 379.200,241.200 379.380,241.200 379.600 C 241.200 379.820,241.515 380.004,241.900 380.009 C 242.285 380.014,243.050 380.370,243.600 380.800 C 244.150 381.230,245.005 381.586,245.500 381.591 C 245.995 381.596,246.400 381.780,246.400 382.000 C 246.400 382.220,246.672 382.400,247.005 382.400 C 247.593 382.400,248.018 382.567,249.895 383.538 C 250.387 383.792,251.062 384.000,251.395 384.000 C 251.728 384.000,252.000 384.142,252.000 384.315 C 252.000 384.488,252.585 384.674,253.300 384.728 C 254.015 384.781,254.660 385.000,254.733 385.213 C 254.807 385.426,255.482 385.600,256.233 385.600 C 256.985 385.600,257.600 385.780,257.600 386.000 C 257.600 386.220,258.129 386.400,258.776 386.400 C 259.423 386.400,260.052 386.560,260.173 386.756 C 260.294 386.951,260.979 387.214,261.696 387.339 C 262.413 387.464,263.945 387.754,265.100 387.983 C 266.255 388.213,268.145 388.587,269.300 388.816 C 270.455 389.044,272.300 389.388,273.400 389.579 C 274.500 389.771,276.120 390.129,277.000 390.375 C 277.880 390.622,278.929 390.900,279.332 390.995 C 281.343 391.466,282.829 391.999,284.495 392.847 C 284.877 393.041,285.462 393.200,285.795 393.200 C 286.128 393.200,286.400 393.380,286.400 393.600 C 286.400 393.820,286.760 394.000,287.200 394.000 C 287.640 394.000,288.000 394.180,288.000 394.400 C 288.000 394.620,288.281 394.800,288.624 394.800 C 288.967 394.800,289.136 394.980,289.000 395.200 C 288.864 395.420,289.123 395.600,289.576 395.600 C 290.029 395.600,290.400 395.780,290.400 396.000 C 290.400 396.220,290.717 396.400,291.104 396.400 C 291.491 396.400,292.032 396.760,292.307 397.200 C 292.582 397.640,293.009 398.000,293.256 398.000 C 293.504 398.000,294.057 398.405,294.486 398.900 C 295.179 399.700,295.710 399.815,299.248 399.938 L 303.231 400.076 307.544 395.738 C 311.993 391.263,314.800 388.669,314.800 389.033 C 314.800 389.147,315.402 388.782,316.138 388.220 C 316.874 387.659,317.669 387.200,317.904 387.200 C 318.140 387.200,318.393 387.065,318.467 386.900 C 318.687 386.405,323.654 384.000,324.456 384.000 C 324.865 384.000,325.200 383.820,325.200 383.600 C 325.200 383.380,325.560 383.200,326.000 383.200 C 326.440 383.200,326.800 383.020,326.800 382.800 C 326.800 382.580,327.250 382.400,327.800 382.400 C 328.350 382.400,328.800 382.220,328.800 382.000 C 328.800 381.780,329.250 381.600,329.800 381.600 C 330.350 381.600,330.800 381.420,330.800 381.200 C 330.800 380.980,331.160 380.800,331.600 380.800 C 332.040 380.800,332.400 380.620,332.400 380.400 C 332.400 380.180,332.760 380.000,333.200 380.000 C 333.640 380.000,334.000 379.820,334.000 379.600 C 334.000 379.380,334.360 379.200,334.800 379.200 C 335.240 379.200,335.600 379.020,335.600 378.800 C 335.600 378.580,335.960 378.400,336.400 378.400 C 336.840 378.400,337.200 378.254,337.200 378.075 C 337.200 377.896,337.830 377.502,338.600 377.200 C 339.370 376.898,340.000 376.504,340.000 376.325 C 340.000 376.146,340.270 376.000,340.600 376.000 C 340.930 376.000,341.200 375.856,341.200 375.680 C 341.200 375.505,341.828 375.134,342.596 374.856 C 343.363 374.578,344.221 374.137,344.501 373.876 C 345.319 373.112,348.705 370.800,349.005 370.800 C 349.156 370.800,349.783 370.260,350.400 369.600 C 351.017 368.940,351.684 368.400,351.882 368.400 C 352.081 368.400,352.954 367.768,353.822 366.996 C 354.690 366.224,355.977 365.076,356.683 364.446 C 357.389 363.816,358.064 363.397,358.183 363.517 C 358.302 363.636,358.400 363.527,358.400 363.275 C 358.400 362.848,360.287 360.880,364.456 356.960 C 366.475 355.061,368.400 352.915,368.400 352.564 C 368.400 352.430,368.902 351.844,369.515 351.260 C 370.129 350.677,371.069 349.570,371.605 348.800 C 372.140 348.030,372.898 347.051,373.289 346.625 C 373.680 346.198,374.000 345.656,374.000 345.420 C 374.000 345.185,374.450 344.507,375.000 343.913 C 375.550 343.320,376.000 342.557,376.000 342.217 C 376.000 341.878,376.180 341.600,376.400 341.600 C 376.620 341.600,376.800 341.370,376.800 341.088 C 376.800 340.807,377.160 340.317,377.600 340.000 C 378.040 339.683,378.400 339.137,378.400 338.787 C 378.400 338.437,378.760 337.764,379.200 337.292 C 379.640 336.820,380.000 336.246,380.000 336.017 C 380.000 335.788,380.180 335.600,380.400 335.600 C 380.620 335.600,380.800 335.240,380.800 334.800 C 380.800 334.360,380.980 334.000,381.200 334.000 C 381.420 334.000,381.600 333.766,381.600 333.480 C 381.600 332.744,382.541 330.807,382.900 330.803 C 383.065 330.801,383.200 330.339,383.200 329.776 C 383.200 329.196,383.373 328.860,383.600 329.000 C 383.820 329.136,384.000 328.887,384.000 328.447 C 384.000 328.007,384.180 327.536,384.400 327.400 C 384.620 327.264,384.803 326.668,384.806 326.076 C 384.811 325.234,384.897 325.131,385.200 325.600 C 385.494 326.055,385.589 325.886,385.594 324.900 C 385.597 324.185,385.751 323.600,385.936 323.600 C 386.121 323.600,386.512 322.835,386.806 321.900 C 387.099 320.965,387.488 320.029,387.670 319.820 C 387.851 319.611,388.000 319.037,388.000 318.544 C 388.000 318.051,388.180 317.536,388.400 317.400 C 388.620 317.264,388.800 316.713,388.800 316.176 C 388.800 315.639,388.980 315.200,389.200 315.200 C 389.420 315.200,389.600 314.671,389.600 314.024 C 389.600 313.377,389.760 312.748,389.956 312.627 C 390.348 312.385,390.556 311.411,391.266 306.500 C 391.529 304.685,391.891 303.200,392.072 303.200 C 392.252 303.200,392.400 302.030,392.400 300.600 C 392.400 299.133,392.574 298.000,392.800 298.000 C 393.028 298.000,393.200 296.808,393.200 295.224 C 393.200 293.697,393.380 292.336,393.600 292.200 C 393.849 292.046,394.000 288.255,394.000 282.153 C 394.000 275.721,393.863 272.438,393.600 272.600 C 393.343 272.759,393.200 271.337,393.200 268.624 C 393.200 266.075,393.041 264.400,392.800 264.400 C 392.575 264.400,392.400 263.278,392.400 261.833 C 392.400 260.422,392.243 259.207,392.051 259.133 C 391.859 259.060,391.577 257.662,391.426 256.028 C 391.275 254.393,390.986 252.748,390.785 252.372 C 390.584 251.996,390.376 251.115,390.322 250.414 C 390.269 249.713,390.085 249.052,389.913 248.946 C 389.741 248.840,389.600 248.324,389.600 247.800 C 389.600 247.276,389.420 246.736,389.200 246.600 C 388.980 246.464,388.800 245.913,388.800 245.376 C 388.800 244.839,388.620 244.400,388.400 244.400 C 388.180 244.400,388.000 243.948,388.000 243.395 C 388.000 242.842,387.841 242.077,387.647 241.695 C 387.104 240.628,386.502 239.145,385.971 237.568 C 385.061 234.868,384.814 234.720,382.399 235.437 C 379.828 236.201,380.401 236.297,365.400 232.597 C 331.708 224.288,318.261 222.595,294.200 223.633 " stroke="none" fill="#b26f0c" fill-rule="evenodd"></path><path id="path2" d="M142.900 0.252 C 142.405 0.364,142.000 0.623,142.000 0.828 C 142.000 1.033,141.724 1.200,141.387 1.200 C 140.591 1.200,138.000 3.791,138.000 4.587 C 138.000 4.924,137.820 5.200,137.600 5.200 C 137.359 5.200,137.200 6.867,137.200 9.400 C 137.200 11.933,137.359 13.600,137.600 13.600 C 137.820 13.600,138.000 13.875,138.000 14.211 C 138.000 15.064,141.493 18.493,141.741 17.883 C 141.889 17.517,141.945 17.521,141.968 17.900 C 141.986 18.175,142.360 18.400,142.800 18.400 C 143.240 18.400,143.600 18.580,143.600 18.800 C 143.600 19.025,144.725 19.200,146.176 19.200 C 147.593 19.200,148.864 19.380,149.000 19.600 C 149.139 19.825,151.063 20.000,153.400 20.000 C 155.737 20.000,157.661 20.175,157.800 20.400 C 157.936 20.620,159.297 20.800,160.824 20.800 C 162.351 20.800,163.600 20.963,163.600 21.163 C 163.600 21.363,164.545 21.620,165.700 21.734 C 166.855 21.849,168.790 22.146,170.000 22.395 C 171.210 22.643,172.965 22.945,173.900 23.064 C 174.835 23.183,175.600 23.442,175.600 23.640 C 175.600 23.838,176.219 24.000,176.976 24.000 C 177.733 24.000,178.456 24.167,178.583 24.372 C 178.709 24.577,179.802 24.868,181.012 25.019 C 182.221 25.170,183.309 25.452,183.429 25.647 C 183.549 25.841,184.267 26.000,185.024 26.000 C 185.781 26.000,186.400 26.180,186.400 26.400 C 186.400 26.620,186.760 26.800,187.200 26.800 C 187.640 26.800,188.000 26.980,188.000 27.200 C 188.000 27.420,188.540 27.600,189.200 27.600 C 189.860 27.600,190.400 27.780,190.400 28.000 C 190.400 28.220,190.951 28.400,191.624 28.400 C 192.337 28.400,192.744 28.567,192.600 28.800 C 192.464 29.020,192.723 29.200,193.176 29.200 C 193.629 29.200,194.000 29.380,194.000 29.600 C 194.000 29.820,194.349 30.000,194.776 30.000 C 195.203 30.000,195.664 30.180,195.800 30.400 C 195.936 30.620,196.487 30.800,197.024 30.800 C 197.561 30.800,198.000 30.980,198.000 31.200 C 198.000 31.420,198.360 31.600,198.800 31.600 C 199.240 31.600,199.600 31.780,199.600 32.000 C 199.600 32.220,199.960 32.400,200.400 32.400 C 200.840 32.400,201.200 32.580,201.200 32.800 C 201.200 33.020,201.560 33.200,202.000 33.200 C 202.440 33.200,202.801 33.335,202.803 33.500 C 202.807 33.865,204.749 34.800,205.503 34.800 C 205.802 34.800,205.936 34.980,205.800 35.200 C 205.664 35.420,205.833 35.600,206.176 35.600 C 206.519 35.600,206.800 35.780,206.800 36.000 C 206.800 36.220,207.160 36.400,207.600 36.400 C 208.040 36.400,208.400 36.580,208.400 36.800 C 208.400 37.020,208.670 37.200,209.000 37.200 C 209.330 37.200,209.600 37.350,209.600 37.532 C 209.600 37.715,210.095 38.120,210.700 38.432 C 211.305 38.745,212.149 39.315,212.575 39.700 C 213.002 40.085,213.587 40.400,213.875 40.400 C 214.164 40.400,214.400 40.539,214.400 40.709 C 214.400 40.879,215.075 41.372,215.900 41.804 C 216.725 42.236,217.691 42.906,218.047 43.294 C 218.403 43.683,218.908 44.000,219.169 44.000 C 219.430 44.000,220.704 45.080,222.000 46.400 C 223.296 47.720,224.506 48.800,224.690 48.800 C 224.873 48.800,225.283 49.160,225.600 49.600 C 225.917 50.040,226.417 50.400,226.712 50.400 C 227.006 50.400,227.145 50.565,227.021 50.766 C 226.897 50.967,227.021 51.225,227.298 51.340 C 227.644 51.484,227.507 51.805,226.856 52.374 C 226.336 52.828,226.030 53.200,226.175 53.200 C 226.471 53.200,222.805 56.805,217.021 62.200 C 211.957 66.924,212.098 66.800,211.789 66.800 C 211.642 66.800,210.913 67.475,210.170 68.300 C 209.427 69.125,208.814 69.650,208.809 69.467 C 208.804 69.284,208.094 69.869,207.231 70.767 C 206.369 71.665,205.451 72.400,205.192 72.400 C 204.933 72.400,204.217 72.940,203.600 73.600 C 202.983 74.260,202.231 74.800,201.928 74.800 C 201.625 74.800,201.124 75.150,200.815 75.579 C 200.507 76.007,200.107 76.266,199.927 76.155 C 199.747 76.044,199.600 76.143,199.600 76.376 C 199.600 76.609,199.364 76.800,199.075 76.800 C 198.787 76.800,198.164 77.160,197.692 77.600 C 196.794 78.437,193.600 78.759,193.600 78.013 C 193.600 77.799,193.915 77.726,194.300 77.850 C 194.876 78.036,194.896 78.002,194.413 77.661 C 194.001 77.369,193.652 77.387,193.237 77.723 C 192.774 78.097,192.711 78.092,192.947 77.700 C 193.148 77.365,192.976 77.200,192.424 77.200 C 191.971 77.200,191.600 77.020,191.600 76.800 C 191.600 76.580,191.240 76.400,190.800 76.400 C 190.360 76.400,190.000 76.241,190.000 76.047 C 190.000 75.852,189.617 75.593,189.148 75.471 C 188.657 75.342,188.382 75.025,188.498 74.722 C 188.609 74.432,188.418 73.933,188.074 73.611 C 187.520 73.094,187.478 73.106,187.715 73.722 C 187.941 74.313,187.862 74.354,187.191 73.995 C 186.756 73.762,186.397 73.263,186.394 72.886 C 186.390 72.404,186.295 72.346,186.076 72.691 C 185.846 73.052,185.613 72.973,185.194 72.391 C 184.880 71.956,184.183 71.600,183.645 71.600 C 183.107 71.600,182.778 71.489,182.914 71.352 C 183.464 70.803,182.003 69.899,181.389 70.409 C 180.818 70.883,180.586 70.553,180.753 69.500 C 180.832 68.998,180.081 69.166,179.859 69.700 C 179.715 70.046,179.409 69.924,178.862 69.300 C 178.427 68.805,177.684 68.400,177.210 68.400 C 176.060 68.400,174.719 67.655,175.012 67.180 C 175.142 66.971,174.826 66.800,174.312 66.800 C 173.797 66.800,173.117 66.440,172.800 66.000 C 172.483 65.560,171.903 65.200,171.512 65.200 C 171.120 65.200,170.800 65.020,170.800 64.800 C 170.800 64.580,170.470 64.400,170.067 64.400 C 169.663 64.400,169.198 64.265,169.033 64.100 C 168.716 63.783,168.499 63.730,167.176 63.650 C 166.670 63.619,166.461 63.425,166.634 63.145 C 166.837 62.817,166.491 62.769,165.404 62.973 C 164.088 63.220,163.926 63.169,164.152 62.580 C 164.357 62.046,164.237 61.949,163.581 62.121 C 163.071 62.254,162.667 62.119,162.533 61.769 C 162.413 61.456,161.894 61.200,161.381 61.200 C 160.867 61.200,160.336 61.020,160.200 60.800 C 160.064 60.580,159.773 60.400,159.553 60.400 C 159.333 60.400,159.283 60.611,159.442 60.868 C 159.639 61.187,159.509 61.251,159.033 61.068 C 158.649 60.921,158.085 60.800,157.780 60.800 C 157.464 60.800,157.319 60.555,157.444 60.229 C 157.601 59.821,157.442 59.716,156.887 59.861 C 156.403 59.988,156.017 59.822,155.864 59.423 C 155.698 58.991,155.288 58.841,154.609 58.964 C 154.054 59.065,153.600 58.979,153.600 58.774 C 153.600 58.568,152.700 58.400,151.600 58.400 C 150.500 58.400,149.600 58.220,149.600 58.000 C 149.600 57.780,149.240 57.600,148.800 57.600 C 148.360 57.600,148.000 57.443,148.000 57.252 C 148.000 57.061,147.685 56.905,147.300 56.907 C 144.459 56.918,143.182 56.752,143.400 56.400 C 143.638 56.015,142.211 55.836,140.000 55.974 C 139.224 56.022,139.131 55.947,139.584 55.642 C 140.022 55.347,139.842 55.258,138.866 55.286 C 138.149 55.306,137.355 55.115,137.101 54.861 C 136.848 54.608,135.632 54.400,134.400 54.400 C 133.157 54.400,131.924 54.177,131.630 53.900 C 131.206 53.500,131.063 53.500,130.917 53.900 C 130.816 54.175,130.468 54.400,130.143 54.400 C 129.818 54.400,129.664 54.220,129.800 54.000 C 129.956 53.748,129.015 53.600,127.257 53.600 C 125.399 53.600,124.399 53.433,124.265 53.100 C 124.104 52.700,124.057 52.700,124.032 53.100 C 124.014 53.375,123.629 53.600,123.176 53.600 C 122.723 53.600,122.450 53.443,122.568 53.252 C 122.687 53.059,119.502 52.914,115.415 52.927 C 111.362 52.940,108.118 53.067,108.205 53.209 C 108.293 53.351,108.111 53.467,107.800 53.467 C 107.489 53.467,107.328 53.317,107.441 53.133 C 107.555 52.950,106.917 52.800,106.024 52.800 C 105.131 52.800,104.400 52.980,104.400 53.200 C 104.400 53.420,104.119 53.600,103.776 53.600 C 103.384 53.600,103.264 53.415,103.453 53.100 C 103.628 52.809,103.439 52.850,103.000 53.200 C 102.561 53.550,102.372 53.591,102.547 53.300 C 102.712 53.025,102.657 52.800,102.424 52.800 C 102.191 52.800,102.000 52.980,102.000 53.200 C 102.000 53.435,100.611 53.600,98.633 53.600 C 96.439 53.600,95.213 53.761,95.112 54.063 C 95.027 54.318,94.343 54.509,93.591 54.487 C 92.839 54.466,91.959 54.663,91.635 54.924 C 91.155 55.312,91.112 55.289,91.400 54.800 C 91.707 54.279,91.663 54.274,91.063 54.760 C 90.684 55.068,89.794 55.373,89.087 55.437 C 86.526 55.669,84.811 56.094,85.027 56.443 C 85.148 56.640,85.072 56.800,84.857 56.800 C 84.642 56.800,84.376 56.575,84.265 56.300 C 84.104 55.900,84.057 55.900,84.032 56.300 C 84.014 56.575,83.676 56.800,83.280 56.800 C 82.884 56.800,82.337 57.023,82.063 57.297 C 81.668 57.692,81.490 57.672,81.189 57.197 C 80.982 56.868,80.808 56.780,80.803 57.000 C 80.798 57.220,80.345 57.608,79.796 57.863 C 79.248 58.117,78.908 58.149,79.041 57.933 C 79.175 57.717,78.905 57.778,78.442 58.067 C 77.979 58.356,77.600 58.750,77.600 58.943 C 77.600 59.136,77.150 59.207,76.600 59.102 C 76.050 58.997,75.600 59.060,75.600 59.241 C 75.600 59.942,74.023 60.440,73.200 60.000 C 72.555 59.655,72.400 59.696,72.400 60.213 C 72.400 60.677,72.152 60.792,71.500 60.631 C 71.005 60.508,70.825 60.511,71.100 60.637 C 72.187 61.136,71.565 61.682,70.200 61.426 C 69.409 61.278,68.800 61.327,68.800 61.539 C 68.800 61.745,68.350 62.026,67.800 62.164 C 67.250 62.302,66.800 62.602,66.800 62.831 C 66.800 63.060,66.622 63.137,66.405 63.003 C 66.178 62.863,66.111 63.023,66.247 63.379 C 66.378 63.721,66.286 64.000,66.043 64.000 C 65.799 64.000,65.600 63.798,65.600 63.551 C 65.600 63.259,65.368 63.294,64.939 63.651 C 64.575 63.953,64.217 64.160,64.143 64.111 C 63.804 63.886,62.829 64.524,63.026 64.842 C 63.148 65.039,62.864 65.200,62.395 65.200 C 61.522 65.200,60.243 66.209,60.146 66.973 C 60.117 67.208,60.072 67.557,60.046 67.749 C 60.021 67.941,59.749 67.890,59.442 67.635 C 59.013 67.279,58.744 67.313,58.271 67.786 C 57.933 68.124,57.562 68.400,57.447 68.400 C 57.331 68.400,56.777 68.860,56.215 69.422 C 55.653 69.983,55.015 70.333,54.797 70.198 C 54.574 70.061,54.400 70.397,54.400 70.964 C 54.400 71.663,54.228 71.909,53.844 71.762 C 53.327 71.563,51.234 73.264,51.206 73.905 C 51.199 74.063,50.880 74.193,50.497 74.196 C 50.050 74.198,49.783 74.532,49.753 75.125 C 49.728 75.634,49.278 76.352,48.753 76.722 C 47.832 77.371,47.666 77.442,46.800 77.550 C 46.580 77.577,46.445 77.825,46.500 78.100 C 46.555 78.375,46.375 78.555,46.100 78.500 C 45.810 78.442,45.600 78.808,45.600 79.371 C 45.600 79.906,45.336 80.581,45.014 80.871 C 43.684 82.071,43.213 82.400,42.829 82.400 C 42.607 82.400,42.540 82.700,42.681 83.066 C 42.867 83.552,42.792 83.642,42.400 83.400 C 42.010 83.159,41.933 83.247,42.115 83.723 C 42.253 84.083,42.100 84.642,41.776 84.967 C 41.451 85.292,41.234 85.702,41.293 85.879 C 41.352 86.055,41.251 86.233,41.069 86.274 C 40.536 86.392,38.801 88.554,38.800 89.100 C 38.800 89.375,38.601 89.600,38.357 89.600 C 38.114 89.600,38.021 89.877,38.150 90.215 C 38.285 90.565,38.131 90.928,37.793 91.058 C 37.454 91.188,37.200 91.792,37.200 92.466 C 37.200 93.116,37.040 93.549,36.845 93.428 C 36.650 93.307,36.498 93.432,36.508 93.704 C 36.576 95.585,36.335 96.579,36.000 95.800 C 35.695 95.091,35.653 95.125,35.628 96.100 C 35.613 96.705,35.420 97.200,35.200 97.200 C 34.980 97.200,34.800 98.100,34.800 99.200 C 34.800 100.300,34.620 101.200,34.400 101.200 C 34.180 101.200,34.000 101.549,34.000 101.976 C 34.000 102.403,33.833 102.856,33.629 102.982 C 33.424 103.109,33.257 104.210,33.257 105.431 C 33.257 106.651,33.042 107.908,32.780 108.225 C 32.393 108.690,32.445 108.802,33.051 108.813 C 33.759 108.825,33.761 108.855,33.100 109.357 C 32.321 109.948,32.150 111.200,32.849 111.200 C 33.158 111.200,33.171 111.356,32.892 111.700 C 32.339 112.381,32.239 120.400,32.784 120.400 C 33.013 120.400,33.200 120.591,33.200 120.824 C 33.200 121.057,33.020 121.136,32.800 121.000 C 32.574 120.860,32.400 121.188,32.400 121.753 C 32.400 122.303,32.580 122.864,32.800 123.000 C 33.020 123.136,33.200 124.047,33.200 125.024 C 33.200 126.231,33.360 126.768,33.700 126.700 C 34.009 126.638,34.152 126.945,34.075 127.500 C 33.990 128.109,34.156 128.400,34.587 128.400 C 34.938 128.400,35.288 128.625,35.365 128.900 C 36.284 132.174,36.661 133.433,37.490 136.000 C 38.023 137.650,38.700 139.540,38.995 140.200 C 39.289 140.860,40.036 142.570,40.654 144.000 C 41.272 145.430,41.918 146.660,42.089 146.733 C 42.260 146.807,42.400 147.212,42.400 147.633 C 42.400 148.055,42.536 148.400,42.702 148.400 C 42.869 148.400,43.259 148.985,43.570 149.700 C 43.881 150.415,44.240 151.090,44.368 151.200 C 44.754 151.533,46.034 153.753,46.271 154.500 C 46.393 154.885,46.652 155.200,46.847 155.200 C 47.041 155.200,47.204 155.425,47.208 155.700 C 47.215 156.156,50.427 160.801,53.396 164.650 C 56.073 168.121,68.518 180.140,71.757 182.384 C 72.221 182.705,72.841 183.203,73.136 183.491 C 74.653 184.973,83.299 190.761,88.400 193.708 C 97.142 198.760,113.205 205.522,121.600 207.684 C 122.370 207.883,123.630 208.227,124.400 208.449 C 144.491 214.248,170.007 214.749,188.600 209.711 C 196.376 207.604,196.592 207.596,196.018 209.426 C 195.815 210.072,195.458 211.365,195.225 212.300 C 194.726 214.294,194.031 216.911,193.550 218.600 C 192.959 220.677,190.774 227.360,190.379 228.300 C 190.170 228.795,189.844 229.605,189.654 230.100 C 187.564 235.527,182.243 245.849,179.189 250.400 C 177.153 253.434,176.931 254.290,177.938 255.228 C 179.223 256.426,181.609 257.642,182.090 257.345 C 182.331 257.196,183.228 257.101,184.083 257.135 C 185.975 257.209,188.454 256.394,196.008 253.218 C 201.998 250.699,202.144 250.636,205.296 249.240 C 206.338 248.778,207.278 248.400,207.384 248.400 C 207.490 248.400,208.527 247.970,209.688 247.445 C 210.850 246.919,212.655 246.109,213.700 245.645 C 214.745 245.180,216.410 244.440,217.400 244.000 C 218.390 243.560,220.055 242.820,221.100 242.354 C 228.363 239.122,229.984 238.439,235.200 236.413 C 244.543 232.785,252.749 230.075,258.200 228.820 C 259.080 228.617,260.520 228.255,261.400 228.015 C 262.280 227.775,263.810 227.426,264.800 227.240 C 265.790 227.053,268.040 226.607,269.800 226.248 C 289.461 222.244,313.023 221.862,333.300 225.219 C 339.608 226.264,343.161 226.919,346.200 227.599 C 348.359 228.081,354.806 229.596,355.800 229.854 C 356.240 229.969,357.275 230.228,358.100 230.431 C 358.925 230.634,360.320 230.980,361.200 231.200 C 363.738 231.835,366.086 232.410,367.600 232.768 C 368.370 232.950,370.473 233.490,372.274 233.969 C 380.049 236.037,384.274 235.780,386.900 233.078 C 387.725 232.229,388.400 231.397,388.400 231.230 C 388.400 231.062,388.850 230.401,389.400 229.762 C 389.949 229.123,390.399 228.375,390.400 228.100 C 390.400 227.825,390.592 227.600,390.827 227.600 C 391.072 227.600,391.146 227.259,391.000 226.800 C 390.854 226.341,390.928 226.000,391.173 226.000 C 391.408 226.000,391.600 225.700,391.600 225.333 C 391.600 224.967,391.711 224.778,391.848 224.914 C 392.203 225.269,393.200 224.174,393.200 223.429 C 393.200 223.083,393.380 222.800,393.600 222.800 C 393.820 222.800,394.000 222.530,394.000 222.200 C 394.000 221.870,394.225 221.597,394.500 221.594 C 394.839 221.590,394.807 221.451,394.400 221.163 C 393.948 220.844,393.924 220.689,394.300 220.536 C 394.575 220.425,394.800 219.988,394.800 219.567 C 394.800 219.145,394.980 218.800,395.200 218.800 C 395.420 218.800,395.600 218.429,395.600 217.976 C 395.600 217.523,395.780 217.264,396.000 217.400 C 396.220 217.536,396.400 217.292,396.400 216.857 C 396.400 216.422,396.625 215.976,396.900 215.865 C 397.235 215.730,397.248 215.653,396.938 215.632 C 396.352 215.592,397.191 213.611,397.800 213.597 C 398.020 213.592,397.930 213.413,397.600 213.200 C 397.200 212.942,397.167 212.810,397.500 212.806 C 397.788 212.803,398.000 212.290,398.000 211.600 C 398.000 210.940,398.180 210.400,398.400 210.400 C 398.620 210.400,398.800 209.896,398.800 209.280 C 398.800 208.664,399.025 207.935,399.300 207.660 C 399.678 207.282,399.800 204.195,399.800 195.000 C 399.800 185.805,399.678 182.718,399.300 182.340 C 399.025 182.065,398.800 181.347,398.800 180.744 C 398.800 180.141,398.620 179.536,398.400 179.400 C 398.180 179.264,398.000 178.803,398.000 178.376 C 398.000 177.949,397.820 177.600,397.600 177.600 C 397.380 177.600,397.200 177.150,397.200 176.600 C 397.200 176.050,397.020 175.600,396.800 175.600 C 396.580 175.600,396.400 175.240,396.400 174.800 C 396.400 174.360,396.220 174.000,396.000 174.000 C 395.780 174.000,395.600 173.680,395.600 173.288 C 395.600 172.897,395.240 172.317,394.800 172.000 C 394.360 171.683,394.000 171.103,394.000 170.712 C 394.000 170.320,393.820 170.000,393.600 170.000 C 393.380 170.000,393.200 169.680,393.200 169.288 C 393.200 168.897,392.840 168.317,392.400 168.000 C 391.960 167.683,391.598 167.148,391.595 166.812 C 391.586 165.724,382.594 156.000,381.597 156.000 C 381.350 156.000,380.271 155.100,379.200 154.000 C 378.129 152.900,377.010 152.000,376.714 152.000 C 376.419 152.000,375.917 151.640,375.600 151.200 C 375.283 150.760,374.833 150.400,374.600 150.400 C 374.367 150.400,373.917 150.040,373.600 149.600 C 373.283 149.160,372.583 148.800,372.045 148.800 C 371.507 148.800,371.178 148.689,371.314 148.552 C 371.669 148.197,370.574 147.200,369.829 147.200 C 369.483 147.200,369.200 147.020,369.200 146.800 C 369.200 146.580,368.880 146.400,368.488 146.400 C 368.097 146.400,367.517 146.040,367.200 145.600 C 366.883 145.160,366.303 144.800,365.912 144.800 C 365.520 144.800,365.200 144.609,365.200 144.376 C 365.200 144.143,365.031 144.057,364.824 144.185 C 364.617 144.313,364.217 144.171,363.936 143.869 C 363.654 143.568,363.103 143.405,362.712 143.507 C 362.259 143.625,362.000 143.471,362.000 143.084 C 362.000 142.672,361.741 142.543,361.200 142.684 C 360.760 142.799,360.400 142.704,360.400 142.473 C 360.400 142.241,359.770 141.824,359.000 141.546 C 358.230 141.267,357.600 140.895,357.600 140.720 C 357.600 140.544,357.240 140.400,356.800 140.400 C 356.360 140.400,356.000 140.220,356.000 140.000 C 356.000 139.780,355.640 139.600,355.200 139.600 C 354.760 139.600,354.400 139.420,354.400 139.200 C 354.400 138.980,353.860 138.800,353.200 138.800 C 352.540 138.800,352.000 138.620,352.000 138.400 C 352.000 138.180,351.640 138.000,351.200 138.000 C 350.760 138.000,350.400 137.820,350.400 137.600 C 350.400 137.380,349.871 137.200,349.224 137.200 C 348.577 137.200,347.936 137.020,347.800 136.800 C 347.664 136.580,347.113 136.400,346.576 136.400 C 346.039 136.400,345.600 136.220,345.600 136.000 C 345.600 135.780,345.060 135.600,344.400 135.600 C 343.740 135.600,343.200 135.420,343.200 135.200 C 343.200 134.980,342.840 134.800,342.400 134.800 C 341.960 134.800,341.600 134.620,341.600 134.400 C 341.600 134.180,340.970 134.000,340.200 134.000 C 339.430 134.000,338.800 133.820,338.800 133.600 C 338.800 133.380,338.271 133.200,337.624 133.200 C 336.977 133.200,336.336 133.020,336.200 132.800 C 336.064 132.580,335.333 132.400,334.576 132.400 C 333.745 132.400,333.198 132.202,333.194 131.900 C 333.190 131.567,333.058 131.600,332.800 132.000 C 332.587 132.330,332.409 132.395,332.406 132.144 C 332.400 131.701,331.226 131.401,327.700 130.941 C 326.765 130.819,326.000 130.569,326.000 130.385 C 326.000 129.912,324.261 130.075,323.906 130.581 C 323.714 130.855,323.610 130.827,323.606 130.500 C 323.603 130.225,323.186 130.000,322.680 130.000 C 322.174 130.000,321.531 129.775,321.251 129.500 C 320.972 129.225,320.801 129.180,320.871 129.400 C 320.942 129.620,320.820 129.800,320.600 129.800 C 320.380 129.800,320.245 129.665,320.300 129.500 C 320.355 129.335,319.626 129.200,318.680 129.200 C 317.734 129.200,316.733 128.975,316.456 128.700 C 316.052 128.299,316.005 128.339,316.219 128.900 C 316.423 129.436,316.278 129.600,315.600 129.600 C 315.006 129.600,314.785 129.416,314.929 129.041 C 315.096 128.605,314.650 128.476,312.906 128.455 C 311.675 128.441,310.482 128.242,310.254 128.014 C 309.635 127.395,307.769 127.515,307.192 128.210 C 306.738 128.757,306.615 128.756,306.007 128.206 C 305.493 127.741,304.510 127.611,301.964 127.669 C 300.114 127.711,298.195 127.610,297.700 127.446 C 297.072 127.237,296.796 127.306,296.787 127.673 C 296.778 128.071,296.655 128.053,296.287 127.600 C 295.895 127.117,294.807 127.013,290.700 127.066 L 285.600 127.131 285.600 124.989 C 285.600 123.811,285.420 122.736,285.200 122.600 C 284.980 122.464,284.800 121.564,284.800 120.600 C 284.800 119.636,284.620 118.736,284.400 118.600 C 284.180 118.464,284.000 117.643,284.000 116.776 C 284.000 115.909,283.820 115.200,283.600 115.200 C 283.380 115.200,283.200 114.480,283.200 113.600 C 283.200 112.720,283.020 112.000,282.800 112.000 C 282.580 112.000,282.400 111.381,282.400 110.624 C 282.400 109.867,282.220 109.136,282.000 109.000 C 281.780 108.864,281.600 108.133,281.600 107.376 C 281.600 106.619,281.420 106.000,281.200 106.000 C 280.980 106.000,280.800 105.460,280.800 104.800 C 280.800 104.140,280.620 103.600,280.400 103.600 C 280.180 103.600,280.000 103.060,280.000 102.400 C 280.000 101.710,279.788 101.197,279.500 101.194 C 279.167 101.190,279.200 101.058,279.600 100.800 C 280.000 100.542,280.033 100.410,279.700 100.406 C 279.412 100.403,279.200 99.890,279.200 99.200 C 279.200 98.540,279.020 98.000,278.800 98.000 C 278.580 98.000,278.400 97.460,278.400 96.800 C 278.400 96.140,278.220 95.600,278.000 95.600 C 277.780 95.600,277.600 95.139,277.600 94.576 C 277.600 93.996,277.427 93.660,277.200 93.800 C 276.967 93.944,276.800 93.537,276.800 92.824 C 276.800 92.151,276.620 91.600,276.400 91.600 C 276.180 91.600,276.000 91.150,276.000 90.600 C 276.000 90.050,275.820 89.600,275.600 89.600 C 275.380 89.600,275.199 89.105,275.198 88.500 C 275.196 87.895,274.926 86.884,274.598 86.254 C 274.269 85.624,274.000 84.859,274.000 84.554 C 274.000 84.249,273.820 84.000,273.600 84.000 C 273.380 84.000,273.200 83.645,273.200 83.212 C 273.200 82.779,272.840 81.783,272.400 81.000 C 271.960 80.217,271.600 79.311,271.600 78.988 C 271.600 78.665,271.420 78.400,271.200 78.400 C 270.980 78.400,270.800 78.130,270.800 77.800 C 270.800 77.470,270.620 77.200,270.400 77.200 C 270.180 77.200,270.000 76.966,270.000 76.680 C 270.000 75.944,269.059 74.007,268.700 74.003 C 268.535 74.001,268.400 73.640,268.400 73.200 C 268.400 72.760,268.220 72.400,268.000 72.400 C 267.780 72.400,267.600 72.040,267.600 71.600 C 267.600 71.160,267.420 70.800,267.200 70.800 C 266.980 70.800,266.800 70.440,266.800 70.000 C 266.800 69.560,266.620 69.200,266.400 69.200 C 266.180 69.200,266.000 68.922,266.000 68.583 C 266.000 68.244,265.640 67.580,265.200 67.108 C 264.760 66.636,264.400 66.013,264.400 65.725 C 264.400 65.436,264.220 65.200,264.000 65.200 C 263.780 65.200,263.600 64.840,263.600 64.400 C 263.600 63.960,263.420 63.600,263.200 63.600 C 262.980 63.600,262.800 63.364,262.800 63.075 C 262.800 62.787,262.440 62.164,262.000 61.692 C 261.560 61.220,261.197 60.601,261.194 60.317 C 261.190 59.950,261.075 59.974,260.800 60.400 C 260.469 60.912,260.411 60.896,260.406 60.295 C 260.400 59.640,259.684 58.061,259.183 57.600 C 259.063 57.490,258.433 56.545,257.783 55.501 C 257.132 54.456,256.465 53.601,256.300 53.601 C 256.135 53.600,256.000 53.357,256.000 53.059 C 256.000 52.762,255.460 51.954,254.800 51.263 C 254.140 50.572,253.600 49.844,253.600 49.644 C 253.600 49.444,252.700 48.362,251.600 47.239 C 250.500 46.115,249.600 45.083,249.600 44.945 C 249.600 44.806,247.755 42.832,245.500 40.557 C 243.245 38.282,240.660 35.651,239.755 34.710 C 238.000 32.885,236.523 31.600,236.182 31.600 C 236.067 31.600,235.343 30.970,234.573 30.200 C 233.293 28.920,232.739 28.620,231.900 28.753 C 231.735 28.779,231.592 28.575,231.581 28.300 C 231.560 27.725,228.766 25.408,228.270 25.555 C 228.088 25.609,227.617 25.281,227.223 24.826 C 226.829 24.372,226.256 24.000,225.949 24.000 C 225.643 24.000,225.168 23.640,224.893 23.200 C 224.618 22.760,224.207 22.400,223.980 22.400 C 223.753 22.400,223.180 22.040,222.708 21.600 C 222.236 21.160,221.613 20.800,221.325 20.800 C 221.036 20.800,220.800 20.620,220.800 20.400 C 220.800 20.180,220.564 20.000,220.275 20.000 C 219.987 20.000,219.364 19.640,218.892 19.200 C 218.420 18.760,217.756 18.400,217.417 18.400 C 217.078 18.400,216.800 18.220,216.800 18.000 C 216.800 17.780,216.440 17.600,216.000 17.600 C 215.560 17.600,215.200 17.420,215.200 17.200 C 215.200 16.980,214.840 16.800,214.400 16.800 C 213.960 16.800,213.600 16.620,213.600 16.400 C 213.600 16.180,213.229 16.000,212.776 16.000 C 212.323 16.000,212.064 15.820,212.200 15.600 C 212.342 15.371,211.982 15.200,211.357 15.200 C 210.757 15.200,210.378 15.088,210.515 14.952 C 210.746 14.721,209.220 13.909,204.800 11.912 C 203.810 11.465,202.640 10.959,202.200 10.789 C 201.760 10.619,200.536 10.097,199.480 9.629 C 198.424 9.160,197.402 8.875,197.208 8.995 C 197.014 9.115,196.742 9.030,196.604 8.807 C 196.466 8.583,195.823 8.400,195.176 8.400 C 194.529 8.400,194.000 8.220,194.000 8.000 C 194.000 7.780,193.460 7.600,192.800 7.600 C 192.140 7.600,191.600 7.420,191.600 7.200 C 191.600 6.980,191.161 6.800,190.624 6.800 C 190.087 6.800,189.536 6.620,189.400 6.400 C 189.264 6.180,188.533 6.000,187.776 6.000 C 187.019 6.000,186.400 5.820,186.400 5.600 C 186.400 5.380,185.860 5.200,185.200 5.200 C 184.540 5.200,184.000 5.020,184.000 4.800 C 184.000 4.580,183.291 4.400,182.424 4.400 C 181.557 4.400,180.736 4.220,180.600 4.000 C 180.464 3.780,179.553 3.600,178.576 3.600 C 177.599 3.600,176.800 3.420,176.800 3.200 C 176.800 2.980,176.001 2.800,175.024 2.800 C 174.047 2.800,173.136 2.620,173.000 2.400 C 172.864 2.180,171.773 2.000,170.576 2.000 C 169.379 2.000,168.400 1.820,168.400 1.600 C 168.400 1.372,167.211 1.200,165.633 1.200 C 164.112 1.200,162.807 1.022,162.733 0.803 C 162.593 0.385,144.527 -0.117,142.900 0.252 M242.000 68.351 C 242.000 68.764,242.289 69.342,242.642 69.635 C 242.995 69.927,243.444 70.535,243.641 70.984 C 244.107 72.050,244.832 73.165,245.700 74.154 C 246.085 74.592,246.400 75.187,246.400 75.475 C 246.400 75.764,246.580 76.000,246.800 76.000 C 247.020 76.000,247.200 76.360,247.200 76.800 C 247.200 77.240,247.380 77.600,247.600 77.600 C 247.820 77.600,248.000 77.836,248.000 78.125 C 248.000 78.413,248.360 79.036,248.800 79.508 C 249.240 79.980,249.600 80.644,249.600 80.983 C 249.600 81.322,249.780 81.600,250.000 81.600 C 250.220 81.600,250.400 81.960,250.400 82.400 C 250.400 82.840,250.580 83.200,250.800 83.200 C 251.020 83.200,251.200 83.560,251.200 84.000 C 251.200 84.440,251.380 84.800,251.600 84.800 C 251.820 84.800,252.000 85.160,252.000 85.600 C 252.000 86.040,252.180 86.400,252.400 86.400 C 252.620 86.400,252.800 86.749,252.800 87.176 C 252.800 87.603,252.980 88.064,253.200 88.200 C 253.420 88.336,253.600 88.797,253.600 89.224 C 253.600 89.651,253.780 90.000,254.000 90.000 C 254.220 90.000,254.400 90.360,254.400 90.800 C 254.400 91.240,254.580 91.600,254.800 91.600 C 255.020 91.600,255.200 91.960,255.200 92.400 C 255.200 92.840,255.380 93.200,255.600 93.200 C 255.820 93.200,256.000 93.740,256.000 94.400 C 256.000 95.060,256.180 95.600,256.400 95.600 C 256.620 95.600,256.800 95.960,256.800 96.400 C 256.800 96.840,256.980 97.200,257.200 97.200 C 257.420 97.200,257.600 97.740,257.600 98.400 C 257.600 99.060,257.756 99.600,257.947 99.600 C 258.138 99.600,258.390 100.275,258.507 101.100 C 258.624 101.925,258.946 103.140,259.224 103.800 C 259.501 104.460,259.695 105.211,259.654 105.470 C 259.612 105.728,259.764 106.054,259.989 106.193 C 260.215 106.333,260.400 106.977,260.400 107.624 C 260.400 108.271,260.580 108.800,260.800 108.800 C 261.020 108.800,261.200 109.419,261.200 110.176 C 261.200 110.933,261.360 111.652,261.556 111.773 C 261.751 111.894,262.008 112.579,262.127 113.296 C 262.245 114.013,262.550 115.410,262.804 116.400 C 263.057 117.390,263.360 118.876,263.475 119.703 C 263.590 120.529,263.845 121.305,264.042 121.426 C 264.239 121.548,264.400 122.447,264.400 123.424 C 264.400 124.401,264.580 125.200,264.800 125.200 C 265.378 125.200,265.293 128.370,264.700 128.929 C 264.424 129.189,263.264 129.368,262.106 129.328 C 260.954 129.289,259.909 129.424,259.782 129.628 C 259.656 129.833,259.191 130.000,258.748 130.000 C 258.305 130.000,257.670 130.273,257.337 130.606 C 256.862 131.081,256.117 131.162,253.866 130.983 C 251.914 130.828,251.185 130.881,251.581 131.151 C 251.900 131.369,252.333 131.441,252.543 131.312 C 252.752 131.182,252.811 131.258,252.674 131.481 C 252.531 131.712,251.545 131.800,250.370 131.687 C 248.906 131.547,248.219 131.645,247.982 132.028 C 247.783 132.351,247.078 132.528,246.225 132.471 C 245.441 132.418,244.800 132.561,244.800 132.787 C 244.800 133.014,244.451 133.200,244.024 133.200 C 243.597 133.200,243.136 133.380,243.000 133.600 C 242.864 133.820,242.043 134.000,241.176 134.000 C 240.309 134.000,239.600 134.180,239.600 134.400 C 239.600 134.620,239.465 134.799,239.300 134.797 C 238.853 134.792,238.000 132.774,238.000 131.720 C 238.000 131.214,237.820 130.800,237.600 130.800 C 237.380 130.800,237.200 130.361,237.200 129.824 C 237.200 129.287,237.020 128.736,236.800 128.600 C 236.580 128.464,236.400 127.913,236.400 127.376 C 236.400 126.839,236.220 126.400,236.000 126.400 C 235.780 126.400,235.600 126.040,235.600 125.600 C 235.600 125.160,235.420 124.800,235.200 124.800 C 234.980 124.800,234.800 124.451,234.800 124.024 C 234.800 123.597,234.620 123.136,234.400 123.000 C 234.180 122.864,234.000 122.403,234.000 121.976 C 234.000 121.549,233.820 121.200,233.600 121.200 C 233.380 121.200,233.200 120.840,233.200 120.400 C 233.200 119.960,233.054 119.600,232.875 119.600 C 232.696 119.600,232.302 118.970,232.000 118.200 C 231.698 117.430,231.304 116.800,231.125 116.800 C 230.946 116.800,230.800 116.440,230.800 116.000 C 230.800 115.560,230.620 115.200,230.400 115.200 C 230.180 115.200,230.000 114.922,230.000 114.583 C 230.000 114.244,229.640 113.580,229.200 113.108 C 228.760 112.636,228.400 112.013,228.400 111.725 C 228.400 111.436,228.220 111.200,228.000 111.200 C 227.780 111.200,227.600 110.930,227.600 110.600 C 227.600 110.270,227.465 110.000,227.300 109.999 C 227.135 109.999,226.465 109.144,225.812 108.099 C 225.158 107.055,224.393 105.962,224.112 105.671 C 223.830 105.381,223.600 104.980,223.600 104.782 C 223.600 104.583,222.835 103.640,221.900 102.686 C 220.965 101.732,220.148 100.717,220.085 100.431 C 220.022 100.145,218.332 98.309,216.329 96.352 L 212.687 92.792 213.643 92.003 C 214.170 91.570,214.791 91.056,215.025 90.862 C 215.259 90.667,215.889 90.276,216.425 89.991 C 216.961 89.707,217.670 89.179,218.000 88.818 C 218.330 88.457,219.230 87.728,220.000 87.196 C 220.770 86.665,221.877 85.729,222.460 85.115 C 223.044 84.502,223.636 84.000,223.778 84.000 C 223.919 84.000,225.459 82.560,227.200 80.800 C 228.941 79.040,230.566 77.600,230.811 77.600 C 231.579 77.600,232.474 76.497,231.896 76.264 C 231.605 76.146,231.689 76.050,232.102 76.032 C 232.836 75.999,240.143 69.209,239.806 68.873 C 239.547 68.613,240.870 67.629,241.500 67.613 C 241.775 67.606,242.000 67.938,242.000 68.351 M109.000 72.999 C 110.100 73.152,111.171 73.440,111.380 73.639 C 111.589 73.837,112.343 74.000,113.056 74.000 C 113.769 74.000,114.464 74.180,114.600 74.400 C 114.736 74.620,115.276 74.800,115.800 74.800 C 116.324 74.800,116.864 74.980,117.000 75.200 C 117.136 75.420,117.676 75.600,118.200 75.600 C 118.724 75.600,119.264 75.780,119.400 76.000 C 119.536 76.220,119.997 76.400,120.424 76.400 C 120.851 76.400,121.200 76.580,121.200 76.800 C 121.200 77.020,121.472 77.200,121.804 77.200 C 122.364 77.200,128.752 80.300,129.200 80.789 C 129.310 80.909,130.068 81.358,130.885 81.786 C 136.736 84.856,148.222 95.367,154.721 103.600 C 158.996 109.016,159.132 109.197,159.913 110.500 C 160.276 111.105,160.714 111.600,160.886 111.600 C 161.059 111.600,161.200 111.870,161.200 112.200 C 161.200 112.530,161.380 112.800,161.600 112.800 C 161.820 112.800,162.000 112.997,162.000 113.238 C 162.000 113.479,162.339 114.154,162.753 114.738 C 173.139 129.379,172.313 145.871,160.879 152.171 C 156.609 154.524,152.215 156.400,150.975 156.400 C 150.465 156.400,149.948 156.560,149.827 156.756 C 149.706 156.951,149.021 157.214,148.304 157.339 C 147.587 157.464,146.010 157.759,144.800 157.995 C 137.980 159.323,124.908 159.731,117.400 158.850 C 110.632 158.057,109.800 157.922,109.420 157.561 C 109.211 157.363,108.683 157.200,108.247 157.200 C 106.157 157.200,94.111 152.638,87.000 149.154 C 84.800 148.076,82.775 147.196,82.500 147.197 C 82.225 147.199,82.000 147.041,82.000 146.847 C 82.000 146.652,81.685 146.393,81.300 146.271 C 80.364 145.975,78.234 144.676,78.067 144.300 C 77.993 144.135,77.756 144.000,77.539 144.000 C 77.155 144.000,73.600 141.706,73.200 141.200 C 73.090 141.061,72.100 140.336,71.000 139.589 C 66.204 136.331,58.400 126.793,58.400 124.188 C 58.400 123.865,58.220 123.600,58.000 123.600 C 57.780 123.600,57.600 123.161,57.600 122.624 C 57.600 122.087,57.440 121.548,57.244 121.427 C 55.920 120.609,55.913 99.605,57.237 98.220 C 57.437 98.011,57.600 97.257,57.600 96.544 C 57.600 95.831,57.780 95.136,58.000 95.000 C 58.220 94.864,58.400 94.401,58.400 93.971 C 58.400 93.541,58.560 92.877,58.756 92.495 C 58.952 92.113,59.536 90.900,60.053 89.800 C 61.943 85.778,72.681 77.200,75.825 77.200 C 76.141 77.200,76.400 77.020,76.400 76.800 C 76.400 76.580,76.749 76.400,77.176 76.400 C 77.603 76.400,78.064 76.220,78.200 76.000 C 78.336 75.780,78.887 75.600,79.424 75.600 C 79.961 75.600,80.400 75.420,80.400 75.200 C 80.400 74.980,80.929 74.800,81.576 74.800 C 82.223 74.800,82.864 74.620,83.000 74.400 C 83.136 74.180,83.766 74.000,84.400 74.000 C 85.034 74.000,85.664 73.820,85.800 73.600 C 85.936 73.380,86.802 73.197,87.724 73.194 C 88.646 73.191,89.670 73.009,90.000 72.791 C 90.653 72.360,105.581 72.523,109.000 72.999 M303.000 136.328 C 304.320 136.556,306.259 136.870,307.309 137.024 C 308.359 137.179,309.315 137.462,309.433 137.653 C 309.551 137.844,309.978 138.000,310.383 138.000 C 314.103 138.000,319.196 143.250,319.199 147.088 C 319.202 151.386,311.056 161.944,307.700 161.993 C 307.425 161.997,307.200 162.154,307.200 162.342 C 307.200 162.877,300.222 166.222,296.600 167.423 C 289.592 169.747,278.699 169.804,266.800 167.578 C 265.590 167.352,264.013 167.064,263.296 166.939 C 262.579 166.814,261.894 166.551,261.773 166.356 C 261.652 166.160,261.111 166.000,260.571 166.000 C 260.031 166.000,259.277 165.841,258.895 165.647 C 258.513 165.452,257.660 165.068,257.000 164.793 C 254.873 163.907,253.805 163.406,253.600 163.200 C 253.490 163.089,252.910 162.746,252.311 162.437 C 245.315 158.833,244.152 149.922,249.993 144.688 C 252.077 142.821,254.875 141.200,256.014 141.200 C 256.420 141.200,256.864 141.020,257.000 140.800 C 257.136 140.580,257.676 140.400,258.200 140.400 C 258.724 140.400,259.264 140.220,259.400 140.000 C 259.536 139.780,260.166 139.600,260.800 139.600 C 261.434 139.600,262.052 139.440,262.173 139.244 C 262.294 139.049,262.979 138.792,263.696 138.673 C 264.413 138.555,265.810 138.254,266.800 138.004 C 269.451 137.335,272.232 136.839,275.515 136.449 C 277.118 136.259,278.551 135.982,278.699 135.834 C 279.109 135.424,300.262 135.854,303.000 136.328 " stroke="none" fill="#6b4c23" fill-rule="evenodd"></path><path id="path3" d="M92.600 73.594 C 91.060 73.776,88.810 74.135,87.600 74.391 C 86.390 74.647,84.725 74.952,83.900 75.070 C 83.075 75.188,82.400 75.445,82.400 75.642 C 82.400 75.839,81.860 76.000,81.200 76.000 C 80.540 76.000,80.000 76.180,80.000 76.400 C 80.000 76.620,79.651 76.800,79.224 76.800 C 78.797 76.800,78.336 76.980,78.200 77.200 C 78.064 77.420,77.513 77.600,76.976 77.600 C 76.439 77.600,76.000 77.746,76.000 77.925 C 76.000 78.104,75.370 78.498,74.600 78.800 C 73.830 79.102,73.200 79.452,73.200 79.577 C 73.200 79.702,72.705 80.028,72.100 80.301 C 67.759 82.257,60.400 89.487,60.400 91.795 C 60.400 92.128,60.220 92.400,60.000 92.400 C 59.780 92.400,59.600 92.839,59.600 93.376 C 59.600 93.913,59.440 94.452,59.244 94.573 C 59.049 94.694,58.801 95.379,58.695 96.096 C 58.588 96.813,58.200 99.018,57.832 100.996 C 57.031 105.300,56.790 116.783,57.463 118.600 C 57.707 119.260,58.139 120.610,58.423 121.600 C 58.707 122.590,59.088 123.571,59.270 123.780 C 59.451 123.989,59.600 124.484,59.600 124.880 C 59.600 125.276,59.780 125.600,60.000 125.600 C 60.220 125.600,60.400 125.836,60.400 126.125 C 60.400 126.413,60.760 127.036,61.200 127.508 C 61.640 127.980,62.000 128.519,62.000 128.705 C 62.000 129.650,69.699 137.404,72.829 139.611 C 73.583 140.143,74.549 140.898,74.975 141.289 C 75.402 141.680,75.972 142.000,76.242 142.000 C 76.512 142.000,76.793 142.135,76.867 142.300 C 76.940 142.465,77.810 143.037,78.800 143.570 C 79.790 144.104,80.690 144.644,80.800 144.770 C 81.125 145.144,90.656 149.699,93.500 150.839 C 93.995 151.038,94.895 151.404,95.500 151.654 C 96.105 151.903,97.050 152.284,97.600 152.500 C 98.150 152.716,98.913 153.052,99.295 153.247 C 99.677 153.441,100.341 153.600,100.771 153.600 C 101.201 153.600,101.664 153.780,101.800 154.000 C 101.936 154.220,102.487 154.400,103.024 154.400 C 103.561 154.400,104.000 154.580,104.000 154.800 C 104.000 155.020,104.439 155.200,104.976 155.200 C 105.513 155.200,106.064 155.380,106.200 155.600 C 106.336 155.820,106.977 156.000,107.624 156.000 C 108.271 156.000,108.800 156.180,108.800 156.400 C 108.800 156.620,109.664 156.800,110.720 156.800 C 111.776 156.800,112.811 156.966,113.020 157.169 C 114.288 158.400,140.665 158.434,143.400 157.208 C 143.840 157.011,144.875 156.748,145.700 156.625 C 149.057 156.122,150.018 155.895,150.227 155.556 C 150.348 155.360,150.799 155.200,151.229 155.200 C 151.659 155.200,152.323 155.041,152.705 154.847 C 153.087 154.652,153.850 154.316,154.400 154.100 C 160.740 151.608,167.600 145.642,167.600 142.622 C 167.600 142.280,167.760 142.000,167.956 142.000 C 168.758 142.000,169.567 133.007,168.832 132.272 C 168.594 132.034,168.400 131.167,168.400 130.344 C 168.400 129.521,168.220 128.736,168.000 128.600 C 167.780 128.464,167.600 128.001,167.600 127.571 C 167.600 127.141,167.435 126.477,167.233 126.095 C 166.730 125.143,165.200 121.646,165.200 121.447 C 165.200 121.204,161.497 114.630,161.230 114.400 C 161.103 114.290,160.744 113.705,160.432 113.100 C 160.120 112.495,159.715 112.000,159.532 112.000 C 159.350 112.000,159.200 111.764,159.200 111.475 C 159.200 111.187,158.880 110.602,158.489 110.175 C 158.098 109.749,157.337 108.770,156.798 108.000 C 156.259 107.230,155.453 106.218,155.009 105.750 C 154.564 105.283,153.930 104.560,153.600 104.145 C 151.740 101.802,150.371 100.224,147.258 96.831 C 145.356 94.757,143.530 92.837,143.200 92.562 C 139.450 89.445,135.022 86.036,132.600 84.402 C 131.500 83.660,130.510 82.951,130.400 82.826 C 130.059 82.440,127.837 81.162,127.100 80.929 C 126.715 80.807,126.400 80.548,126.400 80.353 C 126.400 80.159,126.040 80.000,125.600 80.000 C 125.160 80.000,124.800 79.820,124.800 79.600 C 124.800 79.380,124.440 79.200,124.000 79.200 C 123.560 79.200,123.200 79.020,123.200 78.800 C 123.200 78.580,122.928 78.400,122.595 78.400 C 122.262 78.400,121.632 78.220,121.195 78.000 C 120.758 77.780,120.042 77.420,119.605 77.200 C 119.168 76.980,118.448 76.800,118.005 76.800 C 117.562 76.800,117.200 76.620,117.200 76.400 C 117.200 76.180,116.660 76.000,116.000 76.000 C 115.340 76.000,114.800 75.839,114.800 75.642 C 114.800 75.445,114.125 75.192,113.300 75.079 C 112.475 74.966,110.463 74.590,108.830 74.243 C 105.257 73.485,96.475 73.134,92.600 73.594 M284.800 136.820 C 283.810 136.997,281.740 137.158,280.200 137.178 C 277.109 137.220,270.671 138.298,264.400 139.824 C 262.970 140.172,261.303 140.554,260.695 140.674 C 260.087 140.794,259.492 141.051,259.371 141.246 C 259.251 141.441,258.724 141.600,258.200 141.600 C 257.676 141.600,257.136 141.780,257.000 142.000 C 256.864 142.220,256.409 142.400,255.989 142.400 C 254.068 142.400,249.569 146.097,248.446 148.600 C 248.149 149.260,247.748 150.113,247.553 150.495 C 247.069 151.447,247.106 155.200,247.600 155.200 C 247.820 155.200,248.000 155.472,248.000 155.805 C 248.000 159.412,255.680 163.885,265.600 166.054 C 274.698 168.043,292.052 168.734,293.034 167.146 C 293.151 166.955,293.766 166.800,294.400 166.800 C 295.034 166.800,295.664 166.620,295.800 166.400 C 295.936 166.180,296.399 166.000,296.829 166.000 C 297.259 166.000,297.923 165.841,298.305 165.648 C 301.260 164.149,305.155 162.400,305.537 162.400 C 305.791 162.400,306.000 162.250,306.000 162.068 C 306.000 161.885,306.492 161.480,307.094 161.168 C 308.180 160.604,309.203 159.861,310.216 158.900 C 310.506 158.625,310.866 158.400,311.017 158.400 C 311.262 158.400,312.298 157.294,315.073 154.073 C 320.907 147.300,317.673 140.552,307.600 138.480 C 303.710 137.679,303.121 137.608,295.400 137.005 C 287.088 136.356,287.379 136.361,284.800 136.820 " stroke="none" fill="#866840" fill-rule="evenodd"></path><path id="path4" d="M102.598 53.203 C 102.521 53.328,102.895 53.466,103.429 53.511 C 103.963 53.555,104.400 53.424,104.400 53.220 C 104.400 52.829,102.839 52.813,102.598 53.203 M114.300 53.082 C 114.795 53.178,115.605 53.178,116.100 53.082 C 116.595 52.987,116.190 52.909,115.200 52.909 C 114.210 52.909,113.805 52.987,114.300 53.082 M122.559 53.267 C 122.445 53.450,122.723 53.600,123.176 53.600 C 123.629 53.600,124.000 53.450,124.000 53.267 C 124.000 53.083,123.722 52.933,123.382 52.933 C 123.043 52.933,122.672 53.083,122.559 53.267 M139.600 55.600 C 139.115 55.914,139.172 55.989,139.900 55.994 C 140.395 55.997,140.800 55.820,140.800 55.600 C 140.800 55.099,140.376 55.099,139.600 55.600 M76.400 58.800 C 75.915 59.114,75.972 59.189,76.700 59.194 C 77.195 59.197,77.600 59.020,77.600 58.800 C 77.600 58.299,77.176 58.299,76.400 58.800 M74.048 59.385 C 72.991 59.767,72.844 59.931,73.377 60.136 C 74.128 60.424,75.600 59.795,75.600 59.186 C 75.600 58.974,75.555 58.821,75.500 58.848 C 75.445 58.874,74.791 59.116,74.048 59.385 M157.377 60.438 C 157.254 60.637,157.419 60.800,157.744 60.800 C 158.069 60.800,158.649 60.921,159.033 61.068 C 159.472 61.236,159.635 61.180,159.472 60.916 C 159.111 60.332,157.648 59.998,157.377 60.438 M70.800 61.000 C 69.997 61.459,69.944 61.574,70.529 61.586 C 70.929 61.594,71.527 61.330,71.857 61.000 C 72.608 60.249,72.113 60.249,70.800 61.000 M59.260 67.180 C 59.348 67.444,59.550 67.647,59.710 67.630 C 60.188 67.581,60.096 67.032,59.580 66.860 C 59.316 66.772,59.172 66.916,59.260 67.180 M175.376 67.825 C 176.164 68.408,177.985 68.651,177.433 68.100 C 177.268 67.935,176.968 67.778,176.767 67.750 C 176.565 67.723,176.355 67.664,176.300 67.619 C 176.245 67.575,175.840 67.474,175.400 67.395 C 174.612 67.253,174.611 67.259,175.376 67.825 M178.432 68.620 C 178.395 69.103,179.206 70.000,179.680 70.000 C 179.856 70.000,180.000 69.820,180.000 69.600 C 180.000 69.380,179.745 69.200,179.433 69.200 C 179.122 69.200,178.776 68.975,178.665 68.700 C 178.554 68.425,178.449 68.389,178.432 68.620 M90.000 72.791 C 89.670 73.009,88.646 73.191,87.724 73.194 C 86.802 73.197,85.936 73.380,85.800 73.600 C 85.664 73.820,85.034 74.000,84.400 74.000 C 83.766 74.000,83.136 74.180,83.000 74.400 C 82.864 74.620,82.223 74.800,81.576 74.800 C 80.929 74.800,80.400 74.980,80.400 75.200 C 80.400 75.420,79.961 75.600,79.424 75.600 C 78.887 75.600,78.336 75.780,78.200 76.000 C 78.064 76.220,77.603 76.400,77.176 76.400 C 76.749 76.400,76.400 76.580,76.400 76.800 C 76.400 77.020,76.141 77.200,75.825 77.200 C 72.681 77.200,61.943 85.778,60.053 89.800 C 59.536 90.900,58.952 92.113,58.756 92.495 C 58.560 92.877,58.400 93.541,58.400 93.971 C 58.400 94.401,58.220 94.864,58.000 95.000 C 57.780 95.136,57.600 95.831,57.600 96.544 C 57.600 97.257,57.437 98.011,57.237 98.220 C 55.913 99.605,55.920 120.609,57.244 121.427 C 57.440 121.548,57.600 122.087,57.600 122.624 C 57.600 123.161,57.780 123.600,58.000 123.600 C 58.220 123.600,58.400 123.865,58.400 124.188 C 58.400 126.793,66.204 136.331,71.000 139.589 C 72.100 140.336,73.090 141.061,73.200 141.200 C 73.600 141.706,77.155 144.000,77.539 144.000 C 77.756 144.000,77.993 144.135,78.067 144.300 C 78.234 144.676,80.364 145.975,81.300 146.271 C 81.685 146.393,82.000 146.652,82.000 146.847 C 82.000 147.041,82.225 147.199,82.500 147.197 C 82.775 147.196,84.800 148.076,87.000 149.154 C 92.486 151.842,93.984 152.482,98.600 154.111 C 106.341 156.842,107.460 157.200,108.247 157.200 C 108.683 157.200,109.211 157.363,109.420 157.561 C 109.800 157.922,110.632 158.057,117.400 158.850 C 124.908 159.731,137.980 159.323,144.800 157.995 C 146.010 157.759,147.587 157.464,148.304 157.339 C 149.021 157.214,149.706 156.951,149.827 156.756 C 149.948 156.560,150.465 156.400,150.975 156.400 C 152.215 156.400,156.609 154.524,160.879 152.171 C 162.214 151.435,166.367 147.422,167.470 145.800 C 172.361 138.613,170.365 125.468,162.753 114.738 C 162.339 114.154,162.000 113.479,162.000 113.238 C 162.000 112.997,161.820 112.800,161.600 112.800 C 161.380 112.800,161.200 112.530,161.200 112.200 C 161.200 111.870,161.059 111.600,160.886 111.600 C 160.714 111.600,160.276 111.105,159.913 110.500 C 159.132 109.197,158.996 109.016,154.721 103.600 C 148.222 95.367,136.736 84.856,130.885 81.786 C 130.068 81.358,129.310 80.909,129.200 80.789 C 128.752 80.300,122.364 77.200,121.804 77.200 C 121.472 77.200,121.200 77.020,121.200 76.800 C 121.200 76.580,120.851 76.400,120.424 76.400 C 119.997 76.400,119.536 76.220,119.400 76.000 C 119.264 75.780,118.724 75.600,118.200 75.600 C 117.676 75.600,117.136 75.420,117.000 75.200 C 116.864 74.980,116.324 74.800,115.800 74.800 C 115.276 74.800,114.736 74.620,114.600 74.400 C 114.464 74.180,113.769 74.000,113.056 74.000 C 112.343 74.000,111.589 73.837,111.380 73.639 C 110.437 72.742,91.227 71.981,90.000 72.791 M108.830 74.243 C 110.463 74.590,112.475 74.966,113.300 75.079 C 114.125 75.192,114.800 75.445,114.800 75.642 C 114.800 75.839,115.340 76.000,116.000 76.000 C 116.660 76.000,117.200 76.180,117.200 76.400 C 117.200 76.620,117.562 76.800,118.005 76.800 C 118.448 76.800,119.168 76.980,119.605 77.200 C 120.042 77.420,120.758 77.780,121.195 78.000 C 121.632 78.220,122.262 78.400,122.595 78.400 C 122.928 78.400,123.200 78.580,123.200 78.800 C 123.200 79.020,123.560 79.200,124.000 79.200 C 124.440 79.200,124.800 79.380,124.800 79.600 C 124.800 79.820,125.160 80.000,125.600 80.000 C 126.040 80.000,126.400 80.159,126.400 80.353 C 126.400 80.548,126.715 80.807,127.100 80.929 C 127.837 81.162,130.059 82.440,130.400 82.826 C 130.510 82.951,131.500 83.660,132.600 84.402 C 135.022 86.036,139.450 89.445,143.200 92.562 C 143.530 92.837,145.356 94.757,147.258 96.831 C 150.371 100.224,151.740 101.802,153.600 104.145 C 153.930 104.560,154.564 105.283,155.009 105.750 C 155.453 106.218,156.259 107.230,156.798 108.000 C 157.337 108.770,158.098 109.749,158.489 110.175 C 158.880 110.602,159.200 111.187,159.200 111.475 C 159.200 111.764,159.350 112.000,159.532 112.000 C 159.715 112.000,160.120 112.495,160.432 113.100 C 160.744 113.705,161.103 114.290,161.230 114.400 C 161.497 114.630,165.200 121.204,165.200 121.447 C 165.200 121.646,166.730 125.143,167.233 126.095 C 167.435 126.477,167.600 127.141,167.600 127.571 C 167.600 128.001,167.780 128.464,168.000 128.600 C 168.220 128.736,168.400 129.521,168.400 130.344 C 168.400 131.167,168.594 132.034,168.832 132.272 C 169.567 133.007,168.758 142.000,167.956 142.000 C 167.760 142.000,167.600 142.280,167.600 142.622 C 167.600 145.642,160.740 151.608,154.400 154.100 C 153.850 154.316,153.087 154.652,152.705 154.847 C 152.323 155.041,151.659 155.200,151.229 155.200 C 150.799 155.200,150.348 155.360,150.227 155.556 C 150.018 155.895,149.057 156.122,145.700 156.625 C 144.875 156.748,143.840 157.011,143.400 157.208 C 140.665 158.434,114.288 158.400,113.020 157.169 C 112.811 156.966,111.776 156.800,110.720 156.800 C 109.664 156.800,108.800 156.620,108.800 156.400 C 108.800 156.180,108.271 156.000,107.624 156.000 C 106.977 156.000,106.336 155.820,106.200 155.600 C 106.064 155.380,105.513 155.200,104.976 155.200 C 104.439 155.200,104.000 155.020,104.000 154.800 C 104.000 154.580,103.561 154.400,103.024 154.400 C 102.487 154.400,101.936 154.220,101.800 154.000 C 101.664 153.780,101.201 153.600,100.771 153.600 C 100.341 153.600,99.677 153.441,99.295 153.247 C 98.913 153.052,98.150 152.716,97.600 152.500 C 97.050 152.284,96.105 151.903,95.500 151.654 C 94.895 151.404,93.995 151.038,93.500 150.839 C 90.656 149.699,81.125 145.144,80.800 144.770 C 80.690 144.644,79.790 144.104,78.800 143.570 C 77.810 143.037,76.940 142.465,76.867 142.300 C 76.793 142.135,76.512 142.000,76.242 142.000 C 75.972 142.000,75.402 141.680,74.975 141.289 C 74.549 140.898,73.583 140.143,72.829 139.611 C 69.699 137.404,62.000 129.650,62.000 128.705 C 62.000 128.519,61.640 127.980,61.200 127.508 C 60.760 127.036,60.400 126.413,60.400 126.125 C 60.400 125.836,60.220 125.600,60.000 125.600 C 59.780 125.600,59.600 125.276,59.600 124.880 C 59.600 124.484,59.451 123.989,59.270 123.780 C 59.088 123.571,58.707 122.590,58.423 121.600 C 58.139 120.610,57.707 119.260,57.463 118.600 C 56.790 116.783,57.031 105.300,57.832 100.996 C 58.200 99.018,58.588 96.813,58.695 96.096 C 58.801 95.379,59.049 94.694,59.244 94.573 C 59.440 94.452,59.600 93.913,59.600 93.376 C 59.600 92.839,59.780 92.400,60.000 92.400 C 60.220 92.400,60.400 92.128,60.400 91.795 C 60.400 89.487,67.759 82.257,72.100 80.301 C 72.705 80.028,73.200 79.702,73.200 79.577 C 73.200 79.452,73.830 79.102,74.600 78.800 C 75.370 78.498,76.000 78.104,76.000 77.925 C 76.000 77.746,76.439 77.600,76.976 77.600 C 77.513 77.600,78.064 77.420,78.200 77.200 C 78.336 76.980,78.797 76.800,79.224 76.800 C 79.651 76.800,80.000 76.620,80.000 76.400 C 80.000 76.180,80.540 76.000,81.200 76.000 C 81.860 76.000,82.400 75.839,82.400 75.642 C 82.400 75.445,83.075 75.188,83.900 75.070 C 84.725 74.952,86.390 74.647,87.600 74.391 C 93.634 73.115,103.198 73.049,108.830 74.243 M186.400 73.386 C 186.400 73.488,186.756 73.762,187.191 73.995 C 187.836 74.341,187.939 74.306,187.748 73.809 C 187.541 73.269,186.400 72.911,186.400 73.386 M188.432 74.737 C 188.414 75.033,188.760 75.369,189.200 75.484 C 189.640 75.599,190.000 75.852,190.000 76.047 C 190.000 76.241,190.208 76.400,190.462 76.400 C 190.726 76.400,190.617 76.061,190.209 75.609 C 189.815 75.175,189.353 74.906,189.181 75.012 C 189.009 75.118,188.777 74.979,188.666 74.702 C 188.512 74.322,188.456 74.330,188.432 74.737 M49.156 75.465 C 48.801 75.560,48.306 76.087,48.056 76.637 L 47.600 77.637 48.583 76.919 C 49.320 76.380,50.428 74.960,49.887 75.246 C 49.839 75.272,49.510 75.370,49.156 75.465 M191.455 76.600 C 191.582 76.930,192.037 77.200,192.466 77.200 C 192.955 77.200,193.140 77.373,192.962 77.662 C 192.785 77.948,192.852 78.015,193.138 77.838 C 193.392 77.681,193.600 77.743,193.600 77.976 C 193.600 78.209,193.902 78.400,194.271 78.400 C 194.698 78.400,194.370 77.966,193.371 77.211 C 191.607 75.877,191.118 75.720,191.455 76.600 M45.200 79.491 C 45.200 79.725,44.753 80.340,44.207 80.858 C 43.661 81.376,43.211 81.948,43.207 82.129 C 43.203 82.309,43.483 82.174,43.829 81.829 C 44.174 81.483,44.612 81.200,44.802 81.200 C 45.231 81.200,45.758 79.625,45.437 79.303 C 45.306 79.173,45.200 79.258,45.200 79.491 M40.460 85.980 C 40.548 86.244,40.751 86.447,40.910 86.430 C 41.388 86.381,41.296 85.832,40.780 85.660 C 40.516 85.572,40.372 85.716,40.460 85.980 M33.388 126.820 C 33.007 127.435,33.528 127.832,34.042 127.318 C 34.329 127.031,34.336 126.807,34.062 126.639 C 33.839 126.500,33.535 126.582,33.388 126.820 M288.713 127.095 C 289.876 127.176,291.676 127.176,292.713 127.093 C 293.751 127.011,292.800 126.945,290.600 126.946 C 288.400 126.947,287.551 127.014,288.713 127.095 M296.000 127.132 C 296.000 127.363,296.180 127.664,296.400 127.800 C 296.620 127.936,296.800 127.844,296.800 127.597 C 296.800 127.175,297.173 127.225,299.200 127.914 C 299.613 128.054,299.675 127.984,299.400 127.690 C 298.823 127.073,296.000 126.610,296.000 127.132 M305.600 127.751 C 305.600 128.474,306.762 128.724,307.247 128.105 C 307.749 127.465,307.735 127.451,307.100 127.949 C 306.642 128.308,306.400 128.343,306.400 128.049 C 306.400 127.802,306.220 127.600,306.000 127.600 C 305.780 127.600,305.600 127.668,305.600 127.751 M34.500 128.832 C 34.885 129.056,35.200 129.533,35.200 129.891 C 35.200 130.250,35.376 131.096,35.591 131.772 C 37.672 138.304,37.638 138.207,38.917 141.200 C 40.494 144.889,41.271 146.463,41.433 146.300 C 41.531 146.202,41.141 145.059,40.567 143.761 C 39.993 142.462,39.283 140.860,38.991 140.200 C 38.699 139.540,38.023 137.650,37.490 136.000 C 36.661 133.433,36.284 132.174,35.365 128.900 C 35.288 128.625,34.904 128.405,34.513 128.412 C 33.837 128.424,33.837 128.446,34.500 128.832 M315.075 128.658 C 314.553 129.180,314.802 129.600,315.633 129.600 C 316.099 129.600,316.397 129.390,316.308 129.125 C 316.113 128.540,315.446 128.288,315.075 128.658 M255.649 130.686 C 255.272 131.089,255.294 131.200,255.752 131.200 C 256.554 131.200,257.600 130.772,257.600 130.443 C 257.600 129.970,256.149 130.150,255.649 130.686 M278.699 135.834 C 278.551 135.982,277.118 136.259,275.515 136.449 C 272.232 136.839,269.451 137.335,266.800 138.004 C 265.810 138.254,264.413 138.555,263.696 138.673 C 262.979 138.792,262.294 139.049,262.173 139.244 C 262.052 139.440,261.434 139.600,260.800 139.600 C 260.166 139.600,259.536 139.780,259.400 140.000 C 259.264 140.220,258.724 140.400,258.200 140.400 C 257.676 140.400,257.136 140.580,257.000 140.800 C 256.864 141.020,256.420 141.200,256.014 141.200 C 254.875 141.200,252.077 142.821,249.993 144.688 C 244.152 149.922,245.315 158.833,252.311 162.437 C 252.910 162.746,253.490 163.089,253.600 163.200 C 253.805 163.406,254.873 163.907,257.000 164.793 C 257.660 165.068,258.513 165.452,258.895 165.647 C 259.277 165.841,260.031 166.000,260.571 166.000 C 261.111 166.000,261.652 166.160,261.773 166.356 C 261.894 166.551,262.579 166.814,263.296 166.939 C 264.013 167.064,265.590 167.352,266.800 167.578 C 278.699 169.804,289.592 169.747,296.600 167.423 C 300.222 166.222,307.200 162.877,307.200 162.342 C 307.200 162.154,307.425 161.997,307.700 161.993 C 311.056 161.944,319.202 151.386,319.199 147.088 C 319.196 143.250,314.103 138.000,310.383 138.000 C 309.978 138.000,309.551 137.844,309.433 137.653 C 309.315 137.462,308.359 137.179,307.309 137.024 C 306.259 136.870,304.320 136.556,303.000 136.328 C 300.262 135.854,279.109 135.424,278.699 135.834 M295.400 137.005 C 316.488 138.651,323.281 144.545,315.073 154.073 C 312.298 157.294,311.262 158.400,311.017 158.400 C 310.866 158.400,310.506 158.625,310.216 158.900 C 309.203 159.861,308.180 160.604,307.094 161.168 C 306.492 161.480,306.000 161.885,306.000 162.068 C 306.000 162.250,305.791 162.400,305.537 162.400 C 305.155 162.400,301.260 164.149,298.305 165.648 C 297.923 165.841,297.259 166.000,296.829 166.000 C 296.399 166.000,295.936 166.180,295.800 166.400 C 295.664 166.620,295.034 166.800,294.400 166.800 C 293.766 166.800,293.151 166.955,293.034 167.146 C 292.052 168.734,274.698 168.043,265.600 166.054 C 255.680 163.885,248.000 159.412,248.000 155.805 C 248.000 155.472,247.820 155.200,247.600 155.200 C 247.106 155.200,247.069 151.447,247.553 150.495 C 247.748 150.113,248.149 149.260,248.446 148.600 C 249.569 146.097,254.068 142.400,255.989 142.400 C 256.409 142.400,256.864 142.220,257.000 142.000 C 257.136 141.780,257.676 141.600,258.200 141.600 C 258.724 141.600,259.251 141.441,259.371 141.246 C 259.492 141.051,260.087 140.794,260.695 140.674 C 261.303 140.554,262.970 140.172,264.400 139.824 C 270.671 138.298,277.109 137.220,280.200 137.178 C 281.740 137.158,283.810 136.997,284.800 136.820 C 287.379 136.361,287.088 136.356,295.400 137.005 M42.400 148.614 C 42.400 149.149,46.085 154.848,46.295 154.638 C 46.401 154.533,46.108 153.913,45.644 153.261 C 45.180 152.610,44.800 151.879,44.800 151.638 C 44.800 151.397,44.654 151.200,44.475 151.200 C 44.296 151.200,43.902 150.570,43.600 149.800 C 43.136 148.618,42.400 147.890,42.400 148.614 M46.646 155.700 C 47.581 157.293,50.057 160.788,50.404 161.002 C 50.628 161.141,49.998 160.092,49.005 158.671 C 48.012 157.251,47.200 155.889,47.200 155.644 C 47.200 155.400,47.009 155.200,46.776 155.200 C 46.543 155.200,46.485 155.425,46.646 155.700 M60.600 172.800 C 63.012 175.220,65.076 177.200,65.186 177.200 C 65.296 177.200,63.412 175.220,61.000 172.800 C 58.588 170.380,56.524 168.400,56.414 168.400 C 56.304 168.400,58.188 170.380,60.600 172.800 M120.833 207.744 C 120.925 207.823,121.540 208.008,122.200 208.156 C 123.076 208.352,123.238 208.315,122.800 208.018 C 122.260 207.653,120.432 207.398,120.833 207.744 M193.400 208.409 C 190.911 209.087,189.807 209.532,190.526 209.566 C 190.926 209.585,191.556 209.444,191.926 209.253 C 192.297 209.062,193.281 208.782,194.113 208.632 C 195.799 208.328,195.772 208.188,194.780 212.100 C 194.571 212.925,194.206 214.365,193.968 215.300 C 192.079 222.742,189.147 230.779,185.842 237.569 C 185.049 239.199,184.482 240.615,184.582 240.715 C 184.734 240.868,187.652 234.931,188.766 232.200 C 188.946 231.760,189.321 230.860,189.600 230.200 C 189.879 229.540,190.255 228.640,190.437 228.200 C 190.932 226.999,192.844 221.197,193.271 219.600 C 193.477 218.830,193.827 217.570,194.049 216.800 C 194.533 215.123,195.032 213.171,195.532 211.000 C 195.734 210.120,196.032 209.085,196.193 208.700 C 196.522 207.914,195.577 207.816,193.400 208.409 M126.833 209.344 C 126.925 209.423,127.540 209.608,128.200 209.756 C 129.076 209.952,129.238 209.915,128.800 209.618 C 128.260 209.253,126.432 208.998,126.833 209.344 M186.600 210.243 C 182.611 211.216,181.485 211.599,183.400 211.330 C 185.358 211.055,189.245 210.088,189.527 209.806 C 189.826 209.507,189.289 209.587,186.600 210.243 M135.200 211.200 C 135.750 211.376,136.560 211.520,137.000 211.520 C 137.633 211.520,137.592 211.454,136.800 211.200 C 136.250 211.024,135.440 210.880,135.000 210.880 C 134.367 210.880,134.408 210.946,135.200 211.200 M138.833 211.749 C 138.925 211.831,139.900 212.001,141.000 212.128 C 142.349 212.284,142.674 212.249,142.000 212.020 C 141.001 211.680,138.518 211.468,138.833 211.749 M178.000 212.013 C 177.354 212.229,177.780 212.266,179.200 212.119 C 180.410 211.994,181.475 211.826,181.567 211.746 C 181.887 211.465,178.991 211.683,178.000 212.013 M146.800 212.820 C 149.214 213.250,151.106 213.213,149.000 212.777 C 148.120 212.595,146.860 212.458,146.200 212.473 C 145.300 212.493,145.450 212.580,146.800 212.820 M171.000 212.800 C 169.100 213.061,169.080 213.075,170.600 213.098 C 171.480 213.110,173.190 212.984,174.400 212.817 C 176.566 212.517,176.572 212.513,174.800 212.519 C 173.810 212.523,172.100 212.649,171.000 212.800 M157.715 213.496 C 158.988 213.576,160.968 213.575,162.115 213.494 C 163.262 213.414,162.220 213.349,159.800 213.350 C 157.380 213.351,156.442 213.416,157.715 213.496 M294.000 223.182 C 291.470 223.304,295.700 223.405,303.400 223.407 C 311.823 223.408,315.568 223.309,312.800 223.157 C 307.406 222.862,300.442 222.871,294.000 223.182 M284.200 224.000 C 282.268 224.265,282.254 224.276,283.800 224.314 C 284.680 224.336,286.120 224.205,287.000 224.023 C 289.042 223.601,287.220 223.586,284.200 224.000 M320.000 223.998 C 321.824 224.345,325.873 224.527,325.567 224.248 C 325.475 224.165,323.780 223.997,321.800 223.876 C 319.207 223.718,318.703 223.752,320.000 223.998 M277.600 224.830 C 276.390 225.009,274.500 225.338,273.400 225.562 L 271.400 225.969 273.200 225.802 C 276.278 225.517,280.918 224.816,281.130 224.603 C 281.383 224.350,280.430 224.412,277.600 224.830 M330.600 225.184 C 331.700 225.369,333.680 225.619,335.000 225.740 L 337.400 225.959 335.400 225.591 C 334.300 225.389,332.320 225.139,331.000 225.036 C 328.614 224.850,328.612 224.850,330.600 225.184 M268.445 226.432 C 267.479 226.622,266.586 226.881,266.460 227.007 C 266.163 227.304,269.553 226.779,270.600 226.366 C 271.628 225.961,270.702 225.989,268.445 226.432 M338.200 226.397 C 338.964 226.728,341.914 226.955,341.567 226.656 C 341.475 226.577,340.500 226.409,339.400 226.282 C 338.113 226.133,337.685 226.174,338.200 226.397 M342.600 227.156 C 343.040 227.335,344.210 227.592,345.200 227.726 C 346.275 227.872,346.678 227.839,346.200 227.644 C 345.760 227.465,344.590 227.208,343.600 227.074 C 342.525 226.928,342.122 226.961,342.600 227.156 M262.800 227.597 C 262.250 227.780,261.284 228.045,260.653 228.184 C 260.022 228.324,259.585 228.519,259.683 228.616 C 259.780 228.713,260.836 228.541,262.030 228.233 C 263.223 227.924,264.650 227.591,265.200 227.491 C 266.085 227.330,266.063 227.306,265.000 227.286 C 264.340 227.273,263.350 227.413,262.800 227.597 M350.000 228.825 C 351.650 229.244,353.171 229.532,353.380 229.467 C 353.838 229.322,348.452 227.984,347.600 228.031 C 347.270 228.049,348.350 228.406,350.000 228.825 M256.400 229.188 C 255.850 229.367,254.355 229.823,253.078 230.201 C 251.800 230.579,250.824 230.957,250.907 231.041 C 250.991 231.124,252.576 230.760,254.430 230.231 C 256.283 229.702,258.160 229.184,258.600 229.081 C 259.237 228.931,259.196 228.890,258.400 228.878 C 257.850 228.870,256.950 229.009,256.400 229.188 M354.033 229.743 C 354.125 229.821,354.830 230.001,355.600 230.142 C 356.585 230.323,356.822 230.282,356.400 230.006 C 355.858 229.650,353.637 229.403,354.033 229.743 M358.000 230.800 C 359.542 231.294,360.364 231.294,359.600 230.800 C 359.270 230.587,358.550 230.427,358.000 230.446 L 357.000 230.480 358.000 230.800 M360.833 231.344 C 360.925 231.423,361.540 231.608,362.200 231.756 C 363.076 231.952,363.238 231.915,362.800 231.618 C 362.260 231.253,360.432 230.998,360.833 231.344 M244.800 232.820 C 242.462 233.777,243.597 233.761,246.200 232.800 C 247.300 232.394,247.840 232.067,247.400 232.072 C 246.960 232.078,245.790 232.414,244.800 232.820 M364.600 232.400 C 365.796 232.914,366.795 232.914,366.000 232.400 C 365.670 232.187,365.040 232.022,364.600 232.034 L 363.800 232.056 364.600 232.400 M367.800 233.200 C 368.240 233.389,368.960 233.544,369.400 233.544 L 370.200 233.544 369.400 233.200 C 368.960 233.011,368.240 232.856,367.800 232.856 L 367.000 232.856 367.800 233.200 M371.000 234.000 C 371.440 234.189,372.070 234.344,372.400 234.344 C 372.778 234.344,372.704 234.217,372.200 234.000 C 371.760 233.811,371.130 233.656,370.800 233.656 C 370.422 233.656,370.496 233.783,371.000 234.000 M239.200 234.800 C 238.667 235.145,238.667 235.188,239.200 235.188 C 239.530 235.188,240.070 235.013,240.400 234.800 C 240.933 234.455,240.933 234.412,240.400 234.412 C 240.070 234.412,239.530 234.587,239.200 234.800 M374.200 234.800 C 374.640 234.989,375.360 235.138,375.800 235.132 C 376.443 235.123,376.404 235.057,375.600 234.800 C 374.232 234.362,373.181 234.362,374.200 234.800 M378.481 235.705 C 379.605 235.929,380.794 235.935,381.438 235.721 C 382.273 235.442,381.851 235.358,379.557 235.346 C 376.664 235.331,376.641 235.339,378.481 235.705 M230.200 238.378 C 229.320 238.795,228.780 239.136,229.000 239.138 C 229.546 239.142,232.702 237.664,232.200 237.640 C 231.980 237.630,231.080 237.962,230.200 238.378 M227.600 239.490 C 225.981 240.103,223.051 241.574,223.425 241.586 C 223.659 241.594,224.595 241.240,225.506 240.800 C 226.416 240.360,227.339 240.000,227.557 240.000 C 227.775 240.000,228.064 239.820,228.200 239.600 C 228.471 239.162,228.468 239.162,227.600 239.490 M183.046 243.030 C 182.471 244.059,182.000 244.981,182.000 245.078 C 182.000 245.176,181.460 246.041,180.800 247.000 C 180.140 247.959,179.600 248.859,179.600 249.000 C 179.600 249.141,179.047 250.060,178.371 251.042 C 177.695 252.024,177.231 253.046,177.340 253.314 C 177.485 253.672,177.545 253.663,177.568 253.278 C 177.586 252.991,178.290 251.731,179.133 250.478 C 181.095 247.562,184.467 241.533,184.254 241.321 C 184.165 241.232,183.621 242.000,183.046 243.030 M220.600 242.591 C 219.500 243.121,218.386 243.564,218.124 243.577 C 217.862 243.590,217.536 243.779,217.401 243.999 C 217.238 244.263,217.501 244.266,218.178 244.008 C 220.091 243.281,222.800 241.981,222.800 241.790 C 222.800 241.528,222.838 241.514,220.600 242.591 M214.900 245.034 C 214.185 245.346,213.600 245.694,213.600 245.807 C 213.600 246.015,216.406 244.927,216.746 244.587 C 217.086 244.247,216.220 244.457,214.900 245.034 M211.300 246.634 C 210.585 246.946,210.000 247.294,210.000 247.407 C 210.000 247.615,212.806 246.527,213.146 246.187 C 213.486 245.847,212.620 246.057,211.300 246.634 M205.653 249.053 C 204.913 249.376,204.401 249.734,204.516 249.849 C 204.631 249.964,205.416 249.693,206.262 249.247 C 208.035 248.311,207.641 248.186,205.653 249.053 M196.000 253.200 C 195.230 253.622,194.713 253.974,194.851 253.983 C 195.265 254.011,198.000 252.805,198.000 252.595 C 198.000 252.246,197.425 252.420,196.000 253.200 M186.800 256.800 C 185.976 257.064,185.941 257.126,186.600 257.154 C 187.040 257.173,187.670 257.013,188.000 256.800 C 188.701 256.347,188.214 256.347,186.800 256.800 " stroke="none" fill="#7c5c34" fill-rule="evenodd"></path></g></svg>