<svg id="svg" version="1.1" xmlns="http://www.w3.org/2000/svg" xmlns:xlink="http://www.w3.org/1999/xlink" width="400" height="400" viewBox="0, 0, 400,400"><g id="svgg"><path id="path0" d="M262.534 15.600 C 262.534 17.250,262.605 17.925,262.691 17.100 C 262.778 16.275,262.778 14.925,262.691 14.100 C 262.605 13.275,262.534 13.950,262.534 15.600 M145.500 18.700 C 166.895 18.757,201.905 18.757,223.300 18.700 C 244.695 18.643,227.190 18.596,184.400 18.596 C 141.610 18.596,124.105 18.643,145.500 18.700 M144.900 50.300 C 166.845 50.357,202.755 50.357,224.700 50.300 C 246.645 50.243,228.690 50.196,184.800 50.196 C 140.910 50.196,122.955 50.243,144.900 50.300 M263.607 53.700 C 262.901 55.515,262.137 57.450,261.908 58.000 C 261.321 59.414,260.952 60.393,260.400 62.000 C 259.759 63.867,259.204 65.309,258.054 68.100 C 257.198 70.175,256.872 71.008,255.197 75.400 C 250.539 87.614,245.959 93.983,238.210 99.023 C 232.554 102.701,228.512 104.210,220.633 105.587 C 216.142 106.371,200.050 106.106,201.000 105.264 C 201.440 104.873,202.340 103.937,203.000 103.183 C 203.833 102.232,203.509 102.423,201.943 103.806 C 200.702 104.903,199.667 105.935,199.643 106.100 C 199.574 106.583,220.552 106.455,222.694 105.959 C 228.209 104.685,229.928 104.123,233.400 102.461 C 243.442 97.653,250.464 89.683,254.777 78.200 C 255.272 76.880,255.865 75.350,256.093 74.800 C 256.321 74.250,256.639 73.440,256.800 73.000 C 256.961 72.560,257.279 71.750,257.507 71.200 C 257.735 70.650,258.317 69.120,258.800 67.800 C 259.646 65.488,259.973 64.640,260.769 62.700 C 260.972 62.205,262.074 59.370,263.217 56.400 C 264.360 53.430,265.375 50.865,265.471 50.700 C 265.568 50.535,265.477 50.400,265.269 50.400 C 265.060 50.400,264.313 51.885,263.607 53.700 M103.373 53.043 C 103.238 53.459,102.980 54.160,102.800 54.600 C 101.026 58.936,99.602 62.936,99.772 63.106 C 99.887 63.221,100.092 62.974,100.227 62.557 C 100.362 62.141,100.660 61.350,100.890 60.800 C 101.119 60.250,101.446 59.440,101.617 59.000 C 103.561 53.979,104.005 52.672,103.827 52.494 C 103.713 52.379,103.508 52.626,103.373 53.043 M166.400 56.403 C 165.990 56.670,166.435 56.714,167.800 56.541 C 168.900 56.401,169.875 56.223,169.967 56.144 C 170.364 55.801,166.941 56.050,166.400 56.403 M180.033 56.144 C 180.125 56.223,181.100 56.401,182.200 56.541 C 183.565 56.714,184.010 56.670,183.600 56.403 C 183.059 56.050,179.636 55.801,180.033 56.144 M162.400 57.200 C 162.400 57.669,162.707 57.669,163.800 57.200 C 164.509 56.895,164.475 56.853,163.500 56.828 C 162.895 56.813,162.400 56.980,162.400 57.200 M159.400 58.000 C 159.108 58.473,159.499 58.473,160.600 58.000 C 161.371 57.669,161.369 57.655,160.524 57.628 C 160.042 57.613,159.536 57.780,159.400 58.000 M151.829 61.409 C 151.405 61.729,151.138 62.071,151.235 62.169 C 151.332 62.266,151.859 62.002,152.406 61.582 C 152.953 61.161,153.220 60.820,153.000 60.822 C 152.780 60.824,152.253 61.088,151.829 61.409 M197.594 61.582 C 198.141 62.002,198.668 62.266,198.765 62.169 C 198.991 61.942,197.529 60.827,197.000 60.822 C 196.780 60.820,197.047 61.161,197.594 61.582 M148.148 64.500 C 145.926 66.804,144.204 69.138,144.505 69.438 C 144.611 69.544,145.281 68.721,145.994 67.609 C 146.708 66.497,148.106 64.870,149.102 63.994 C 150.098 63.117,150.746 62.400,150.543 62.400 C 150.339 62.400,149.261 63.345,148.148 64.500 M199.233 62.524 C 199.325 62.592,200.480 63.623,201.800 64.816 C 203.120 66.009,203.660 66.372,203.000 65.623 C 201.368 63.771,199.876 62.428,199.433 62.413 C 199.232 62.406,199.142 62.456,199.233 62.524 M294.223 71.086 C 293.291 73.648,289.226 84.393,288.807 85.400 C 288.625 85.840,287.721 88.180,286.800 90.600 C 284.675 96.182,284.592 96.397,284.090 97.600 C 283.312 99.468,281.600 104.008,281.600 104.204 C 281.600 104.800,283.794 103.811,295.850 97.778 C 308.969 91.214,309.096 91.139,308.650 90.177 C 308.403 89.643,308.065 89.205,307.900 89.203 C 307.735 89.201,307.600 89.018,307.600 88.795 C 307.600 88.573,306.810 87.178,305.844 85.695 C 304.246 83.241,301.866 79.435,297.351 72.110 C 295.302 68.787,295.085 68.716,294.223 71.086 M205.612 70.400 C 205.612 70.730,205.787 71.270,206.000 71.600 C 206.345 72.133,206.388 72.133,206.388 71.600 C 206.388 71.270,206.213 70.730,206.000 70.400 C 205.655 69.867,205.612 69.867,205.612 70.400 M164.600 71.200 C 164.464 71.420,164.048 71.601,163.676 71.602 C 163.304 71.603,162.460 72.063,161.800 72.624 L 160.600 73.644 161.782 72.922 C 166.111 70.278,171.730 70.640,170.437 73.479 C 170.009 74.417,170.025 74.477,170.578 74.018 C 171.406 73.331,171.367 72.015,170.500 71.357 C 169.678 70.733,164.966 70.608,164.600 71.200 M169.145 74.588 C 169.042 74.692,167.977 75.040,166.779 75.362 C 165.376 75.739,164.974 75.957,165.651 75.974 C 166.680 75.999,169.600 74.980,169.600 74.595 C 169.600 74.348,169.389 74.345,169.145 74.588 M160.800 75.250 C 160.800 75.695,161.805 76.134,162.374 75.938 C 162.594 75.862,162.330 75.592,161.787 75.338 C 161.235 75.079,160.800 75.041,160.800 75.250 M88.459 91.880 C 85.886 98.527,85.503 99.707,86.026 99.384 C 86.232 99.257,86.400 98.891,86.400 98.571 C 86.400 98.251,86.567 97.677,86.770 97.295 C 87.484 95.957,89.234 91.101,89.064 90.931 C 88.970 90.836,88.697 91.263,88.459 91.880 M205.800 97.600 C 205.650 98.073,205.617 98.550,205.727 98.660 C 205.837 98.770,206.050 98.473,206.200 98.000 C 206.350 97.527,206.383 97.050,206.273 96.940 C 206.163 96.830,205.950 97.127,205.800 97.600 M144.400 99.438 C 144.400 99.921,146.174 102.253,147.947 104.100 L 149.770 106.000 116.685 106.000 C 98.488 106.000,83.600 105.906,83.600 105.792 C 83.600 105.678,84.050 104.477,84.600 103.123 C 85.150 101.770,85.591 100.468,85.579 100.231 C 85.553 99.686,83.249 105.224,83.221 105.900 C 83.204 106.296,90.176 106.400,116.800 106.400 C 135.280 106.400,150.400 106.310,150.400 106.199 C 150.400 106.088,149.693 105.359,148.828 104.578 C 147.964 103.797,146.685 102.267,145.986 101.179 C 144.788 99.312,144.400 98.886,144.400 99.438 M299.524 110.700 C 299.456 110.865,299.491 152.670,299.601 203.600 L 299.803 296.200 299.901 203.300 C 299.956 152.205,299.921 110.400,299.824 110.400 C 299.727 110.400,299.592 110.535,299.524 110.700 M295.465 112.647 C 294.840 112.986,294.415 113.348,294.520 113.453 C 294.624 113.557,295.315 113.274,296.055 112.823 C 297.613 111.873,297.148 111.735,295.465 112.647 M284.131 118.321 C 279.914 120.454,276.314 122.357,276.131 122.549 C 275.949 122.741,276.520 122.543,277.400 122.108 C 291.933 114.927,292.905 114.423,292.200 114.435 C 291.980 114.438,288.349 116.187,284.131 118.321 M75.696 125.595 C 75.305 126.221,75.200 146.674,75.200 222.395 L 75.200 318.400 138.500 318.401 L 201.800 318.403 203.158 319.231 C 205.440 320.622,206.400 321.967,206.400 323.774 L 206.400 324.800 212.400 324.800 C 218.147 324.800,218.400 324.766,218.400 323.995 C 218.400 320.523,221.763 318.400,227.261 318.400 L 231.200 318.400 231.200 287.400 L 231.200 256.400 158.007 256.400 L 84.814 256.400 83.007 254.669 L 81.200 252.937 81.200 203.442 C 81.200 151.522,81.147 153.077,82.963 151.449 C 85.121 149.514,81.597 149.600,158.787 149.600 L 231.200 149.600 231.200 140.600 L 231.200 131.600 161.459 131.600 L 91.718 131.600 90.369 130.690 C 88.620 129.512,87.200 127.383,87.200 125.941 L 87.200 124.800 81.696 124.800 C 76.638 124.800,76.152 124.864,75.696 125.595 M291.679 299.638 C 289.436 300.759,287.600 301.759,287.600 301.861 C 287.600 301.964,287.735 301.978,287.900 301.893 C 288.065 301.808,289.955 300.881,292.100 299.832 C 295.433 298.202,296.452 297.600,295.879 297.600 C 295.813 297.600,293.923 298.517,291.679 299.638 M289.417 347.700 C 288.094 350.474,282.541 356.861,278.352 360.427 C 276.948 361.622,275.710 362.713,275.600 362.851 C 275.290 363.240,267.681 368.096,265.022 369.602 C 263.714 370.342,262.834 371.011,263.065 371.088 C 263.580 371.260,269.402 367.930,273.550 365.091 C 276.194 363.282,285.054 354.940,286.826 352.591 C 289.359 349.234,291.010 346.400,290.433 346.400 C 290.215 346.400,289.758 346.985,289.417 347.700 M282.089 350.661 C 280.929 351.239,280.042 351.775,280.119 351.852 C 280.282 352.016,284.400 350.007,284.400 349.764 C 284.400 349.516,284.355 349.533,282.089 350.661 M277.662 352.844 C 276.707 353.291,276.010 353.743,276.114 353.848 C 276.308 354.042,279.600 352.448,279.600 352.160 C 279.600 351.936,279.596 351.937,277.662 352.844 M272.270 355.479 C 271.648 355.805,271.226 356.160,271.333 356.266 C 271.542 356.476,274.000 355.300,274.000 354.990 C 274.000 354.692,273.494 354.835,272.270 355.479 M211.455 365.158 C 208.744 367.189,203.784 369.947,200.400 371.306 C 197.708 372.386,197.759 372.370,194.200 373.264 C 189.598 374.419,185.606 374.514,131.200 374.757 L 75.000 375.008 131.154 375.104 C 185.503 375.197,189.709 375.125,193.800 374.029 C 198.491 372.774,198.888 372.643,201.800 371.397 C 206.104 369.556,213.450 365.027,214.831 363.362 C 215.810 362.184,214.484 362.889,211.455 365.158 " stroke="none" fill="#d3a37b" fill-rule="evenodd"></path><path id="path1" d="M106.400 15.600 L 106.400 18.400 184.400 18.400 L 262.400 18.400 262.400 15.600 L 262.400 12.800 184.400 12.800 L 106.400 12.800 106.400 15.600 M104.530 51.100 C 104.077 52.396,101.945 58.193,101.624 59.000 C 100.963 60.667,100.492 61.836,100.054 62.900 C 99.804 63.505,99.444 64.405,99.254 64.900 C 98.676 66.401,97.927 68.160,97.553 68.895 C 97.359 69.277,97.200 69.952,97.200 70.395 C 97.200 70.838,97.020 71.200,96.800 71.200 C 96.580 71.200,96.400 71.639,96.400 72.176 C 96.400 72.713,96.220 73.264,96.000 73.400 C 95.780 73.536,95.600 73.997,95.600 74.424 C 95.600 74.851,95.420 75.200,95.200 75.200 C 94.980 75.200,94.800 75.562,94.800 76.005 C 94.800 76.448,94.641 77.123,94.447 77.505 C 94.252 77.887,93.916 78.650,93.700 79.200 C 93.011 80.954,92.317 82.579,91.953 83.295 C 91.759 83.677,91.600 84.264,91.600 84.600 C 91.600 84.936,91.441 85.523,91.247 85.905 C 90.704 86.973,90.197 88.258,88.605 92.600 C 87.090 96.735,86.796 97.506,86.090 99.200 C 85.312 101.068,83.600 105.608,83.600 105.804 C 83.600 105.912,98.469 106.000,116.643 106.000 L 149.686 106.000 147.543 103.677 C 146.364 102.400,145.154 100.825,144.853 100.177 C 144.553 99.530,144.148 98.687,143.953 98.305 C 143.759 97.923,143.600 91.666,143.600 84.400 C 143.600 77.134,143.759 70.877,143.953 70.495 C 144.148 70.113,144.553 69.268,144.853 68.618 C 145.562 67.085,149.927 62.400,150.646 62.400 C 150.951 62.400,151.200 62.247,151.200 62.060 C 151.200 61.750,155.155 59.677,157.600 58.704 C 158.150 58.486,158.913 58.148,159.295 57.953 C 159.677 57.759,160.532 57.600,161.195 57.600 C 161.858 57.600,162.400 57.437,162.400 57.239 C 162.400 56.605,166.367 56.314,175.000 56.314 C 183.633 56.314,187.600 56.605,187.600 57.239 C 187.600 57.437,188.142 57.600,188.805 57.600 C 189.468 57.600,190.323 57.759,190.705 57.953 C 191.087 58.148,191.850 58.486,192.400 58.704 C 194.845 59.677,198.800 61.750,198.800 62.060 C 198.800 62.247,199.042 62.400,199.338 62.400 C 200.496 62.400,204.643 67.231,205.817 69.949 C 206.660 71.899,206.674 96.851,205.833 98.851 C 205.124 100.539,203.335 103.003,201.587 104.700 L 200.248 106.000 209.257 106.000 C 217.665 106.000,219.863 105.826,225.000 104.757 C 239.050 101.831,248.693 92.457,255.197 75.400 C 256.120 72.980,257.062 70.550,257.291 70.000 C 257.520 69.450,257.863 68.595,258.054 68.100 C 258.244 67.605,258.580 66.750,258.800 66.200 C 259.020 65.650,259.362 64.795,259.560 64.300 C 259.757 63.805,260.136 62.770,260.400 62.000 C 260.851 60.685,261.063 60.131,261.963 57.900 C 262.163 57.405,262.813 55.740,263.408 54.200 C 264.003 52.660,264.579 51.175,264.687 50.900 C 264.846 50.501,248.714 50.400,184.830 50.400 C 108.947 50.400,104.762 50.436,104.530 51.100 M164.104 71.767 C 160.761 72.982,159.935 74.739,162.286 75.633 C 165.524 76.864,172.054 73.793,170.410 71.812 C 169.798 71.075,166.079 71.048,164.104 71.767 M298.333 111.500 C 298.222 111.751,284.993 118.406,273.600 123.942 C 271.950 124.744,270.540 125.535,270.467 125.700 C 270.393 125.865,269.988 126.000,269.567 126.000 C 269.145 126.000,268.800 126.180,268.800 126.400 C 268.800 126.620,268.440 126.800,268.000 126.800 C 267.560 126.800,267.200 126.980,267.200 127.200 C 267.200 127.420,266.840 127.600,266.400 127.600 C 265.960 127.600,265.600 127.746,265.600 127.925 C 265.600 128.104,264.970 128.498,264.200 128.800 L 262.800 129.349 262.800 221.708 C 262.800 272.505,262.948 314.007,263.128 313.933 C 263.308 313.860,271.581 309.750,281.512 304.800 L 299.568 295.800 299.584 203.500 C 299.598 124.128,299.521 111.200,299.033 111.200 C 298.722 111.200,298.407 111.335,298.333 111.500 M289.200 347.533 C 289.200 347.790,288.968 348.000,288.685 348.000 C 288.402 348.000,283.327 350.430,277.407 353.400 C 271.488 356.370,266.410 358.800,266.122 358.800 C 265.835 358.800,265.600 358.946,265.600 359.125 C 265.600 359.304,264.970 359.698,264.200 360.000 L 262.800 360.549 262.800 365.704 L 262.800 370.859 265.100 369.557 C 267.697 368.087,275.294 363.235,275.600 362.851 C 275.710 362.713,276.948 361.622,278.352 360.427 C 282.999 356.471,290.149 348.016,289.444 347.310 C 289.310 347.176,289.200 347.277,289.200 347.533 M75.200 368.805 L 75.200 374.811 131.300 374.659 C 183.910 374.517,189.962 374.397,193.600 373.424 C 194.150 373.277,195.320 372.966,196.200 372.733 C 197.080 372.499,198.250 372.125,198.800 371.901 C 199.350 371.677,200.160 371.356,200.600 371.188 C 204.468 369.716,209.650 366.724,212.955 364.056 L 214.510 362.800 144.855 362.800 L 75.200 362.800 75.200 368.805 " stroke="none" fill="#e4b49c" fill-rule="evenodd"></path><path id="path2" d="M145.300 12.700 C 166.805 12.757,201.995 12.757,223.500 12.700 C 245.005 12.643,227.410 12.596,184.400 12.596 C 141.390 12.596,123.795 12.643,145.300 12.700 M262.800 15.567 C 262.800 17.088,262.665 18.409,262.500 18.501 C 262.335 18.593,262.440 18.608,262.733 18.534 C 263.026 18.460,267.301 18.400,272.233 18.400 L 281.200 18.400 281.200 15.600 L 281.200 12.800 272.000 12.800 L 262.800 12.800 262.800 15.567 M264.841 50.292 C 265.398 50.559,265.195 51.341,263.310 56.200 C 260.781 62.721,260.642 63.075,260.093 64.400 C 259.865 64.950,259.283 66.480,258.800 67.800 C 258.317 69.120,257.760 70.605,257.561 71.100 C 257.362 71.595,257.044 72.405,256.854 72.900 C 256.663 73.395,256.321 74.250,256.093 74.800 C 255.865 75.350,255.272 76.880,254.777 78.200 C 250.464 89.683,243.442 97.653,233.400 102.461 C 229.928 104.123,228.209 104.685,222.694 105.959 C 219.911 106.603,199.600 106.560,199.600 105.911 C 199.600 105.642,199.343 105.788,199.030 106.236 C 198.716 106.684,197.231 107.643,195.730 108.367 C 194.228 109.091,192.687 109.845,192.305 110.042 C 191.923 110.239,191.259 110.400,190.829 110.400 C 190.399 110.400,189.936 110.580,189.800 110.800 C 189.664 111.020,189.034 111.200,188.400 111.200 C 187.766 111.200,187.150 111.357,187.031 111.550 C 186.399 112.572,169.743 112.966,165.400 112.061 C 164.080 111.786,162.413 111.460,161.696 111.336 C 160.979 111.213,160.294 110.951,160.173 110.756 C 160.052 110.560,159.601 110.400,159.171 110.400 C 158.741 110.400,158.077 110.236,157.695 110.035 C 157.313 109.834,155.955 109.186,154.678 108.595 C 153.401 108.003,151.916 107.080,151.378 106.542 C 150.840 106.004,150.400 105.752,150.400 105.982 C 150.400 106.642,83.328 106.560,83.074 105.900 C 82.968 105.625,82.890 105.760,82.900 106.200 C 82.916 106.884,81.904 109.775,80.310 113.600 C 80.081 114.150,79.737 115.005,79.546 115.500 C 79.104 116.649,78.503 118.153,78.026 119.300 C 77.821 119.795,77.423 120.920,77.141 121.800 C 76.860 122.680,76.288 123.905,75.871 124.523 C 75.454 125.141,75.218 125.751,75.347 125.880 C 75.476 126.009,75.695 125.819,75.833 125.457 C 76.051 124.891,76.857 124.800,81.643 124.800 C 86.946 124.800,87.200 124.763,87.200 123.995 C 87.200 122.467,89.128 119.823,90.800 119.058 C 91.535 118.721,112.970 118.547,171.741 118.400 L 251.683 118.200 253.078 114.600 C 253.845 112.620,254.660 110.550,254.890 110.000 C 255.119 109.450,255.439 108.640,255.600 108.200 C 256.276 106.354,257.557 103.269,258.047 102.305 C 258.241 101.923,258.400 101.248,258.400 100.805 C 258.400 100.362,258.580 100.000,258.800 100.000 C 259.020 100.000,259.200 99.638,259.200 99.195 C 259.200 98.752,259.359 98.077,259.553 97.695 C 260.277 96.273,261.890 92.251,262.800 89.600 C 263.064 88.830,263.428 87.840,263.609 87.400 C 263.790 86.960,265.136 83.450,266.600 79.600 C 268.064 75.750,269.429 72.195,269.631 71.700 C 270.442 69.720,270.774 68.865,272.000 65.600 C 272.702 63.730,273.439 61.795,273.638 61.300 C 273.837 60.805,274.180 59.950,274.400 59.400 C 274.620 58.850,274.980 57.950,275.200 57.400 C 276.179 54.953,276.516 54.155,276.847 53.505 C 277.041 53.123,277.200 52.484,277.200 52.085 C 277.200 51.686,277.416 51.144,277.680 50.880 C 278.053 50.507,276.831 50.399,272.180 50.395 C 268.891 50.392,265.750 50.298,265.200 50.186 C 264.561 50.057,264.432 50.095,264.841 50.292 M172.517 56.297 C 174.011 56.374,176.351 56.374,177.717 56.296 C 179.082 56.218,177.860 56.155,175.000 56.155 C 172.140 56.156,171.022 56.220,172.517 56.297 M184.033 56.947 C 184.125 57.028,184.920 57.204,185.800 57.338 C 186.915 57.507,187.158 57.471,186.600 57.219 C 185.832 56.871,183.690 56.644,184.033 56.947 M187.633 57.744 C 187.725 57.823,188.340 58.008,189.000 58.156 C 189.876 58.352,190.038 58.315,189.600 58.018 C 189.060 57.653,187.232 57.398,187.633 57.744 M288.551 59.500 C 288.428 59.885,288.179 60.560,287.997 61.000 C 287.816 61.440,286.647 64.500,285.401 67.800 C 282.269 76.089,280.003 82.013,279.509 83.200 C 279.280 83.750,278.937 84.605,278.746 85.100 C 278.073 86.849,277.503 88.208,277.153 88.895 C 276.959 89.277,276.800 89.780,276.800 90.014 C 276.800 90.248,276.440 91.184,276.000 92.094 C 275.560 93.005,275.200 93.989,275.200 94.281 C 275.200 94.572,275.041 95.123,274.847 95.505 C 274.652 95.887,274.292 96.695,274.047 97.300 C 273.801 97.905,273.432 98.805,273.227 99.300 C 270.453 105.994,268.948 110.800,269.625 110.800 C 270.025 110.800,270.464 110.620,270.600 110.400 C 270.736 110.180,271.182 110.000,271.590 110.000 C 271.999 110.000,272.393 109.857,272.467 109.682 C 272.579 109.413,278.643 106.368,282.000 104.893 C 282.722 104.576,282.806 104.447,282.300 104.427 C 281.915 104.412,281.600 104.312,281.600 104.204 C 281.600 104.008,283.312 99.468,284.090 97.600 C 284.592 96.397,284.675 96.182,286.800 90.600 C 287.721 88.180,288.625 85.840,288.807 85.400 C 289.226 84.392,293.293 73.642,294.218 71.100 C 294.999 68.951,295.232 68.831,296.163 70.100 L 296.823 71.000 296.352 70.000 C 296.092 69.450,295.759 68.910,295.610 68.800 C 295.236 68.523,292.000 63.697,292.000 63.416 C 292.000 63.114,289.132 58.800,288.931 58.800 C 288.845 58.800,288.674 59.115,288.551 59.500 M148.181 64.900 L 146.600 66.600 148.300 65.019 C 149.881 63.548,150.184 63.200,149.881 63.200 C 149.816 63.200,149.051 63.965,148.181 64.900 M201.800 65.200 C 202.883 66.300,203.860 67.200,203.970 67.200 C 204.080 67.200,203.283 66.300,202.200 65.200 C 201.117 64.100,200.140 63.200,200.030 63.200 C 199.920 63.200,200.717 64.100,201.800 65.200 M168.963 69.591 C 163.841 70.320,156.800 73.451,156.800 75.000 C 156.800 76.265,161.355 78.653,166.200 79.929 C 171.432 81.306,182.279 81.090,183.207 79.589 C 183.867 78.521,186.079 71.145,185.817 70.884 C 184.637 69.703,173.937 68.882,168.963 69.591 M170.500 71.357 C 173.035 73.281,168.821 76.138,163.769 75.920 L 161.000 75.800 160.878 74.543 C 160.750 73.231,162.335 71.600,163.738 71.600 C 164.076 71.600,164.464 71.420,164.600 71.200 C 164.966 70.608,169.678 70.733,170.500 71.357 M143.849 71.815 C 143.712 72.173,143.615 72.766,143.634 73.133 C 143.653 73.500,143.827 73.269,144.021 72.620 C 144.398 71.358,144.265 70.733,143.849 71.815 M297.826 72.800 C 298.341 73.843,300.528 77.200,300.693 77.200 C 300.944 77.200,299.243 74.301,298.345 73.200 C 297.897 72.650,297.664 72.470,297.826 72.800 M301.431 78.700 C 301.829 79.305,303.035 81.240,304.111 83.000 C 306.124 86.293,307.664 88.258,305.992 85.400 C 304.165 82.279,301.120 77.600,300.915 77.600 C 300.801 77.600,301.033 78.095,301.431 78.700 M308.400 89.976 C 308.400 90.183,308.591 90.471,308.824 90.615 C 309.093 90.781,308.983 91.090,308.524 91.460 C 307.858 91.998,307.872 92.009,308.705 91.605 C 309.450 91.244,309.536 91.028,309.191 90.383 C 308.741 89.543,308.400 89.367,308.400 89.976 M143.606 95.833 C 143.609 96.255,143.795 96.870,144.018 97.200 C 144.315 97.638,144.352 97.476,144.156 96.600 C 143.827 95.129,143.598 94.810,143.606 95.833 M294.839 98.222 C 294.091 98.547,293.567 98.900,293.675 99.008 C 293.879 99.212,296.400 98.068,296.400 97.771 C 296.400 97.544,296.404 97.543,294.839 98.222 M289.700 100.826 C 288.765 101.265,288.000 101.719,288.000 101.835 C 288.000 101.952,288.135 101.977,288.300 101.891 C 288.465 101.805,289.275 101.426,290.100 101.048 C 290.925 100.671,291.600 100.281,291.600 100.181 C 291.600 99.933,291.616 99.928,289.700 100.826 M201.785 103.700 L 199.800 105.800 201.900 103.815 C 203.055 102.723,204.000 101.778,204.000 101.715 C 204.000 101.417,203.629 101.749,201.785 103.700 M148.200 104.000 C 149.059 104.880,149.852 105.600,149.962 105.600 C 150.072 105.600,149.459 104.880,148.600 104.000 C 147.741 103.120,146.948 102.400,146.838 102.400 C 146.728 102.400,147.341 103.120,148.200 104.000 M306.400 107.321 C 303.650 108.684,301.340 109.935,301.267 110.100 C 301.193 110.265,300.878 110.400,300.567 110.400 C 300.079 110.400,300.001 123.415,300.006 203.300 C 300.009 254.395,300.144 296.020,300.306 295.800 C 300.704 295.259,303.945 293.600,304.604 293.600 C 304.895 293.600,305.193 293.463,305.267 293.296 C 305.340 293.129,306.975 292.203,308.900 291.238 L 312.400 289.484 312.400 197.142 C 312.400 123.524,312.299 104.804,311.900 104.821 C 311.625 104.832,309.150 105.957,306.400 107.321 M87.241 126.041 C 87.189 127.371,88.636 129.523,90.369 130.690 L 91.718 131.600 161.459 131.600 L 231.200 131.600 231.200 140.599 L 231.200 149.598 158.700 149.708 L 86.200 149.819 162.852 149.874 C 245.296 149.934,240.753 149.821,242.401 151.859 C 244.046 153.894,244.000 152.422,244.000 203.200 C 244.000 254.861,244.080 252.624,242.169 254.627 C 240.715 256.151,239.770 256.400,235.426 256.400 L 231.200 256.400 231.200 287.400 L 231.200 318.400 227.024 318.400 C 224.727 318.400,222.763 318.535,222.661 318.700 C 222.559 318.865,224.753 318.883,227.537 318.740 C 230.322 318.597,236.425 318.462,241.100 318.440 L 249.600 318.400 249.600 225.065 L 249.600 131.730 235.735 131.465 C 228.109 131.319,192.604 131.199,156.835 131.199 C 93.078 131.197,91.775 131.182,90.522 130.418 C 89.021 129.503,88.015 128.087,87.588 126.290 C 87.311 125.122,87.278 125.098,87.241 126.041 M262.880 128.880 C 262.322 129.438,262.161 314.205,262.719 314.550 C 262.895 314.658,263.300 314.562,263.619 314.336 C 264.093 314.001,264.071 313.966,263.500 314.150 C 262.605 314.438,262.386 129.774,263.280 128.880 C 263.544 128.616,263.670 128.400,263.560 128.400 C 263.450 128.400,263.144 128.616,262.880 128.880 M83.800 150.800 C 82.236 151.836,82.792 151.837,84.490 150.801 C 85.211 150.362,85.620 150.004,85.400 150.004 C 85.180 150.005,84.460 150.363,83.800 150.800 M81.649 153.052 C 80.983 154.514,81.274 154.595,82.089 153.174 C 82.460 152.528,82.620 152.000,82.446 152.000 C 82.271 152.000,81.913 152.473,81.649 153.052 M81.212 252.306 C 81.205 252.584,81.785 253.402,82.500 254.124 C 83.215 254.846,83.419 254.979,82.954 254.419 C 82.488 253.858,81.908 253.040,81.666 252.600 C 81.423 252.160,81.219 252.028,81.212 252.306 M286.700 302.427 C 285.875 302.863,285.200 303.308,285.200 303.418 C 285.200 303.596,288.359 302.119,288.767 301.751 C 289.227 301.334,288.025 301.728,286.700 302.427 M138.618 318.798 C 198.333 318.988,202.301 319.043,203.304 319.700 C 203.891 320.085,204.513 320.394,204.686 320.388 C 204.859 320.381,204.280 319.932,203.400 319.390 L 201.800 318.404 138.400 318.500 L 75.000 318.595 138.618 318.798 M220.204 320.396 C 219.574 321.054,219.135 321.642,219.229 321.703 C 219.323 321.764,219.970 321.226,220.666 320.507 C 221.362 319.788,221.801 319.200,221.641 319.200 C 221.481 319.200,220.834 319.738,220.204 320.396 M205.511 321.974 C 205.882 322.620,206.240 323.093,206.307 323.026 C 206.524 322.809,205.483 320.800,205.154 320.800 C 204.980 320.800,205.140 321.328,205.511 321.974 M218.667 322.667 C 218.520 322.813,218.400 323.349,218.400 323.856 C 218.400 324.773,218.363 324.780,212.400 324.906 L 206.399 325.032 212.484 325.016 L 218.568 325.000 218.834 323.700 C 219.113 322.333,219.097 322.236,218.667 322.667 M301.200 341.223 C 291.078 346.355,290.989 346.411,289.600 348.556 C 284.584 356.301,276.423 363.758,267.019 369.189 C 265.104 370.295,263.371 371.200,263.168 371.200 C 262.667 371.200,262.695 360.687,263.199 360.079 C 263.418 359.814,263.309 359.848,262.958 360.154 C 262.387 360.650,262.350 361.911,262.611 371.885 L 262.904 383.060 285.952 371.533 C 298.628 365.194,309.225 360.006,309.500 360.004 C 309.775 360.002,310.000 359.864,310.000 359.698 C 310.000 359.531,310.540 359.156,311.200 358.864 L 312.400 358.333 312.400 347.166 C 312.400 338.486,312.289 336.006,311.900 336.026 C 311.625 336.040,306.810 338.378,301.200 341.223 M110.132 362.700 C 129.454 362.757,160.954 362.757,180.132 362.700 C 199.309 362.643,183.500 362.596,145.000 362.596 C 106.500 362.596,90.809 362.643,110.132 362.700 M214.831 363.362 C 213.450 365.027,206.104 369.556,201.800 371.397 C 198.888 372.643,198.491 372.774,193.800 374.029 C 189.737 375.117,185.315 375.200,131.254 375.200 L 75.200 375.200 75.200 381.200 L 75.200 387.200 162.400 387.200 L 249.600 387.200 249.600 375.000 L 249.600 362.800 232.449 362.800 C 218.204 362.800,215.219 362.895,214.831 363.362 " stroke="none" fill="#bb835c" fill-rule="evenodd"></path><path id="path3" d="M267.123 12.699 C 269.831 12.768,274.151 12.768,276.723 12.699 C 279.295 12.629,277.080 12.572,271.800 12.573 C 266.520 12.573,264.415 12.630,267.123 12.699 M106.137 15.800 C 106.139 17.560,106.209 18.230,106.293 17.289 C 106.378 16.349,106.377 14.909,106.291 14.089 C 106.205 13.270,106.136 14.040,106.137 15.800 M267.300 18.699 C 269.885 18.768,274.115 18.768,276.700 18.699 C 279.285 18.629,277.170 18.572,272.000 18.572 C 266.830 18.572,264.715 18.629,267.300 18.699 M106.400 34.400 L 106.400 37.600 179.935 37.600 C 220.379 37.600,259.709 37.481,267.335 37.335 L 281.200 37.070 281.200 34.400 L 281.200 31.730 267.335 31.465 C 259.709 31.319,220.379 31.200,179.935 31.200 L 106.400 31.200 106.400 34.400 M103.579 51.055 C 103.358 51.636,103.252 52.185,103.343 52.276 C 103.433 52.367,103.699 51.892,103.933 51.220 C 104.453 49.728,104.139 49.582,103.579 51.055 M271.800 50.385 C 275.320 50.503,277.975 50.746,277.700 50.924 C 277.425 51.102,277.200 51.599,277.200 52.029 C 277.200 52.459,277.041 53.123,276.847 53.505 C 276.652 53.887,276.316 54.650,276.100 55.200 C 275.884 55.750,275.503 56.695,275.254 57.300 C 275.004 57.905,274.620 58.850,274.400 59.400 C 274.180 59.950,273.837 60.805,273.638 61.300 C 273.439 61.795,272.702 63.730,272.000 65.600 C 270.774 68.865,270.442 69.720,269.631 71.700 C 269.429 72.195,268.064 75.750,266.600 79.600 C 265.136 83.450,263.790 86.960,263.609 87.400 C 263.428 87.840,263.064 88.830,262.800 89.600 C 262.536 90.370,262.157 91.405,261.960 91.900 C 261.762 92.395,261.444 93.205,261.254 93.700 C 260.676 95.201,259.927 96.960,259.553 97.695 C 259.359 98.077,259.200 98.752,259.200 99.195 C 259.200 99.638,259.020 100.000,258.800 100.000 C 258.580 100.000,258.400 100.362,258.400 100.805 C 258.400 101.248,258.241 101.923,258.047 102.305 C 257.585 103.212,256.543 105.711,255.546 108.300 C 255.356 108.795,255.036 109.605,254.836 110.100 C 254.636 110.595,253.845 112.620,253.078 114.600 L 251.683 118.200 171.741 118.400 C 112.970 118.547,91.535 118.721,90.800 119.058 C 88.966 119.897,87.188 122.497,87.219 124.295 C 87.235 125.222,87.338 125.111,87.859 123.600 C 88.200 122.610,88.867 121.379,89.340 120.865 C 91.351 118.679,86.485 118.800,172.430 118.800 L 251.962 118.800 252.622 117.300 C 253.491 115.324,253.696 114.807,255.200 110.800 C 255.902 108.930,256.663 106.950,256.892 106.400 C 257.671 104.524,257.954 103.790,262.597 91.600 C 265.153 84.890,268.134 77.105,269.222 74.300 C 270.310 71.495,272.118 66.815,273.240 63.900 C 274.362 60.985,275.983 56.800,276.842 54.600 C 277.701 52.400,278.403 50.465,278.402 50.300 C 278.401 50.135,275.475 50.038,271.900 50.085 L 265.400 50.169 271.800 50.385 M167.200 56.800 C 165.829 57.089,165.825 57.095,167.000 57.124 C 167.660 57.141,168.920 57.005,169.800 56.823 L 171.400 56.492 170.000 56.499 C 169.230 56.502,167.970 56.638,167.200 56.800 M180.200 56.823 C 181.080 57.005,182.340 57.144,183.000 57.131 C 184.044 57.111,183.992 57.065,182.600 56.777 C 181.720 56.595,180.460 56.456,179.800 56.469 C 178.756 56.489,178.808 56.535,180.200 56.823 M163.200 57.600 C 162.376 57.864,162.341 57.926,163.000 57.954 C 163.440 57.973,164.070 57.813,164.400 57.600 C 165.101 57.147,164.614 57.147,163.200 57.600 M185.600 57.582 C 185.930 57.805,186.545 57.991,186.967 57.994 C 187.990 58.002,187.671 57.773,186.200 57.444 C 185.324 57.248,185.162 57.285,185.600 57.582 M160.000 58.400 C 159.176 58.664,159.141 58.726,159.800 58.754 C 160.240 58.773,160.870 58.613,161.200 58.400 C 161.901 57.947,161.414 57.947,160.000 58.400 M188.800 58.382 C 189.130 58.605,189.745 58.791,190.167 58.794 C 191.190 58.802,190.871 58.573,189.400 58.244 C 188.524 58.048,188.362 58.085,188.800 58.382 M287.314 61.346 C 286.622 63.136,285.309 66.580,284.398 69.000 C 282.635 73.680,282.347 74.423,281.691 76.000 C 280.973 77.724,277.420 86.969,273.005 98.600 C 270.667 104.760,268.569 110.136,268.344 110.547 C 267.398 112.273,268.807 111.964,274.236 109.255 C 277.296 107.728,281.918 105.444,284.506 104.179 C 287.095 102.914,289.147 101.814,289.067 101.734 C 288.806 101.473,272.681 109.207,272.467 109.696 C 272.393 109.863,271.999 110.000,271.590 110.000 C 271.182 110.000,270.736 110.180,270.600 110.400 C 270.464 110.620,270.025 110.800,269.625 110.800 C 268.947 110.800,270.685 105.286,273.281 99.200 C 273.515 98.650,273.884 97.750,274.100 97.200 C 274.316 96.650,274.652 95.887,274.847 95.505 C 275.041 95.123,275.200 94.572,275.200 94.281 C 275.200 93.989,275.560 93.005,276.000 92.094 C 276.440 91.184,276.800 90.248,276.800 90.014 C 276.800 89.780,276.959 89.277,277.153 88.895 C 277.348 88.513,277.684 87.750,277.900 87.200 C 278.116 86.650,278.521 85.660,278.800 85.000 C 279.079 84.340,279.446 83.440,279.616 83.000 C 280.752 80.057,283.476 72.892,285.393 67.800 C 286.636 64.500,287.821 61.487,288.027 61.105 C 288.232 60.723,288.400 60.149,288.400 59.829 C 288.400 58.514,289.180 58.940,290.549 61.002 C 291.347 62.204,292.000 63.290,292.000 63.416 C 292.000 63.629,294.962 68.113,295.689 69.000 C 295.869 69.220,296.751 70.570,297.649 72.000 C 299.128 74.354,300.654 76.359,299.781 74.800 C 299.264 73.876,296.938 70.195,294.220 66.000 C 292.866 63.910,291.278 61.366,290.690 60.347 C 289.077 57.550,288.745 57.648,287.314 61.346 M193.200 59.735 C 193.200 59.815,194.378 60.478,195.817 61.208 C 199.626 63.142,203.204 66.578,204.634 69.675 L 205.800 72.200 205.800 84.400 L 205.800 96.600 204.632 99.130 C 197.647 114.259,163.988 117.204,148.986 103.998 C 146.958 102.213,147.032 102.319,149.478 104.708 C 151.284 106.473,153.220 107.920,154.678 108.594 C 155.955 109.186,157.313 109.834,157.695 110.035 C 158.077 110.236,158.741 110.400,159.171 110.400 C 159.601 110.400,160.052 110.560,160.173 110.756 C 160.294 110.951,160.979 111.213,161.696 111.336 C 162.413 111.460,164.080 111.786,165.400 112.061 C 169.743 112.966,186.399 112.572,187.031 111.550 C 187.150 111.357,187.766 111.200,188.400 111.200 C 189.034 111.200,189.664 111.020,189.800 110.800 C 189.936 110.580,190.399 110.400,190.829 110.400 C 191.259 110.400,191.923 110.236,192.305 110.035 C 192.687 109.834,194.080 109.169,195.399 108.557 C 198.812 106.974,203.562 102.310,205.057 99.075 L 206.200 96.600 206.200 84.400 L 206.200 72.200 205.052 69.715 C 203.389 66.116,198.774 61.918,194.528 60.144 C 193.798 59.839,193.200 59.655,193.200 59.735 M151.996 62.156 C 150.568 63.122,148.771 64.607,148.002 65.456 L 146.604 67.000 148.402 65.339 C 149.391 64.425,151.353 62.940,152.762 62.039 C 154.171 61.137,155.159 60.400,154.958 60.400 C 154.756 60.400,153.423 61.190,151.996 62.156 M145.066 69.500 C 144.762 70.105,144.402 71.140,144.267 71.800 C 143.996 73.125,143.915 73.270,145.434 69.700 C 146.107 68.119,145.836 67.972,145.066 69.500 M169.000 68.991 C 168.780 69.062,167.250 69.429,165.600 69.808 C 160.613 70.952,156.400 73.425,156.400 75.209 C 156.400 77.449,164.722 80.763,170.990 81.019 L 174.200 81.151 171.000 80.760 C 164.238 79.933,156.800 76.916,156.800 75.000 C 156.800 71.108,175.440 67.711,183.797 70.080 C 186.185 70.757,186.197 70.817,184.813 75.099 C 183.125 80.321,183.369 80.067,179.534 80.617 C 176.310 81.079,176.273 81.096,178.400 81.141 C 183.812 81.255,193.600 77.297,193.600 74.994 C 193.600 71.445,175.283 66.976,169.000 68.991 M143.775 84.400 C 143.775 90.450,143.831 92.925,143.899 89.900 C 143.967 86.875,143.967 81.925,143.899 78.900 C 143.831 75.875,143.775 78.350,143.775 84.400 M300.451 76.500 C 301.156 77.824,303.688 81.600,303.871 81.600 C 304.107 81.600,303.237 80.052,301.678 77.700 C 300.245 75.537,299.605 74.911,300.451 76.500 M304.838 83.500 C 305.336 84.325,306.601 86.350,307.651 88.000 C 308.701 89.650,309.434 91.114,309.280 91.255 C 309.126 91.395,307.155 92.452,304.900 93.603 C 302.645 94.755,300.800 95.759,300.800 95.836 C 300.800 96.216,309.012 92.108,309.552 91.457 C 309.861 91.085,309.604 90.401,308.587 88.891 C 307.824 87.758,307.200 86.732,307.200 86.610 C 307.200 86.293,304.323 82.000,304.111 82.000 C 304.014 82.000,304.341 82.675,304.838 83.500 M89.482 87.682 C 88.432 90.336,87.638 92.571,87.717 92.651 C 87.797 92.730,88.723 90.627,89.776 87.976 C 90.830 85.326,91.624 83.090,91.541 83.008 C 91.459 82.926,90.533 85.029,89.482 87.682 M156.400 92.322 C 156.400 94.656,157.364 95.724,160.937 97.348 C 171.661 102.222,193.600 98.848,193.600 92.325 C 193.600 90.838,192.814 90.206,192.200 91.200 C 192.064 91.420,191.524 91.600,191.000 91.600 C 190.476 91.600,189.948 91.760,189.827 91.956 C 189.706 92.151,189.021 92.413,188.304 92.536 C 187.587 92.659,185.830 92.994,184.400 93.280 C 177.431 94.674,164.311 93.379,157.100 90.586 C 156.490 90.349,156.400 90.573,156.400 92.322 M86.280 96.080 C 85.676 97.639,85.246 98.980,85.326 99.060 C 85.406 99.140,85.970 97.934,86.580 96.380 C 87.190 94.826,87.619 93.485,87.534 93.400 C 87.449 93.315,86.884 94.521,86.280 96.080 M144.267 97.000 C 144.525 98.262,145.492 100.400,145.804 100.400 C 145.971 100.400,145.777 99.884,144.451 96.800 C 144.041 95.846,144.033 95.855,144.267 97.000 M297.293 97.380 C 296.039 98.072,295.662 98.501,296.612 98.155 C 297.598 97.795,299.114 96.786,298.589 96.839 C 298.375 96.861,297.792 97.104,297.293 97.380 M305.410 107.250 C 298.252 110.831,298.353 110.772,299.886 110.488 C 300.499 110.374,301.090 110.170,301.200 110.035 C 301.503 109.663,311.531 104.800,311.995 104.800 C 312.218 104.800,312.400 104.620,312.400 104.400 C 312.400 103.773,312.176 103.864,305.410 107.250 M312.499 197.242 L 312.400 289.484 308.900 291.238 C 306.975 292.203,305.340 293.129,305.267 293.296 C 305.193 293.463,304.895 293.600,304.604 293.600 C 303.899 293.600,300.798 295.222,299.825 296.100 C 299.398 296.485,298.873 296.800,298.658 296.800 C 298.443 296.800,298.382 296.916,298.524 297.057 C 298.665 297.198,299.010 297.128,299.290 296.900 C 299.571 296.673,302.540 295.096,305.890 293.397 C 309.239 291.697,312.164 290.084,312.390 289.811 C 312.670 289.474,312.769 259.830,312.700 197.158 L 312.598 105.000 312.499 197.242 M82.204 106.894 C 82.064 107.392,81.798 108.160,81.613 108.600 C 81.428 109.040,80.702 110.930,80.000 112.800 C 79.298 114.670,78.537 116.650,78.308 117.200 C 77.817 118.382,77.573 119.014,76.377 122.200 C 75.881 123.520,75.323 124.771,75.138 124.980 C 74.952 125.189,74.845 168.929,74.899 222.180 L 74.998 319.000 75.100 222.261 C 75.197 130.175,75.236 125.470,75.915 124.461 C 76.308 123.877,76.860 122.680,77.141 121.800 C 77.423 120.920,77.845 119.750,78.080 119.200 C 78.625 117.925,79.226 116.421,79.600 115.400 C 79.761 114.960,80.079 114.150,80.306 113.600 C 82.195 109.026,83.087 106.377,82.799 106.199 C 82.611 106.083,82.343 106.396,82.204 106.894 M290.300 114.629 C 288.749 115.470,288.925 115.761,290.500 114.959 C 292.008 114.193,292.275 113.994,291.767 114.016 C 291.565 114.025,290.905 114.301,290.300 114.629 M284.400 117.600 C 283.190 118.239,282.380 118.762,282.600 118.762 C 282.820 118.762,283.990 118.239,285.200 117.600 C 286.410 116.961,287.220 116.438,287.000 116.438 C 286.780 116.438,285.610 116.961,284.400 117.600 M276.300 121.624 C 273.275 123.154,270.800 124.496,270.800 124.605 C 270.800 124.715,273.320 123.543,276.400 122.000 C 279.480 120.457,282.000 119.106,282.000 118.997 C 282.000 118.724,282.374 118.551,276.300 121.624 M87.604 126.600 C 87.602 127.982,90.818 131.198,92.200 131.196 C 92.420 131.196,91.900 130.772,91.044 130.254 C 90.188 129.736,89.064 128.612,88.546 127.756 C 88.028 126.900,87.604 126.380,87.604 126.600 M240.300 131.500 L 249.600 131.615 249.600 225.000 L 249.600 318.385 240.300 318.500 L 231.000 318.615 240.500 318.708 L 250.000 318.800 250.000 225.000 L 250.000 131.200 240.500 131.292 L 231.000 131.385 240.300 131.500 M233.312 149.895 C 234.364 149.977,235.984 149.976,236.912 149.892 C 237.840 149.808,236.980 149.741,235.000 149.742 C 233.020 149.743,232.260 149.812,233.312 149.895 M84.343 150.863 C 83.542 151.328,82.507 152.383,82.043 153.208 L 81.200 154.709 81.200 203.181 C 81.200 238.228,81.324 251.895,81.649 252.526 C 82.236 253.669,84.045 255.600,84.529 255.600 C 84.737 255.600,84.412 255.210,83.805 254.733 C 81.495 252.916,81.600 255.373,81.600 202.993 C 81.600 151.345,81.511 153.690,83.533 151.861 C 83.981 151.456,85.034 150.879,85.874 150.580 C 86.747 150.268,87.058 150.032,86.600 150.027 C 86.160 150.022,85.145 150.398,84.343 150.863 M239.664 150.538 C 240.249 150.798,241.122 151.368,241.605 151.804 C 243.700 153.700,243.601 151.145,243.581 203.080 C 243.559 256.915,243.760 253.122,240.836 255.089 L 239.473 256.006 162.375 255.903 C 119.971 255.846,85.360 255.935,85.462 256.100 C 85.782 256.618,239.525 256.468,240.496 255.949 C 241.513 255.404,242.819 254.072,243.500 252.883 C 244.404 251.306,244.153 154.562,243.241 153.000 C 242.450 151.646,240.209 149.983,239.241 150.032 C 238.856 150.052,239.026 150.254,239.664 150.538 M93.867 162.667 C 93.522 163.011,93.520 222.123,93.865 234.300 L 94.128 243.600 162.664 243.600 L 231.200 243.600 231.200 203.264 L 231.200 162.928 221.900 162.665 C 209.691 162.320,94.212 162.321,93.867 162.667 M203.026 182.194 C 207.528 184.833,207.260 190.712,202.526 193.150 C 200.740 194.070,123.239 193.752,121.823 192.819 C 117.519 189.982,118.026 183.831,122.736 181.738 C 123.529 181.385,133.674 181.257,162.565 181.232 L 201.330 181.200 203.026 182.194 M221.696 212.851 C 226.333 215.333,226.397 222.598,221.799 224.583 C 219.958 225.378,104.311 224.793,102.985 223.982 C 98.909 221.491,99.247 215.490,103.586 213.300 L 105.370 212.400 163.111 212.400 C 205.210 212.400,221.081 212.522,221.696 212.851 M294.506 298.878 C 293.574 299.355,292.882 299.815,292.967 299.901 C 293.152 300.086,296.400 298.469,296.400 298.192 C 296.400 297.914,296.364 297.927,294.506 298.878 M289.000 301.627 C 288.340 302.050,287.944 302.397,288.120 302.398 C 288.560 302.401,290.800 301.224,290.800 300.990 C 290.800 300.642,290.212 300.851,289.000 301.627 M306.200 307.437 C 302.900 309.063,300.020 310.396,299.800 310.399 C 299.314 310.407,263.625 328.282,262.908 328.877 C 262.386 329.310,262.120 346.000,262.635 346.000 C 263.027 346.000,298.033 328.470,298.630 327.975 C 298.935 327.722,302.020 326.088,305.485 324.345 C 308.950 322.601,311.928 321.032,312.101 320.859 C 312.275 320.685,312.368 316.929,312.309 312.512 L 312.200 304.481 306.200 307.437 M266.889 312.665 C 266.168 313.020,265.643 313.377,265.724 313.457 C 265.895 313.628,268.400 312.424,268.400 312.171 C 268.400 311.929,268.347 311.946,266.889 312.665 M221.696 319.598 C 220.337 320.426,218.796 322.566,218.813 323.600 C 218.818 323.930,219.232 323.399,219.732 322.421 C 220.387 321.141,221.141 320.387,222.421 319.732 C 223.399 319.232,223.930 318.818,223.600 318.813 C 223.270 318.807,222.413 319.161,221.696 319.598 M204.123 320.696 C 207.222 323.996,206.497 328.777,202.620 330.617 C 201.571 331.115,192.435 331.212,138.199 331.299 L 75.000 331.400 75.000 340.600 L 75.000 349.800 162.400 349.800 L 249.800 349.800 249.907 340.764 L 250.015 331.728 236.797 331.484 C 224.221 331.252,223.505 331.198,222.037 330.373 C 220.471 329.493,218.800 327.103,218.801 325.746 C 218.801 325.045,218.426 325.007,212.601 325.120 C 206.474 325.238,206.400 325.229,206.400 324.374 C 206.400 323.193,204.932 320.671,203.870 320.027 C 203.187 319.613,203.242 319.757,204.123 320.696 M301.200 340.627 C 295.370 343.580,290.386 345.997,290.124 345.998 C 289.862 345.999,289.552 346.154,289.436 346.342 C 288.871 347.256,292.069 345.871,301.418 341.153 C 307.033 338.319,311.801 336.000,312.013 336.000 C 312.253 336.000,312.400 340.247,312.400 347.166 L 312.400 358.333 311.200 358.864 C 310.540 359.156,310.000 359.531,310.000 359.698 C 310.000 359.864,309.775 360.002,309.500 360.004 C 309.225 360.006,298.610 365.203,285.910 371.554 L 262.820 383.101 262.699 377.051 L 262.578 371.000 262.489 377.300 C 262.440 380.765,262.526 383.600,262.680 383.600 C 263.188 383.600,311.385 359.487,312.100 358.875 C 313.189 357.943,313.148 335.107,312.057 335.229 C 311.916 335.245,307.030 337.674,301.200 340.627 M276.889 352.661 C 275.729 353.239,274.842 353.775,274.919 353.852 C 275.082 354.016,279.200 352.007,279.200 351.764 C 279.200 351.516,279.155 351.533,276.889 352.661 M271.700 355.233 C 270.325 355.900,269.200 356.536,269.200 356.646 C 269.200 356.757,269.335 356.777,269.500 356.692 C 269.665 356.607,270.835 356.043,272.100 355.439 C 273.365 354.835,274.400 354.264,274.400 354.171 C 274.400 353.922,274.419 353.914,271.700 355.233 M74.991 374.900 L 75.000 387.400 162.500 387.501 L 250.000 387.602 250.000 375.001 L 250.000 362.400 232.300 362.496 L 214.600 362.591 232.100 362.700 L 249.600 362.808 249.600 375.004 L 249.600 387.200 162.406 387.200 L 75.211 387.200 75.097 374.800 L 74.983 362.400 74.991 374.900 " stroke="none" fill="#a66e3e" fill-rule="evenodd"></path><path id="path4" d="M95.793 0.377 C 95.349 0.558,94.734 1.177,94.425 1.753 C 94.117 2.329,93.715 2.800,93.532 2.800 C 93.350 2.800,93.200 11.508,93.200 22.151 C 93.200 38.447,93.105 41.729,92.600 42.938 C 92.270 43.728,92.000 44.830,92.000 45.387 C 92.000 45.944,91.820 46.400,91.600 46.400 C 91.380 46.400,91.200 46.760,91.200 47.200 C 91.200 47.640,91.020 48.000,90.800 48.000 C 90.580 48.000,90.400 48.540,90.400 49.200 C 90.400 49.860,90.220 50.400,90.000 50.400 C 89.780 50.400,89.600 50.760,89.600 51.200 C 89.600 51.640,89.420 52.000,89.200 52.000 C 88.980 52.000,88.800 52.540,88.800 53.200 C 88.800 53.860,88.620 54.400,88.400 54.400 C 88.180 54.400,88.000 54.760,88.000 55.200 C 88.000 55.640,87.775 56.003,87.500 56.006 C 87.167 56.010,87.200 56.142,87.600 56.400 C 88.000 56.658,88.033 56.790,87.700 56.794 C 87.425 56.797,87.200 57.160,87.200 57.600 C 87.200 58.040,87.020 58.400,86.800 58.400 C 86.580 58.400,86.400 58.850,86.400 59.400 C 86.400 59.950,86.220 60.400,86.000 60.400 C 85.780 60.400,85.600 60.749,85.600 61.176 C 85.600 61.603,85.420 62.064,85.200 62.200 C 84.980 62.336,84.800 62.887,84.800 63.424 C 84.800 63.961,84.620 64.400,84.400 64.400 C 84.180 64.400,84.000 64.940,84.000 65.600 C 84.000 66.260,83.820 66.800,83.600 66.800 C 83.380 66.800,83.200 67.160,83.200 67.600 C 83.200 68.040,83.020 68.400,82.800 68.400 C 82.580 68.400,82.400 68.940,82.400 69.600 C 82.400 70.260,82.220 70.800,82.000 70.800 C 81.780 70.800,81.600 71.160,81.600 71.600 C 81.600 72.040,81.420 72.400,81.200 72.400 C 80.980 72.400,80.800 72.940,80.800 73.600 C 80.800 74.260,80.620 74.800,80.400 74.800 C 80.180 74.800,80.000 75.340,80.000 76.000 C 80.000 76.660,79.865 77.201,79.700 77.203 C 79.294 77.207,78.400 79.186,78.400 80.080 C 78.400 80.476,78.259 80.800,78.087 80.800 C 77.915 80.800,77.529 81.655,77.229 82.700 C 76.929 83.745,76.580 84.780,76.453 85.000 C 76.326 85.220,76.186 85.639,76.142 85.931 C 76.098 86.223,75.928 86.763,75.765 87.131 C 75.602 87.499,75.454 87.920,75.435 88.067 C 75.416 88.213,75.265 88.468,75.100 88.633 C 74.935 88.798,74.800 89.443,74.800 90.067 C 74.800 90.690,74.620 91.200,74.400 91.200 C 74.180 91.200,74.000 91.560,74.000 92.000 C 74.000 92.440,73.820 92.800,73.600 92.800 C 73.380 92.800,73.200 93.235,73.200 93.767 C 73.200 94.298,73.022 94.793,72.803 94.867 C 72.585 94.940,72.366 95.495,72.316 96.100 C 72.266 96.705,72.085 97.200,71.913 97.200 C 71.741 97.200,71.600 97.560,71.600 98.000 C 71.600 98.440,71.420 98.800,71.200 98.800 C 70.980 98.800,70.800 99.340,70.800 100.000 C 70.800 100.660,70.620 101.200,70.400 101.200 C 70.180 101.200,70.000 101.560,70.000 102.000 C 70.000 102.440,69.820 102.800,69.600 102.800 C 69.380 102.800,69.200 103.340,69.200 104.000 C 69.200 104.660,69.020 105.200,68.800 105.200 C 68.580 105.200,68.400 105.740,68.400 106.400 C 68.400 107.060,68.220 107.600,68.000 107.600 C 67.780 107.600,67.600 107.960,67.600 108.400 C 67.600 108.840,67.420 109.200,67.200 109.200 C 66.980 109.200,66.800 109.555,66.800 109.988 C 66.800 110.421,66.440 111.417,66.000 112.200 C 65.560 112.983,65.200 113.979,65.200 114.412 C 65.200 114.845,65.020 115.200,64.800 115.200 C 64.580 115.200,64.400 115.751,64.400 116.424 C 64.400 117.137,64.233 117.544,64.000 117.400 C 63.773 117.260,63.600 117.596,63.600 118.176 C 63.600 118.739,63.420 119.200,63.200 119.200 C 62.980 119.200,62.800 119.740,62.800 120.400 C 62.800 121.060,62.619 121.600,62.399 121.600 C 62.131 121.600,61.999 166.738,62.001 257.000 C 62.003 346.471,62.140 392.400,62.402 392.400 C 62.621 392.400,62.800 392.760,62.800 393.200 C 62.800 393.640,62.980 394.000,63.200 394.000 C 63.420 394.000,63.600 394.235,63.600 394.522 C 63.600 395.195,66.162 398.000,66.778 398.000 C 67.036 398.000,67.136 398.180,67.000 398.400 C 66.864 398.620,67.108 398.800,67.543 398.800 C 67.978 398.800,68.408 399.025,68.500 399.300 C 68.745 400.035,260.855 400.035,261.100 399.300 C 261.192 399.025,261.612 398.800,262.033 398.800 C 262.455 398.800,262.800 398.620,262.800 398.400 C 262.800 398.180,263.160 398.000,263.600 398.000 C 264.040 398.000,264.400 397.820,264.400 397.600 C 264.400 397.380,264.760 397.200,265.200 397.200 C 265.640 397.200,266.000 397.020,266.000 396.800 C 266.000 396.580,266.360 396.400,266.800 396.400 C 267.240 396.400,267.600 396.220,267.600 396.000 C 267.600 395.780,267.960 395.600,268.400 395.600 C 268.840 395.600,269.200 395.420,269.200 395.200 C 269.200 394.980,269.560 394.800,270.000 394.800 C 270.440 394.800,270.800 394.620,270.800 394.400 C 270.800 394.180,271.160 394.000,271.600 394.000 C 272.040 394.000,272.400 393.820,272.400 393.600 C 272.400 393.380,272.760 393.200,273.200 393.200 C 273.640 393.200,274.000 393.020,274.000 392.800 C 274.000 392.580,274.270 392.400,274.600 392.400 C 274.930 392.400,275.200 392.236,275.200 392.035 C 275.200 391.834,275.920 391.549,276.800 391.400 C 277.680 391.251,278.400 390.966,278.400 390.765 C 278.400 390.564,278.760 390.400,279.200 390.400 C 279.640 390.400,280.000 390.220,280.000 390.000 C 280.000 389.780,280.360 389.600,280.800 389.600 C 281.240 389.600,281.600 389.420,281.600 389.200 C 281.600 388.980,281.960 388.800,282.400 388.800 C 282.840 388.800,283.200 388.620,283.200 388.400 C 283.200 388.180,283.560 388.000,284.000 388.000 C 284.440 388.000,284.800 387.820,284.800 387.600 C 284.800 387.380,285.160 387.200,285.600 387.200 C 286.040 387.200,286.400 387.020,286.400 386.800 C 286.400 386.580,286.760 386.400,287.200 386.400 C 287.640 386.400,288.000 386.220,288.000 386.000 C 288.000 385.780,288.360 385.600,288.800 385.600 C 289.240 385.600,289.600 385.454,289.600 385.275 C 289.600 385.096,290.230 384.702,291.000 384.400 C 291.770 384.098,292.400 383.704,292.400 383.525 C 292.400 383.346,292.760 383.200,293.200 383.200 C 293.640 383.200,294.000 383.020,294.000 382.800 C 294.000 382.580,294.360 382.400,294.800 382.400 C 295.240 382.400,295.600 382.220,295.600 382.000 C 295.600 381.780,295.960 381.600,296.400 381.600 C 296.840 381.600,297.200 381.420,297.200 381.200 C 297.200 380.980,297.560 380.800,298.000 380.800 C 298.440 380.800,298.800 380.620,298.800 380.400 C 298.800 380.180,299.160 380.000,299.600 380.000 C 300.040 380.000,300.400 379.820,300.400 379.600 C 300.400 379.380,300.760 379.200,301.200 379.200 C 301.640 379.200,302.000 379.020,302.000 378.800 C 302.000 378.580,302.360 378.400,302.800 378.400 C 303.240 378.400,303.600 378.220,303.600 378.000 C 303.600 377.780,303.960 377.600,304.400 377.600 C 304.840 377.600,305.200 377.420,305.200 377.200 C 305.200 376.980,305.560 376.800,306.000 376.800 C 306.440 376.800,306.800 376.620,306.800 376.400 C 306.800 376.180,307.160 376.000,307.600 376.000 C 308.040 376.000,308.400 375.828,308.400 375.618 C 308.400 375.408,309.030 375.118,309.800 374.974 C 310.570 374.829,311.200 374.551,311.200 374.355 C 311.200 374.160,311.560 374.000,312.000 374.000 C 312.440 374.000,312.800 373.820,312.800 373.600 C 312.800 373.380,313.160 373.200,313.600 373.200 C 314.040 373.200,314.400 373.020,314.400 372.800 C 314.400 372.580,314.760 372.400,315.200 372.400 C 315.640 372.400,316.000 372.220,316.000 372.000 C 316.000 371.780,316.360 371.600,316.800 371.600 C 317.240 371.600,317.600 371.420,317.600 371.200 C 317.600 370.980,317.960 370.800,318.400 370.800 C 318.840 370.800,319.200 370.620,319.200 370.400 C 319.200 370.180,319.435 370.000,319.722 370.000 C 320.618 370.000,323.029 367.490,324.139 365.403 L 325.200 363.406 325.200 227.064 C 325.200 82.171,325.269 88.000,323.554 88.000 C 323.359 88.000,323.200 87.640,323.200 87.200 C 323.200 86.760,323.020 86.400,322.800 86.400 C 322.580 86.400,322.400 86.130,322.400 85.800 C 322.400 85.470,322.220 85.200,322.000 85.200 C 321.780 85.200,321.600 84.930,321.600 84.600 C 321.600 84.270,321.420 84.000,321.200 84.000 C 320.980 84.000,320.800 83.680,320.800 83.288 C 320.800 82.897,320.440 82.317,320.000 82.000 C 319.560 81.683,319.200 81.103,319.200 80.712 C 319.200 80.320,319.020 80.000,318.800 80.000 C 318.580 80.000,318.400 79.764,318.400 79.475 C 318.400 79.187,318.085 78.602,317.700 78.175 C 317.315 77.749,316.745 76.905,316.432 76.300 C 316.120 75.695,315.715 75.200,315.532 75.200 C 315.350 75.200,315.200 74.945,315.200 74.633 C 315.200 74.322,315.033 74.007,314.830 73.933 C 314.626 73.860,314.401 73.530,314.330 73.200 C 314.258 72.870,313.885 72.309,313.500 71.953 C 313.115 71.597,312.800 71.095,312.800 70.836 C 312.800 70.578,312.440 69.980,312.000 69.508 C 311.560 69.036,311.200 68.413,311.200 68.125 C 311.200 67.836,311.020 67.600,310.800 67.600 C 310.580 67.600,310.400 67.280,310.400 66.888 C 310.400 66.497,310.040 65.917,309.600 65.600 C 309.160 65.283,308.800 64.725,308.800 64.361 C 308.800 63.996,308.530 63.474,308.200 63.200 C 307.870 62.926,307.600 62.532,307.600 62.323 C 307.600 62.115,307.060 61.159,306.400 60.200 C 305.740 59.241,305.200 58.346,305.200 58.211 C 305.200 58.077,304.840 57.580,304.400 57.108 C 303.960 56.636,303.600 56.013,303.600 55.725 C 303.600 55.436,303.420 55.200,303.200 55.200 C 302.980 55.200,302.800 54.964,302.800 54.675 C 302.800 54.387,302.440 53.764,302.000 53.292 C 301.560 52.820,301.200 52.238,301.200 52.000 C 301.200 51.762,300.840 51.180,300.400 50.708 C 299.960 50.236,299.600 49.613,299.600 49.325 C 299.600 49.036,299.420 48.800,299.200 48.800 C 298.980 48.800,298.800 48.519,298.800 48.176 C 298.800 47.833,298.620 47.664,298.400 47.800 C 298.180 47.936,298.000 47.677,298.000 47.224 C 298.000 46.771,297.820 46.400,297.600 46.400 C 297.380 46.400,297.200 46.080,297.200 45.688 C 297.200 45.297,296.840 44.717,296.400 44.400 C 295.960 44.083,295.596 43.638,295.591 43.412 C 295.586 43.185,295.230 42.550,294.800 42.000 C 294.049 41.040,294.017 40.240,294.009 21.900 C 294.003 9.439,293.861 2.800,293.600 2.800 C 293.380 2.800,293.200 2.517,293.200 2.171 C 293.200 0.059,300.328 0.207,194.229 0.124 C 140.533 0.082,96.237 0.196,95.793 0.377 M281.200 15.600 L 281.200 18.800 193.600 18.800 L 106.000 18.800 106.000 15.867 C 106.000 14.253,106.120 12.813,106.267 12.667 C 106.413 12.520,145.833 12.400,193.867 12.400 L 281.200 12.400 281.200 15.600 M267.335 31.465 L 281.200 31.730 281.200 34.400 L 281.200 37.070 267.335 37.335 C 259.709 37.481,220.379 37.600,179.935 37.600 L 106.400 37.600 106.400 34.400 L 106.400 31.200 179.935 31.200 C 220.379 31.200,259.709 31.319,267.335 31.465 M278.402 50.300 C 278.403 50.465,277.701 52.400,276.842 54.600 C 275.983 56.800,274.380 60.940,273.280 63.800 C 272.180 66.660,270.372 71.340,269.262 74.200 C 268.152 77.060,265.153 84.890,262.597 91.600 C 257.954 103.790,257.671 104.524,256.892 106.400 C 256.663 106.950,255.902 108.930,255.200 110.800 C 253.696 114.807,253.491 115.324,252.622 117.300 L 251.962 118.800 172.430 118.800 C 86.484 118.800,91.301 118.680,89.376 120.865 C 86.623 123.990,87.402 128.217,91.115 130.304 L 92.709 131.200 171.354 131.200 L 250.000 131.200 250.000 225.000 L 250.000 318.800 237.100 318.811 C 224.480 318.822,224.161 318.842,222.421 319.732 C 217.964 322.012,217.750 327.963,222.037 330.373 C 223.505 331.198,224.221 331.252,236.797 331.484 L 250.015 331.728 249.907 340.764 L 249.800 349.800 162.400 349.800 L 75.000 349.800 75.000 340.600 L 75.000 331.400 138.199 331.299 C 205.850 331.190,202.713 331.285,204.506 329.304 C 207.469 326.030,205.947 320.694,201.640 319.254 C 200.648 318.923,183.312 318.800,137.540 318.800 L 74.800 318.800 74.800 222.080 C 74.800 168.884,74.952 125.189,75.138 124.980 C 75.323 124.771,75.881 123.520,76.377 122.200 C 76.872 120.880,77.465 119.350,77.693 118.800 C 78.221 117.526,78.447 116.938,80.000 112.800 C 80.702 110.930,81.421 109.040,81.598 108.600 C 81.775 108.160,82.105 107.260,82.332 106.600 C 83.211 104.045,91.314 82.826,92.491 80.000 C 93.016 78.737,93.235 78.170,94.800 74.000 C 95.502 72.130,96.239 70.195,96.438 69.700 C 96.637 69.205,96.963 68.395,97.162 67.900 C 97.362 67.405,98.280 65.020,99.202 62.600 C 100.125 60.180,101.396 56.850,102.028 55.200 C 102.660 53.550,103.357 51.705,103.578 51.100 L 103.980 50.000 191.190 50.000 C 239.156 50.000,278.401 50.135,278.402 50.300 M168.600 56.885 C 167.060 57.085,165.080 57.433,164.200 57.658 C 160.093 58.706,159.347 58.912,158.600 59.206 C 150.739 62.296,146.593 65.988,144.620 71.652 C 143.618 74.531,143.729 94.669,144.763 97.498 C 151.689 116.448,196.078 117.657,204.632 99.130 L 205.800 96.600 205.800 84.400 L 205.800 72.200 204.634 69.675 C 202.068 64.117,195.506 59.955,185.600 57.601 C 180.840 56.470,173.999 56.182,168.600 56.885 M290.690 60.347 C 291.278 61.366,292.865 63.910,294.216 66.000 C 295.568 68.090,298.255 72.320,300.187 75.400 C 302.119 78.480,304.488 82.213,305.450 83.695 C 306.413 85.178,307.200 86.490,307.200 86.611 C 307.200 86.732,307.828 87.765,308.596 88.905 C 310.385 91.561,311.635 90.653,294.400 99.215 C 286.370 103.205,277.296 107.721,274.236 109.250 C 268.808 111.963,267.397 112.274,268.344 110.547 C 268.569 110.136,270.667 104.760,273.005 98.600 C 277.420 86.969,280.973 77.724,281.691 76.000 C 282.347 74.423,282.635 73.680,284.398 69.000 C 289.064 56.613,288.770 57.018,290.690 60.347 M182.600 69.348 C 187.712 70.346,193.600 73.368,193.600 74.994 C 193.600 76.543,188.864 79.112,183.575 80.432 C 172.098 83.297,152.555 78.245,157.188 73.612 C 158.488 72.312,162.406 70.541,165.600 69.808 C 167.250 69.429,168.780 69.062,169.000 68.991 C 170.177 68.614,180.185 68.876,182.600 69.348 M161.038 91.797 C 167.691 93.730,178.665 94.427,184.400 93.280 C 185.830 92.994,187.587 92.659,188.304 92.536 C 189.021 92.413,189.706 92.151,189.827 91.956 C 189.948 91.760,190.476 91.600,191.000 91.600 C 191.524 91.600,192.064 91.420,192.200 91.200 C 192.814 90.206,193.600 90.838,193.600 92.325 C 193.600 100.113,166.046 102.446,157.637 95.370 C 156.146 94.115,155.689 90.039,157.100 90.586 C 157.485 90.735,159.257 91.280,161.038 91.797 M312.548 104.900 C 313.165 107.203,312.815 289.490,312.192 290.006 C 310.981 291.012,263.695 314.800,262.908 314.800 C 262.496 314.800,262.418 296.936,262.499 221.700 L 262.600 128.600 287.200 116.316 C 314.706 102.580,312.226 103.697,312.548 104.900 M85.862 150.583 C 84.047 151.230,82.635 152.467,82.026 153.940 C 81.076 156.241,81.656 252.145,82.628 253.471 C 84.641 256.214,77.803 255.999,162.841 255.999 L 239.482 256.000 240.841 255.086 C 243.759 253.123,243.559 256.909,243.581 203.074 C 243.595 168.028,243.476 154.507,243.150 153.874 C 242.399 152.415,241.072 151.160,239.651 150.565 C 237.664 149.733,88.198 149.750,85.862 150.583 M221.900 162.665 L 231.200 162.928 231.200 203.264 L 231.200 243.600 162.664 243.600 L 94.128 243.600 93.865 234.300 C 93.520 222.123,93.522 163.011,93.867 162.667 C 94.212 162.321,209.691 162.320,221.900 162.665 M122.736 181.738 C 118.026 183.831,117.519 189.982,121.823 192.819 C 123.239 193.752,200.740 194.070,202.526 193.150 C 207.260 190.712,207.528 184.833,203.026 182.194 L 201.330 181.200 162.565 181.232 C 133.674 181.257,123.529 181.385,122.736 181.738 M103.586 213.300 C 99.247 215.490,98.909 221.491,102.985 223.982 C 104.311 224.793,219.958 225.378,221.799 224.583 C 226.397 222.598,226.333 215.333,221.696 212.851 C 221.081 212.522,205.210 212.400,163.111 212.400 L 105.370 212.400 103.586 213.300 M312.101 320.859 C 311.928 321.032,308.950 322.601,305.485 324.345 C 302.020 326.088,298.935 327.722,298.630 327.975 C 298.033 328.470,263.027 346.000,262.635 346.000 C 262.120 346.000,262.386 329.310,262.908 328.877 C 263.625 328.282,299.314 310.407,299.800 310.399 C 300.020 310.396,302.900 309.063,306.200 307.437 L 312.200 304.481 312.309 312.512 C 312.368 316.929,312.275 320.685,312.101 320.859 M312.557 335.833 C 313.221 337.561,312.810 358.268,312.100 358.875 C 311.380 359.492,263.186 383.600,262.674 383.600 C 262.517 383.600,262.436 378.248,262.494 371.707 L 262.600 359.814 276.600 352.854 C 284.300 349.026,295.370 343.501,301.200 340.577 C 313.040 334.637,312.228 334.976,312.557 335.833 M250.000 375.001 L 250.000 387.602 162.500 387.501 L 75.000 387.400 74.894 374.900 L 74.789 362.400 162.394 362.400 L 250.000 362.400 250.000 375.001 " stroke="none" fill="#6c3c1c" fill-rule="evenodd"></path></g></svg>