<?xml version="1.0" encoding="UTF-8"?>
<svg version="1.1" xmlns="http://www.w3.org/2000/svg" width="225" height="225">
<path d="M0 0 C8.28812086 5.63726439 13.79411079 13.0297929 15.875 22.875 C17.08624313 33.33458912 15.09009777 41.50331497 9.125 50.125 C2.82107042 57.96531443 -5.0040545 62.25201306 -14.875 63.75 C-24.75463409 64.46327619 -33.63059996 61.21641542 -41.125 54.875 C-47.9996762 48.65505487 -51.49486028 41.63720544 -52.50390625 32.41015625 C-52.86274813 21.74907961 -50.73943233 14.6090027 -43.8125 6.5 C-31.7454993 -6.05832809 -15.1735116 -8.59832324 0 0 Z M-30.125 21.875 C-32.4096568 25.49237326 -32.40436483 28.65956553 -31.734375 32.87890625 C-30.47327286 37.00982415 -27.72405098 39.66192684 -24.3125 42.25 C-19.16250258 43.72142784 -15.46362529 43.58219826 -10.8125 41.125 C-7.1086046 38.02406431 -5.49547561 36.27751479 -4.25 31.5625 C-4.05110017 25.69495511 -5.8751415 22.30776462 -9.6875 17.9375 C-13.12846268 15.3696174 -16.44094126 15.10434314 -20.65234375 15.3203125 C-24.88148548 16.26902992 -27.42225033 18.58298804 -30.125 21.875 Z " fill="#8D939D" transform="translate(184.125,127.125)"/>
<path d="M0 0 C4.241334 3.4504295 7.05907288 7.5551288 9.6875 12.3125 C10.02910156 12.92738281 10.37070313 13.54226562 10.72265625 14.17578125 C14.28737426 21.91868037 13.97043791 31.80321646 11.0625 39.6875 C6.37590243 49.63024692 -0.44895354 56.2767006 -10.5625 60.75 C-22.68066456 62.56772468 -32.35988329 61.53582905 -42.5625 54.625 C-48.76006705 49.65442602 -53.69232302 42.14558707 -55.3125 34.3125 C-56.45511033 23.46475499 -54.49962658 14.43844875 -48.1875 5.5 C-35.87204148 -9.24683659 -15.43199979 -10.5125008 0 0 Z M-33.0625 19.5625 C-35.26596149 24.41011528 -35.7525496 27.8701152 -34.1875 33 C-32.15069092 36.59836271 -30.9059649 38.28141114 -27.3125 40.3125 C-22.84012903 41.51119462 -19.40663988 41.68409468 -15 40.1875 C-10.54368052 37.0784399 -8.66718651 34.77853757 -7.375 29.4375 C-7.04628549 25.08203268 -8.05881045 22.09288247 -10.3125 18.3125 C-13.84535956 14.95197505 -16.62104356 14.04478416 -21.375 13.875 C-26.71909287 14.1157249 -29.72018876 15.26524269 -33.0625 19.5625 Z " fill="#8D939D" transform="translate(80.3125,41.6875)"/>
<path d="M0 0 C0.70281097 -0.00817749 1.40562195 -0.01635498 2.12973022 -0.02478027 C4.45456092 -0.04958345 6.77933077 -0.06613687 9.10424805 -0.08056641 C9.89938498 -0.08589008 10.6945219 -0.09121376 11.51375389 -0.09669876 C15.72221283 -0.12340788 19.93064233 -0.14279017 24.13916016 -0.15722656 C27.61859414 -0.1705677 31.09744192 -0.19842575 34.57666016 -0.23925781 C38.78176911 -0.28860561 42.98634626 -0.31334988 47.19173241 -0.32045364 C48.7917073 -0.3271604 50.39167059 -0.34236771 51.99147987 -0.36634445 C54.23452934 -0.39804461 56.4755344 -0.39802698 58.71875 -0.390625 C59.99321487 -0.39871185 61.26767975 -0.40679871 62.58076477 -0.41513062 C67.16764525 0.38794179 68.7789952 1.93795105 72.0534668 5.19287109 C73.60371144 8.29336038 73.34338695 10.77181327 73.0534668 14.19287109 C70.62571358 18.23912645 68.48799069 19.7917526 64.0534668 21.19287109 C60.83509827 21.4535675 60.83509827 21.4535675 57.15527344 21.4675293 C56.48143112 21.47264023 55.80758881 21.47775116 55.11332703 21.48301697 C52.89666745 21.49686143 50.68032059 21.49596018 48.46362305 21.49365234 C46.91572454 21.49754203 45.3678271 21.50187726 43.81993103 21.50663757 C40.57946306 21.51408864 37.33910406 21.51381655 34.09863281 21.50854492 C29.9548463 21.50275084 25.81150685 21.5196849 21.66779423 21.5428896 C18.47209585 21.55765166 15.27650455 21.5584953 12.08077812 21.55537987 C10.55342155 21.55589181 9.02605878 21.56110563 7.49873543 21.57119179 C5.3592165 21.58358781 3.22056075 21.57674665 1.08105469 21.56518555 C-0.74165199 21.56612968 -0.74165199 21.56612968 -2.60118103 21.5670929 C-7.33425554 21.03763603 -10.71311887 19.58543566 -13.8840332 16.00537109 C-15.33924595 12.15333735 -15.16739546 9.10946277 -13.9465332 5.19287109 C-10.02317048 0.09249956 -6.13598959 0.06203342 0 0 Z " fill="#8D949D" transform="translate(43.946533203125,145.80712890625)"/>
<path d="M0 0 C0.71271057 -0.00832352 1.42542114 -0.01664703 2.159729 -0.02522278 C4.51165254 -0.04928297 6.86329854 -0.05808975 9.21533203 -0.06469727 C10.85434043 -0.07366646 12.493348 -0.08278836 14.13235474 -0.09205627 C17.56709786 -0.10853786 21.0017436 -0.11624489 24.43652344 -0.11914062 C28.83054165 -0.12452446 33.22364056 -0.16220712 37.61739922 -0.20788479 C41.00268876 -0.23767621 44.38775743 -0.24486462 47.77316666 -0.24586678 C49.39266293 -0.25006477 51.01216012 -0.26248233 52.63152695 -0.28338432 C54.90086596 -0.31034504 57.16808081 -0.30546176 59.4375 -0.29296875 C60.72671356 -0.2980394 62.01592712 -0.30311005 63.34420776 -0.30833435 C67.95440604 0.50047906 69.56598949 2.02711846 72.84814453 5.30639648 C74.0291382 7.98263964 74.11263743 10.40285218 73.84814453 13.30639648 C72.2738369 16.92730405 71.15931527 18.09894932 67.84814453 20.30639648 C65.39824115 20.51034757 63.06103402 20.60013363 60.61035156 20.59692383 C59.87667358 20.60364105 59.14299561 20.61035828 58.38708496 20.61727905 C55.95997355 20.63628764 53.53313826 20.64018472 51.10595703 20.64233398 C49.41828294 20.64876021 47.73060997 20.65548844 46.04293823 20.6625061 C42.50385963 20.67448621 38.9648787 20.67818621 35.42578125 20.67700195 C30.8938867 20.67679878 26.36261941 20.70409515 21.83087349 20.73854637 C18.34440239 20.76080033 14.85808255 20.76483995 11.3715477 20.7637825 C9.70100621 20.76614095 8.0304607 20.77497827 6.35998917 20.79044724 C4.02112365 20.8100765 1.68361461 20.80428224 -0.65527344 20.79223633 C-1.34324005 20.80347534 -2.03120667 20.81471436 -2.74002075 20.82629395 C-7.46152167 20.76459967 -9.83072164 19.62859517 -13.15185547 16.30639648 C-14.68400435 13.24209872 -14.38124095 10.68983229 -14.15185547 7.30639648 C-12.92697146 4.55040746 -11.99971428 2.87638553 -9.48947144 1.18882751 C-6.26583981 -0.02806723 -3.44418818 0.0284598 0 0 Z " fill="#9BA4AC" transform="translate(122.15185546875,58.693603515625)"/>
<path d="M0 0 C0.99 0.66 1.98 1.32 3 2 C-1.09828032 3.9530246 -4.38284093 4.24357279 -8.90161133 4.22705078 C-9.91220108 4.22748886 -9.91220108 4.22748886 -10.94320679 4.22793579 C-13.15628214 4.22654938 -15.36901516 4.21102111 -17.58203125 4.1953125 C-19.12188025 4.19157991 -20.66173163 4.1887341 -22.20158386 4.18673706 C-26.24415708 4.17911994 -30.28658539 4.15948808 -34.32910156 4.1373291 C-38.4583134 4.11682918 -42.58754876 4.10772649 -46.71679688 4.09765625 C-54.81126423 4.07624026 -62.90561406 4.04212766 -71 4 C-70.67 3.34 -70.34 2.68 -70 2 C-68.70667503 1.9845388 -68.70667503 1.9845388 -67.38722229 1.96876526 C-59.27886852 1.87096402 -51.17059069 1.76847486 -43.06236362 1.66066074 C-38.89340984 1.60539364 -34.72444909 1.55196774 -30.55541992 1.50268555 C-26.53536106 1.45509765 -22.51539011 1.40275714 -18.49543571 1.34705925 C-16.95839553 1.32661034 -15.42133121 1.30790153 -13.88424873 1.29092598 C-11.73857994 1.2669378 -9.59307871 1.23687617 -7.44750977 1.20532227 C-5.6121743 1.18200584 -5.6121743 1.18200584 -3.73976135 1.15821838 C-1.08811171 1.309833 -1.08811171 1.309833 0 0 Z " fill="#888A91" transform="translate(110,163)"/>
<path d="M0 0 C0.66 0 1.32 0 2 0 C2 0.66 2 1.32 2 2 C5.74962058 3.19910499 9.44608036 3.13389975 13.33886719 3.11352539 C14.07096909 3.11367142 14.80307098 3.11381744 15.55735779 3.1139679 C17.97056062 3.11327276 20.3836857 3.10549908 22.796875 3.09765625 C24.47267617 3.09579065 26.14847788 3.09436742 27.82427979 3.09336853 C32.23013826 3.08955452 36.63596366 3.07973376 41.04180908 3.06866455 C45.53958692 3.05842643 50.03737011 3.05386576 54.53515625 3.04882812 C63.35678535 3.0381105 72.17838992 3.02104747 81 3 C80.67 3.66 80.34 4.32 80 5 C70.15995906 5.06949656 60.31997647 5.12280952 50.47974014 5.15543652 C45.91055892 5.1710955 41.34154555 5.19233799 36.77246094 5.22631836 C32.36340433 5.25890357 27.95450922 5.27685126 23.54534149 5.28463173 C21.86280525 5.29017675 20.18027789 5.3010048 18.49781036 5.31719017 C16.1419003 5.33895363 13.7866584 5.34196743 11.43066406 5.34057617 C10.73438904 5.351362 10.03811401 5.36214783 9.32073975 5.3732605 C6.24426873 5.35358941 4.23586698 5.13363722 1.5355835 3.60371399 C0 2 0 2 0 0 Z " fill="#9098A1" transform="translate(110,74)"/>
<path d="M0 0 C0.66 1.32 1.32 2.64 2 4 C0.8803014 5.00593243 -0.2459412 6.0045849 -1.375 7 C-2.31472656 7.8353125 -2.31472656 7.8353125 -3.2734375 8.6875 C-5 10 -5 10 -7 10 C-7.33 10.66 -7.66 11.32 -8 12 C-12.34463983 12.99765804 -16.63714208 13.28392873 -21 12.375 C-23.57546388 10.60436858 -24.14431573 8.95600022 -25 6 C-23.515 6.99 -23.515 6.99 -22 8 C-17.7113997 10.42587492 -14.89397387 10.621457 -10 10 C-5.0643607 7.53218035 -2.72802484 4.61665742 0 0 Z " fill="#878B91" transform="translate(180,159)"/>
<path d="M0 0 C0 0.33 0 0.66 0 1 C-0.56847656 1.04898438 -1.13695313 1.09796875 -1.72265625 1.1484375 C-6.69719211 1.63011209 -11.204802 2.52455446 -16 4 C-17.66246041 4.35371498 -19.32774271 4.69595322 -21 5 C-21 5.66 -21 6.32 -21 7 C-22.65 7.33 -24.3 7.66 -26 8 C-19.10323507 0.3831552 -9.81883138 -0.68370973 0 0 Z " fill="#84888F" transform="translate(64,35)"/>
<path d="M0 0 C0.92740006 3.60290818 1.67050205 7.23199759 2.40234375 10.87890625 C2.95924461 13.27280682 2.95924461 13.27280682 5 16 C4.34 16.33 3.68 16.66 3 17 C3 16.34 3 15.68 3 15 C0.525 14.01 0.525 14.01 -2 13 C-1.835 12.29875 -1.67 11.5975 -1.5 10.875 C-0.908975 7.96296532 -0.908975 7.96296532 -1 4.8125 C-1 2 -1 2 0 0 Z " fill="#878B92" transform="translate(45,64)"/>
<path d="M0 0 C1.93166016 0.01740234 1.93166016 0.01740234 3.90234375 0.03515625 C5.19269531 0.04417969 6.48304688 0.05320313 7.8125 0.0625 C8.81152344 0.07410156 9.81054688 0.08570313 10.83984375 0.09765625 C7.74623017 2.16006531 6.37285829 2.48757527 2.77734375 2.84765625 C1.89949219 2.945625 1.02164063 3.04359375 0.1171875 3.14453125 C-2.16015625 3.09765625 -2.16015625 3.09765625 -4.16015625 1.09765625 C-3.16015625 0.09765625 -3.16015625 0.09765625 0 0 Z " fill="#8A8E94" transform="translate(166.16015625,187.90234375)"/>
<path d="M0 0 C2.125 0.375 2.125 0.375 4 1 C2.92456217 1.98783194 1.83926783 2.96493943 0.75 3.9375 C-0.15492188 4.75541016 -0.15492188 4.75541016 -1.078125 5.58984375 C-3.08467305 7.06212799 -4.57002449 7.57529189 -7 8 C-2.25 2.25 -2.25 2.25 0 0 Z " fill="#888C92" transform="translate(187,179)"/>
<path d="M0 0 C1.5 1.0625 1.5 1.0625 3 3 C3.3125 6.5625 3.3125 6.5625 3 10 C2.34 10.66 1.68 11.32 1 12 C-0.15346355 7.96287759 0 4.19038946 0 0 Z " fill="#868A90" transform="translate(114,150)"/>
<path d="M0 0 C0 3.10551666 -0.5393715 4.35261084 -2 7 C-3.65 6.67 -5.3 6.34 -7 6 C-6.21625 5.38125 -5.4325 4.7625 -4.625 4.125 C-2.03162353 2.10141339 -2.03162353 2.10141339 0 0 Z " fill="#858B93" transform="translate(70,77)"/>
<path d="M0 0 C2.875 0.3125 2.875 0.3125 6 1 C6.66 1.99 7.32 2.98 8 4 C5.125 3.6875 5.125 3.6875 2 3 C1.34 2.01 0.68 1.02 0 0 Z " fill="#888D94" transform="translate(106,146)"/>
</svg>
